<?xml version="1.0" encoding="UTF-8"?><svg id="Layer_1" xmlns="http://www.w3.org/2000/svg" viewBox="0 0 460.96 70.6"><defs><style>.cls-1{fill:#fff;}.cls-2{fill:#7389dc;}</style></defs><rect class="cls-2" x="0" y=".19" width="460.96" height="70.6" rx="35.3" ry="35.3"/><path class="cls-1" d="m143.44,21.73h9.58c8.12,0,14.4,5.96,14.4,13.71,0,7.34-5.59,13.8-14.4,13.8h-9.58v-27.51Zm5.04,26.23v-24.94h-3.35v24.94h3.35Zm4.4-4.86c4.31,0,7.61-3.03,7.61-7.66,0-4.26-2.89-7.61-7.61-7.61h-2.71v15.27h2.71Z"/><path class="cls-1" d="m172.01,21.73h6.74v27.51h-6.74v-27.51Zm5.04,26.23v-9.81h-3.35v9.81h3.35Z"/><path class="cls-1" d="m189.57,41.17c0,1.6,1.28,2.89,2.84,2.89,1.7,0,2.75-.96,2.75-2.38,0-2.06-2.71-2.66-4.95-3.44-4.63-1.65-7.2-3.81-7.2-8.53s4.17-8.9,9.35-8.9c6.1,0,8.99,3.9,9.35,8.99h-6.33c0-1.56-.96-2.84-2.84-2.84-1.47,0-2.89.87-2.89,2.66,0,2.06,2.52,2.43,4.86,3.12,4.91,1.47,7.2,4.22,7.2,8.53,0,4.86-4.13,8.9-9.31,8.9-6.01,0-9.4-4.04-9.4-8.99h6.56Zm2.84,7.7v-3.53c-2.34-.05-3.81-1.38-4.22-2.89h-3.58c.09,3.44,3.44,6.42,7.8,6.42Zm7.66-20.36c-.28-2.71-2.29-6.42-7.66-6.42v3.58c2.84,0,3.81,1.7,4.22,2.84h3.44Z"/><path class="cls-1" d="m221.44,20.81c5.23,0,8.85,1.97,11.78,5.04l-4.63,4.4c-1.93-1.88-4.4-3.07-7.15-3.07-4.91,0-8.07,3.67-8.07,8.3s3.16,8.3,8.07,8.3c2.75,0,5.23-1.19,7.15-3.07l4.49,4.4c-2.75,2.89-6.56,5.04-11.65,5.04-8.71,0-14.9-6.47-14.9-14.67s6.19-14.67,14.9-14.67Zm7.11,7.57l2.61-2.52c-2.43-2.48-5.59-3.76-9.72-3.76v3.81c2.61,0,5.13.96,7.11,2.48Zm2.52,16.83l-2.61-2.66c-1.65,1.47-4.26,2.52-7.02,2.52v3.81c4.04,0,7.06-1.28,9.63-3.67Z"/><path class="cls-1" d="m250.2,20.81c8.67,0,14.81,6.47,14.81,14.67s-6.14,14.67-14.81,14.67-14.81-6.47-14.81-14.67,6.1-14.67,14.81-14.67Zm0,27.97c6.6,0,11.6-4.4,12.84-10.41h-3.53c-1.1,3.99-4.49,6.83-9.31,6.83s-8.21-2.89-9.31-6.83h-3.53c1.19,6.05,6.19,10.41,12.84,10.41Zm0-5c4.86,0,7.98-3.67,7.98-8.3s-3.12-8.3-7.98-8.3-7.98,3.67-7.98,8.3,3.07,8.3,7.98,8.3Z"/><path class="cls-1" d="m269.69,21.73h11.51c5.92,0,9.77,3.58,9.77,8.76,0,4.81-2.43,7.52-6.51,8.53l7.43,10.23h-8.44l-7.02-10.27v10.27h-6.74v-27.51Zm5.04,26.23v-24.94h-3.35v24.94h3.35Zm7.11-14.31c1.51,0,2.52-1.56,2.52-3.16s-1.19-3.03-2.71-3.03h-5.23v6.19h5.41Z"/><path class="cls-1" d="m294.27,21.73h9.58c8.12,0,14.4,5.96,14.4,13.71,0,7.34-5.59,13.8-14.4,13.8h-9.58v-27.51Zm5.04,26.23v-24.94h-3.35v24.94h3.35Zm4.4-4.86c4.31,0,7.61-3.03,7.61-7.66,0-4.26-2.89-7.61-7.61-7.61h-2.71v15.27h2.71Z"/></svg>