<svg xmlns="http://www.w3.org/2000/svg" viewBox="0 0 460.96 70.6"><defs><style>.cls-1{isolation:isolate;}.cls-2,.cls-4{fill:#fff;}.cls-3{fill:#6441a4;mix-blend-mode:color;}.cls-4{fill-rule:evenodd;}</style></defs><g class="cls-1"><g id="Layer_1" data-name="Layer 1"><path class="cls-2" d="M165,20.75a1.4,1.4,0,0,1,.49-.25.27.27,0,0,1,.28.25,1,1,0,0,1-.24.56c-.65.89-2.67,3.77-5,3.77a13,13,0,0,1-5.59-1.34c-4,4.66-2.11,14-5.55,19.76a9.79,9.79,0,0,1-8.22,4.86c-3.28,0-4.33-1.62-4.33-2.35a.64.64,0,0,1,.65-.72.56.56,0,0,1,.6.6c0,.45.53,1.5,2.15,1.5,1.9,0,3.4-1.66,5-5,2.59-5.43,3.61-15.1,8.46-19.23a16.2,16.2,0,0,0-7.12-1.91c-4.86,0-10.53,4.3-10.53,10.57,0,2.8,1.05,5.1,4,5.1a3.38,3.38,0,0,0,3.6-3.11c0-1-.77-1.06-.77-1.91a1.23,1.23,0,0,1,1.3-1.29c.85,0,1.37.69,1.37,1.66a5.68,5.68,0,0,1-5.75,5.42c-3.52,0-6.64-2.26-6.64-6.07,0-7.13,7.09-11.18,13.81-11.18,6.36,0,7.86,1.46,14,1.46A6.76,6.76,0,0,0,165,20.75Z"/><path class="cls-2" d="M164.06,42.94c0,.69.25,1.09.85,1.09,2,0,3.4-2.79,3.4-4.58,0-1.25-.72-1.17-.72-2.38a1.43,1.43,0,0,1,1.57-1.3c1.06,0,1.58.69,1.58,1.78,0,3.36-4.41,8.14-7.33,8.14-1.82,0-2.95-.57-3.11-2a6.65,6.65,0,0,1-4.38,2,2,2,0,0,1-2.3-2c0-1.79,2.18-4.26,2.18-5.83,0-.17,0-.41-.36-.41s-1.54,1-1.54,1l-.28-.36c.64-.61,2.63-2.35,3.92-2.35,1.1,0,1.7.53,1.7,1.34,0,1.62-2,4.45-2,6.11a.85.85,0,0,0,.89,1c.45,0,1-.12,1.9-1.13.57-.61,1.1-2.92,1.5-4.29s.77-2.19,1.38-2.19a18,18,0,0,0,3.08-.53.3.3,0,0,1,.32.33,6.3,6.3,0,0,1-.69,1.17A13.69,13.69,0,0,0,164.06,42.94Z"/><path class="cls-2" d="M175.6,43.22c0,.61.29.85.53.85.77,0,1.94-1.21,1.94-1.21l.33.32s-2.31,2.51-4.17,2.51c-1.18,0-2.35-.36-2.35-2s2.19-4.26,2.19-5.83a.33.33,0,0,0-.37-.37c-.4,0-1.5,1-1.5,1l-.28-.36c.65-.57,2.63-2.31,3.93-2.31,1.13,0,1.86.61,1.86,1.38C177.71,38.89,175.6,41.56,175.6,43.22ZM178,29.82A1.17,1.17,0,0,1,179.25,31c0,1.18-1.05,2.63-2,2.63a1.27,1.27,0,0,1-1.33-1.33A2.73,2.73,0,0,1,178,29.82Z"/><path class="cls-2" d="M180.87,34.68h.77a4.19,4.19,0,0,1,3.24-3.2,7.73,7.73,0,0,0,2.22-.77l.25.48A4.77,4.77,0,0,0,185.69,33a7.72,7.72,0,0,0-.81,1.7h2.83l-.36.69h-2.67c-.77,2.63-1.79,5.87-1.79,7.32,0,1,.33,1.38,1,1.38a3.87,3.87,0,0,0,2.22-1.21l.29.32s-2.27,2.51-4.26,2.51a2.58,2.58,0,0,1-2.79-2.35c0-1.66,1-4.45,2.11-8h-1Z"/><path class="cls-2" d="M197.31,37.79a1.65,1.65,0,0,1-1.54,1.75c-.73,0-1.38-.49-1.38-1.06,0-.73.73-1.09.73-1.62a.43.43,0,0,0-.4-.48c-2.15,0-3.81,2.79-3.81,5.55,0,1.82.81,2.55,1.9,2.55,1.38,0,2.84-1.58,2.84-1.58l.28.32A7,7,0,0,1,191,45.69c-1.54,0-3.68-.73-3.68-3.16,0-4.25,4.17-6.76,7.16-6.76C196,35.77,197.31,36.66,197.31,37.79Z"/><path class="cls-2" d="M203.42,27.43a2.64,2.64,0,0,1-.56,0,6.63,6.63,0,0,1-1.26-.2l.37-.49a4.06,4.06,0,0,0,1.17.16,10.21,10.21,0,0,0,4.09-.93l.2.37a6.06,6.06,0,0,0-1.66,2c-1,1.74-3.32,10.73-3.32,10.73,1.66-1.9,4.21-3.44,5.71-3.44,1,0,1.87.44,1.87,1.58,0,2-1.83,3.8-1.83,6,0,.69.37.85.61.85.77,0,1.94-1.21,1.94-1.21l.33.32s-2.19,2.51-4.13,2.51c-1.22,0-2.43-.48-2.43-1.94,0-2.15,2.23-4.34,2.23-5.87,0-.45-.17-.61-.45-.61-.61,0-2.07.65-3.73,2.67-1,1.26-1.78,4.66-1.78,5.22s-.2.61-.56.61-1.22-.16-1.91-.16a5.78,5.78,0,0,0-1.5.32.15.15,0,0,1-.16-.16c0-.16.41-.44.73-1.09a23.55,23.55,0,0,0,1.62-5c1.09-4,2.35-8.95,2.63-9.88A4.06,4.06,0,0,1,203.42,27.43Z"/><path class="cls-2" d="M213.43,42.57a.92.92,0,0,1,.89,1c0,1-.81,2.42-2,2.42a1,1,0,0,1-1-1.09C211.36,44.07,212.25,42.57,213.43,42.57Z"/><path class="cls-2" d="M218.41,34.68h.77a4.19,4.19,0,0,1,3.24-3.2,7.73,7.73,0,0,0,2.22-.77l.25.48A4.77,4.77,0,0,0,223.23,33a7.72,7.72,0,0,0-.81,1.7h2.83l-.36.69h-2.67c-.77,2.63-1.79,5.87-1.79,7.32,0,1,.33,1.38,1,1.38a3.87,3.87,0,0,0,2.22-1.21l.29.32s-2.27,2.51-4.26,2.51a2.58,2.58,0,0,1-2.79-2.35c0-1.66,1.05-4.45,2.11-8h-1Z"/><path class="cls-2" d="M233.15,39.45c0-1.33-.69-1.13-.69-2.42A1.38,1.38,0,0,1,234,35.77a1.55,1.55,0,0,1,1.62,1.74c0,3.48-5.22,8.18-8.46,8.18a2.08,2.08,0,0,1-2.31-2c0-1.79,2.18-4.26,2.18-5.83,0-.37-.12-.45-.32-.45-.36,0-1.58,1.09-1.58,1.09l-.28-.36c.65-.61,2.63-2.35,3.93-2.35,1,0,1.78.45,1.78,1.34,0,1.62-2,4.45-2,6.11,0,.69.33.81.53.81C231.25,44,233.15,41,233.15,39.45Z"/><path class="cls-2" d="M235.66,46.18a.49.49,0,0,1-.49.24c-.64,0-1.37,0-1.37-.16s.08-.2.12-.37l9.92-20.65a.5.5,0,0,1,.49-.28c.6,0,1.37,0,1.37.16a1,1,0,0,1-.12.45Z"/><path class="cls-2" d="M267.89,49.86c-1,1.46-2.79,3.85-5.26,3.85-2.71,0-4.29-.89-8.22-6.2a9,9,0,0,1-2.71.45c-2.55,0-4.86-.81-6.08-2.67a1.71,1.71,0,0,0-.77,1.41c0,1,.85.81.85,1.91a1.27,1.27,0,0,1-1.29,1.29,1.61,1.61,0,0,1-1.62-1.82,4.42,4.42,0,0,1,2.35-3.52,10,10,0,0,1-1.1-4.74c0-8.3,7-19.36,16.4-19.36,4.38,0,6.81,2.47,6.81,7.37,0,7.86-5.23,16-10.9,18.83,2.35,1.91,4.94,4,7.82,4a4.76,4.76,0,0,0,3.36-1.17ZM248.58,40.1a10.26,10.26,0,0,0,.57,3.36A11.78,11.78,0,0,1,255.54,46c4-2.47,7.45-10.81,7.45-17.73,0-3.28-.24-6.8-3.92-6.8C252.83,21.44,248.58,33.1,248.58,40.1Zm5.26,6.64a7.58,7.58,0,0,0-4.41-2.47,3.86,3.86,0,0,0,4.41,2.47Z"/><path class="cls-2" d="M273.28,44a3.23,3.23,0,0,1,.2-1.3c-1.49,1.66-3.32,3-4.9,3a2,2,0,0,1-2.3-2.06c0-1.79,2.18-4.22,2.18-5.79,0-.29-.12-.41-.36-.41s-1.54,1-1.54,1l-.28-.36c.64-.57,2.67-2.35,3.92-2.35s1.75.53,1.75,1.34c0,1.62-2,4.45-2,6.31a.57.57,0,0,0,.61.65c.56,0,1.42-.44,2.91-2.23.65-.81,1-2.83,1.46-3.84a3.5,3.5,0,0,1,2.75-2,3.81,3.81,0,0,0,2.11-.69l.28.45a4.53,4.53,0,0,0-1.62,1.78,18.72,18.72,0,0,0-1.66,6.08c0,.28.13.44.29.44.77,0,1.94-1.21,1.94-1.21l.28.32s-2.1,2.51-3.92,2.51C274.25,45.69,273.28,45.08,273.28,44Z"/><path class="cls-2" d="M286.81,35.77c1.62,0,2.83.69,2.83,1.82,0,2.11-2.35,3.53-4.37,3.53-.41,0-.81-.09-.81-.37a.19.19,0,0,1,.2-.2c1.54,0,2.84-1.9,2.84-3.61,0-.32-.17-.52-.45-.52-1.54,0-3.4,3.12-3.4,5.63,0,1.82.85,2.43,1.82,2.43a4.69,4.69,0,0,0,2.92-1.62l.32.32a7.14,7.14,0,0,1-5,2.51c-1.74,0-3.65-.93-3.65-3.16C280,38.65,284.17,35.77,286.81,35.77Z"/><path class="cls-2" d="M297.54,35.77c1.62,0,2.83.69,2.83,1.82,0,2.11-2.35,3.53-4.37,3.53-.4,0-.81-.09-.81-.37a.19.19,0,0,1,.2-.2c1.54,0,2.84-1.9,2.84-3.61,0-.32-.16-.52-.45-.52-1.54,0-3.4,3.12-3.4,5.63,0,1.82.85,2.43,1.82,2.43a4.69,4.69,0,0,0,2.92-1.62l.32.32a7.14,7.14,0,0,1-5,2.51c-1.74,0-3.64-.93-3.64-3.16C290.78,38.65,294.91,35.77,297.54,35.77Z"/><path class="cls-2" d="M312.85,35.77a1.75,1.75,0,0,1,1.9,1.5c0,1.94-1.86,3.64-1.86,5.95,0,.69.36.85.56.85.93,0,2-1.17,2-1.17l.32.32s-2,2.47-4.13,2.47c-1.29,0-2.39-.65-2.39-1.94,0-2.15,2.27-4.34,2.27-5.83,0-.49-.2-.65-.49-.65-.73,0-2.18.85-3.56,2.43-.85,1-1.94,4.78-1.94,5.42,0,.45-.29.57-.89.57-.37,0-.85-.12-1.58-.12a6.13,6.13,0,0,0-1.54.32c-.08,0-.16-.08-.16-.24s.48-.4.72-1a28.62,28.62,0,0,0,2.15-6.84c0-.41-.12-.53-.32-.53-.41,0-1.62,1.09-1.62,1.09L302,38c.69-.61,2.55-2.27,3.85-2.27,1,0,1.74.49,1.74,1.3a8.16,8.16,0,0,1-.36,2.06C308.84,37.31,311.31,35.77,312.85,35.77Z"/><path class="cls-2" d="M329.57,41.44c0-6.28-4.21-8.3-4.21-13.77,0-4.25,4.58-7.25,7.81-7.25,3,0,5,1.54,5,4.09,0,1.66-.69,3.36-2.07,3.36a1.21,1.21,0,0,1-1.26-1.25c0-1.62,2-1.42,2-3.08,0-1.09-1.42-2.23-3-2.23-2.63,0-4.21,1.91-4.21,4.74,0,5.43,4.58,7.66,4.58,14.62,0,6.07-5.43,9.56-10.17,9.56s-7.89-3.16-7.89-6.85a6.27,6.27,0,0,1,6.19-6.31c2,0,3.57,1.13,3.57,2.3a1.12,1.12,0,0,1-1.18,1.22c-.89,0-1.17-.77-1.17-1.58,0-.61-.13-1.3-1.58-1.3-2.39,0-4.74,2.55-4.74,5.31,0,3.4,2.71,5.51,5.91,5.51C327,48.53,329.57,45.37,329.57,41.44Z"/><path class="cls-2" d="M339.53,43.22c0,.61.29.85.53.85.77,0,1.94-1.21,1.94-1.21l.33.32s-2.31,2.51-4.17,2.51c-1.18,0-2.35-.36-2.35-2S338,39.41,338,37.84c0-.21-.08-.37-.36-.37s-1.5,1-1.5,1l-.28-.36c.65-.57,2.63-2.31,3.93-2.31,1.13,0,1.86.61,1.86,1.38C341.64,38.89,339.53,41.56,339.53,43.22ZM342,29.82A1.17,1.17,0,0,1,343.18,31c0,1.18-1.06,2.63-2,2.63a1.26,1.26,0,0,1-1.33-1.33A2.73,2.73,0,0,1,342,29.82Z"/><path class="cls-2" d="M344.8,34.68h.77a4.18,4.18,0,0,1,3.24-3.2,7.73,7.73,0,0,0,2.22-.77l.25.48A4.69,4.69,0,0,0,349.62,33a7.72,7.72,0,0,0-.81,1.7h2.83l-.36.69H348.6c-.77,2.63-1.78,5.87-1.78,7.32,0,1,.33,1.38,1,1.38a3.87,3.87,0,0,0,2.23-1.21l.29.32s-2.27,2.51-4.26,2.51a2.57,2.57,0,0,1-2.79-2.35c0-1.66,1.05-4.45,2.11-8h-1Z"/><path class="cls-2" d="M357.55,39.29a22.46,22.46,0,0,0-2.1,5.83c0,.45-.2.57-.57.57s-1.17-.12-1.9-.12a6.63,6.63,0,0,0-1.58.32.17.17,0,0,1-.16-.16c0-.16.44-.44.73-1a28.85,28.85,0,0,0,2.18-6.88c0-.17,0-.41-.32-.41-.45,0-1.58,1-1.58,1l-.28-.36c.6-.57,2.55-2.35,3.88-2.35,1.14,0,1.78.61,1.78,1.34a4.74,4.74,0,0,1-.12,1.17c.85-1.21,2.35-2.51,3.32-2.51a1.42,1.42,0,0,1,1.58,1.34,1.7,1.7,0,0,1-1.66,1.82,1.09,1.09,0,0,1-1.13-1.09c0-.25-.08-.37-.24-.37C359,37.47,358.57,37.84,357.55,39.29Z"/><path class="cls-2" d="M372.94,44.11c.73,0,1.95-1.25,1.95-1.25l.28.32s-2.27,2.51-3.64,2.51a1.79,1.79,0,0,1-1.95-1.78,4.36,4.36,0,0,1,.16-1.26c-.64,1.14-2.55,3-4.37,3-2.15,0-3.28-1.17-3.28-3a7.39,7.39,0,0,1,6.68-6.92c1.54,0,2.35.77,2.47,1.78.29-.81.93-1.33,2.31-1.54a4,4,0,0,0,1.94-.69l.25.49a3.83,3.83,0,0,0-1.62,1.74,19.6,19.6,0,0,0-1.7,6C372.42,44,372.62,44.11,372.94,44.11Zm-3.12-2.75a11.48,11.48,0,0,0,.81-3c0-1-.32-1.82-1.45-1.82-2,0-3.49,3.4-3.49,5.83,0,1.5.33,2.11,1.06,2.11C367.68,44.44,369.1,42.86,369.82,41.36Z"/><rect class="cls-3" width="460.96" height="70.6" rx="35.3"/><path id="LOGO" class="cls-4" d="M35.63,8.33,33,16.73,33.1,55.5h9.64V65.84l5.16-5.17,5.17-5.17h9l16.8-16.8V8.33ZM74.39,36.12l-7.1,7.1H55.66L49.2,49.69V43.22H39.5V12.86H74.39Zm-7.1-1.94H62.76V21.26h4.53Zm-11.63,0H51.13V21.26h4.53Z"/></g></g></svg>