<svg id="Layer_1" data-name="Layer 1" xmlns="http://www.w3.org/2000/svg" viewBox="0 0 460.96 70.6"><defs><style>.cls-1{fill:#1da1f2;}.cls-2{fill:#fff;}</style></defs><rect class="cls-1" width="460.96" height="70.6" rx="35.3"/><path class="cls-2" d="M81.42,21.55a20.31,20.31,0,0,1-5.7,1.56,9.82,9.82,0,0,0,4.36-5.47A19.9,19.9,0,0,1,73.8,20,9.89,9.89,0,0,0,56.69,26.8a10.37,10.37,0,0,0,.23,2.26A28,28,0,0,1,36.53,18.71a10,10,0,0,0-1.35,5,9.9,9.9,0,0,0,4.39,8.22,9.73,9.73,0,0,1-4.47-1.22v.11A9.94,9.94,0,0,0,43,40.54a10,10,0,0,1-2.6.33,8.92,8.92,0,0,1-1.87-.17,10,10,0,0,0,9.24,6.89,19.88,19.88,0,0,1-12.26,4.22,18.52,18.52,0,0,1-2.37-.13,27.91,27.91,0,0,0,15.18,4.44C66.55,56.12,76.5,41,76.5,28c0-.43,0-.86,0-1.27A19.84,19.84,0,0,0,81.42,21.55Z"/><path class="cls-2" d="M164.09,18.74a1.31,1.31,0,0,1,.48-.24.27.27,0,0,1,.29.24,1,1,0,0,1-.25.57c-.64.89-2.67,3.76-5,3.76A13,13,0,0,1,154,21.74c-4,4.65-2.11,14-5.55,19.76a9.84,9.84,0,0,1-8.22,4.86c-3.28,0-4.34-1.62-4.34-2.35a.64.64,0,0,1,.65-.73.57.57,0,0,1,.61.61c0,.44.53,1.49,2.15,1.49,1.9,0,3.4-1.66,5-5,2.59-5.42,3.6-15.1,8.46-19.23a16.2,16.2,0,0,0-7.13-1.9c-4.86,0-10.53,4.29-10.53,10.56,0,2.8,1.06,5.11,4,5.11a3.39,3.39,0,0,0,3.61-3.12c0-1-.77-1.05-.77-1.9a1.23,1.23,0,0,1,1.29-1.3c.85,0,1.38.69,1.38,1.66a5.69,5.69,0,0,1-5.75,5.43c-3.52,0-6.64-2.27-6.64-6.08,0-7.12,7.09-11.17,13.81-11.17,6.36,0,7.85,1.45,14,1.45A6.81,6.81,0,0,0,164.09,18.74Z"/><path class="cls-2" d="M163.16,40.93c0,.69.24,1.09.85,1.09,1.94,0,3.4-2.79,3.4-4.57,0-1.26-.73-1.18-.73-2.39a1.44,1.44,0,0,1,1.58-1.3c1.05,0,1.58.69,1.58,1.78,0,3.37-4.41,8.14-7.33,8.14-1.82,0-3-.56-3.12-2a6.58,6.58,0,0,1-4.37,2c-1.17,0-2.31-.56-2.31-2,0-1.78,2.19-4.25,2.19-5.83,0-.16,0-.41-.37-.41S153,36.48,153,36.48l-.28-.37c.65-.61,2.63-2.35,3.93-2.35,1.09,0,1.7.53,1.7,1.34,0,1.62-2,4.45-2,6.11a.86.86,0,0,0,.9,1c.44,0,1-.13,1.9-1.14.57-.61,1.09-2.91,1.5-4.29.32-1.22.77-2.19,1.37-2.19a18.07,18.07,0,0,0,3.08-.52.3.3,0,0,1,.33.32,6.3,6.3,0,0,1-.69,1.17A13.69,13.69,0,0,0,163.16,40.93Z"/><path class="cls-2" d="M174.7,41.21c0,.61.28.85.53.85.77,0,1.94-1.21,1.94-1.21l.32.32s-2.3,2.51-4.17,2.51c-1.17,0-2.35-.36-2.35-2s2.19-4.25,2.19-5.83a.32.32,0,0,0-.36-.37c-.41,0-1.5,1-1.5,1l-.29-.37c.65-.57,2.64-2.31,3.93-2.31s1.87.61,1.87,1.38C176.81,36.88,174.7,39.55,174.7,41.21Zm2.43-13.4A1.17,1.17,0,0,1,178.34,29c0,1.18-1.05,2.64-2,2.64A1.28,1.28,0,0,1,175,30.32,2.74,2.74,0,0,1,177.13,27.81Z"/><path class="cls-2" d="M180,32.67h.77a4.23,4.23,0,0,1,3.24-3.2,7.75,7.75,0,0,0,2.23-.77l.24.49A4.69,4.69,0,0,0,184.78,31a8.74,8.74,0,0,0-.81,1.7h2.84l-.37.69h-2.67C183,36,182,39.23,182,40.69c0,1,.32,1.37,1,1.37a3.87,3.87,0,0,0,2.23-1.21l.28.32s-2.27,2.51-4.25,2.51a2.57,2.57,0,0,1-2.79-2.35c0-1.66,1.05-4.45,2.1-8h-1Z"/><path class="cls-2" d="M188.39,32.67h.77a4.21,4.21,0,0,1,3.24-3.2,7.73,7.73,0,0,0,2.22-.77l.25.49A4.61,4.61,0,0,0,193.21,31a7.72,7.72,0,0,0-.81,1.7h2.83l-.36.69h-2.68c-.77,2.63-1.78,5.87-1.78,7.33,0,1,.33,1.37,1,1.37a3.87,3.87,0,0,0,2.23-1.21l.29.32s-2.27,2.51-4.26,2.51a2.57,2.57,0,0,1-2.79-2.35c0-1.66,1.05-4.45,2.11-8h-1Z"/><path class="cls-2" d="M202.07,33.76c1.62,0,2.84.69,2.84,1.82,0,2.11-2.35,3.53-4.37,3.53-.41,0-.81-.08-.81-.37a.19.19,0,0,1,.2-.2c1.54,0,2.83-1.9,2.83-3.6,0-.33-.16-.53-.44-.53-1.54,0-3.4,3.12-3.4,5.63,0,1.82.85,2.43,1.82,2.43a4.65,4.65,0,0,0,2.91-1.62l.33.32a7.17,7.17,0,0,1-5,2.51c-1.74,0-3.65-.93-3.65-3.16C195.31,36.64,199.44,33.76,202.07,33.76Z"/><path class="cls-2" d="M212.2,37.29a22.27,22.27,0,0,0-2.11,5.83c0,.44-.2.56-.56.56s-1.18-.12-1.91-.12a6.58,6.58,0,0,0-1.58.33.18.18,0,0,1-.16-.17c0-.16.45-.44.73-1a28.82,28.82,0,0,0,2.19-6.88c0-.16,0-.41-.33-.41-.44,0-1.58,1.06-1.58,1.06l-.28-.37c.61-.57,2.55-2.35,3.89-2.35,1.13,0,1.78.61,1.78,1.34a4.67,4.67,0,0,1-.12,1.17c.85-1.21,2.35-2.51,3.32-2.51a1.42,1.42,0,0,1,1.58,1.34,1.7,1.7,0,0,1-1.66,1.82,1.1,1.1,0,0,1-1.14-1.09c0-.25-.08-.37-.24-.37C213.62,35.46,213.21,35.83,212.2,37.29Z"/><path class="cls-2" d="M232.37,43.72a7.46,7.46,0,0,1-4.86,1.79c-2,0-4.58-1.14-4.58-3.85,0-4.78,6.52-9.11,12.84-9.11,2.91,0,5.34,1,5.34,3.6,0,3.61-3.89,7.53-6.4,7.53-1.21,0-1.78-.73-1.78-1.49a3.12,3.12,0,0,1,.16-1c-.56,1-2.22,2.59-3.64,2.59a2.59,2.59,0,0,1-2.83-2.67c0-3.32,3.44-6,5.71-6a1.92,1.92,0,0,1,2.14,1.58,2.17,2.17,0,0,1,1.94-1.34,3.35,3.35,0,0,0,1.75-.65l.24.41a4.21,4.21,0,0,0-1.46,1.5,18.25,18.25,0,0,0-1.46,5.18c0,.53.21.69.49.69,1.38,0,3.2-2.79,3.2-6.28,0-1.9-1.14-3.2-3.81-3.2-4.82,0-10.16,3.93-10.16,9,0,2.07,1.25,2.84,3.08,2.84a6.31,6.31,0,0,0,3.8-1.46ZM233.3,40a9.71,9.71,0,0,0,.69-2.59c0-.81-.29-1.58-1.3-1.58-1.62,0-3,3-3,5,0,1.29.21,1.86.89,1.86C231.43,42.67,232.69,41.25,233.3,40Z"/><path class="cls-2" d="M266.91,47.85c-1,1.46-2.8,3.85-5.27,3.85-2.71,0-4.29-.89-8.22-6.19a9.35,9.35,0,0,1-2.71.44c-2.55,0-4.86-.81-6.07-2.67a1.68,1.68,0,0,0-.77,1.42c0,1,.85.81.85,1.9a1.28,1.28,0,0,1-1.3,1.29,1.61,1.61,0,0,1-1.62-1.82,4.44,4.44,0,0,1,2.35-3.52,10,10,0,0,1-1.09-4.74c0-8.3,7-19.35,16.4-19.35,4.37,0,6.8,2.47,6.8,7.37,0,7.85-5.22,16-10.89,18.83,2.35,1.9,4.94,4,7.81,4a4.74,4.74,0,0,0,3.36-1.17ZM247.59,38.1a10.35,10.35,0,0,0,.57,3.36,11.76,11.76,0,0,1,6.4,2.51c4-2.47,7.45-10.81,7.45-17.74,0-3.28-.25-6.8-3.93-6.8C251.84,19.43,247.59,31.09,247.59,38.1Zm5.27,6.64a7.57,7.57,0,0,0-4.42-2.47,4.06,4.06,0,0,0,3.65,2.55A4.24,4.24,0,0,0,252.86,44.74Z"/><path class="cls-2" d="M272.29,42a3,3,0,0,1,.21-1.29c-1.5,1.66-3.32,3-4.9,3a2,2,0,0,1-2.31-2.06c0-1.78,2.19-4.21,2.19-5.79,0-.29-.13-.41-.37-.41s-1.54,1.06-1.54,1.06l-.28-.37c.65-.57,2.67-2.35,3.93-2.35s1.74.53,1.74,1.34c0,1.62-2,4.45-2,6.32a.57.57,0,0,0,.61.64c.57,0,1.42-.44,2.92-2.22.64-.81,1-2.84,1.45-3.85a3.51,3.51,0,0,1,2.76-2,3.85,3.85,0,0,0,2.1-.69l.29.44a4.45,4.45,0,0,0-1.62,1.78,18.72,18.72,0,0,0-1.66,6.08c0,.28.12.44.28.44.77,0,1.94-1.21,1.94-1.21l.29.32s-2.11,2.51-3.93,2.51C273.27,43.68,272.29,43.08,272.29,42Z"/><path class="cls-2" d="M285.82,33.76c1.62,0,2.83.69,2.83,1.82,0,2.11-2.34,3.53-4.37,3.53-.4,0-.81-.08-.81-.37a.19.19,0,0,1,.2-.2c1.54,0,2.84-1.9,2.84-3.6,0-.33-.16-.53-.45-.53-1.54,0-3.4,3.12-3.4,5.63,0,1.82.85,2.43,1.82,2.43a4.69,4.69,0,0,0,2.92-1.62l.32.32a7.14,7.14,0,0,1-5,2.51c-1.74,0-3.64-.93-3.64-3.16C279.06,36.64,283.19,33.76,285.82,33.76Z"/><path class="cls-2" d="M296.55,33.76c1.62,0,2.84.69,2.84,1.82,0,2.11-2.35,3.53-4.38,3.53-.4,0-.81-.08-.81-.37a.19.19,0,0,1,.21-.2c1.53,0,2.83-1.9,2.83-3.6,0-.33-.16-.53-.45-.53-1.53,0-3.4,3.12-3.4,5.63,0,1.82.85,2.43,1.83,2.43a4.68,4.68,0,0,0,2.91-1.62l.32.32a7.14,7.14,0,0,1-5,2.51c-1.74,0-3.64-.93-3.64-3.16C289.79,36.64,293.92,33.76,296.55,33.76Z"/><path class="cls-2" d="M311.86,33.76a1.75,1.75,0,0,1,1.9,1.5c0,1.94-1.86,3.65-1.86,6,0,.69.36.85.57.85.93,0,2-1.17,2-1.17l.32.32s-2,2.47-4.13,2.47c-1.29,0-2.38-.64-2.38-1.94,0-2.15,2.26-4.33,2.26-5.83,0-.49-.2-.65-.48-.65-.73,0-2.19.85-3.57,2.43-.85,1-1.94,4.78-1.94,5.43,0,.44-.28.56-.89.56-.37,0-.85-.12-1.58-.12a6,6,0,0,0-1.54.33c-.08,0-.16-.09-.16-.25s.48-.4.73-1a28.84,28.84,0,0,0,2.14-6.84c0-.41-.12-.53-.32-.53-.41,0-1.62,1.09-1.62,1.09L301,36c.69-.61,2.55-2.27,3.84-2.27,1,0,1.74.49,1.74,1.3a8.16,8.16,0,0,1-.36,2.06C307.85,35.3,310.32,33.76,311.86,33.76Z"/><path class="cls-2" d="M328.58,39.43c0-6.27-4.21-8.3-4.21-13.77,0-4.25,4.58-7.24,7.82-7.24,3,0,5,1.53,5,4.09,0,1.66-.69,3.36-2.07,3.36a1.21,1.21,0,0,1-1.25-1.26c0-1.62,2-1.42,2-3.08,0-1.09-1.42-2.22-3-2.22-2.63,0-4.21,1.9-4.21,4.73,0,5.43,4.58,7.66,4.58,14.62,0,6.08-5.43,9.56-10.16,9.56s-7.9-3.16-7.9-6.84a6.27,6.27,0,0,1,6.19-6.32c2,0,3.57,1.13,3.57,2.31a1.12,1.12,0,0,1-1.18,1.21c-.89,0-1.17-.77-1.17-1.58,0-.61-.12-1.29-1.58-1.29-2.39,0-4.74,2.55-4.74,5.3,0,3.4,2.72,5.51,5.91,5.51C326,46.52,328.58,43.36,328.58,39.43Z"/><path class="cls-2" d="M338.55,41.21c0,.61.28.85.52.85.77,0,1.95-1.21,1.95-1.21l.32.32s-2.31,2.51-4.17,2.51c-1.17,0-2.35-.36-2.35-2S337,37.41,337,35.83a.33.33,0,0,0-.37-.37c-.4,0-1.5,1-1.5,1l-.28-.37c.65-.57,2.63-2.31,3.93-2.31,1.13,0,1.86.61,1.86,1.38C340.65,36.88,338.55,39.55,338.55,41.21ZM341,27.81A1.17,1.17,0,0,1,342.19,29c0,1.18-1.05,2.64-2,2.64a1.28,1.28,0,0,1-1.34-1.34A2.73,2.73,0,0,1,341,27.81Z"/><path class="cls-2" d="M343.81,32.67h.77a4.22,4.22,0,0,1,3.24-3.2,8,8,0,0,0,2.23-.77l.24.49A4.69,4.69,0,0,0,348.63,31a8.2,8.2,0,0,0-.81,1.7h2.83l-.36.69h-2.67c-.77,2.63-1.78,5.87-1.78,7.33,0,1,.32,1.37,1,1.37a3.91,3.91,0,0,0,2.23-1.21l.28.32s-2.27,2.51-4.25,2.51a2.58,2.58,0,0,1-2.8-2.35c0-1.66,1.06-4.45,2.11-8h-1Z"/><path class="cls-2" d="M356.57,37.29a22.27,22.27,0,0,0-2.11,5.83c0,.44-.2.56-.57.56s-1.17-.12-1.9-.12a6.45,6.45,0,0,0-1.58.33.18.18,0,0,1-.16-.17c0-.16.44-.44.73-1a28.82,28.82,0,0,0,2.19-6.88c0-.16-.05-.41-.33-.41-.44,0-1.58,1.06-1.58,1.06l-.28-.37c.61-.57,2.55-2.35,3.89-2.35,1.13,0,1.78.61,1.78,1.34a4.67,4.67,0,0,1-.12,1.17c.85-1.21,2.34-2.51,3.32-2.51a1.42,1.42,0,0,1,1.58,1.34,1.7,1.7,0,0,1-1.66,1.82,1.1,1.1,0,0,1-1.14-1.09c0-.25-.08-.37-.24-.37C358,35.46,357.58,35.83,356.57,37.29Z"/><path class="cls-2" d="M372,42.1c.72,0,1.94-1.25,1.94-1.25l.28.32s-2.26,2.51-3.64,2.51a1.79,1.79,0,0,1-2-1.78,4.29,4.29,0,0,1,.17-1.25c-.65,1.13-2.55,3-4.38,3-2.14,0-3.28-1.17-3.28-3a7.39,7.39,0,0,1,6.68-6.93c1.54,0,2.35.77,2.47,1.78.29-.81.94-1.33,2.31-1.53a4.17,4.17,0,0,0,1.95-.69l.24.48a3.89,3.89,0,0,0-1.62,1.74,19.58,19.58,0,0,0-1.7,6C371.43,41.94,371.63,42.1,372,42.1Zm-3.12-2.75a11.88,11.88,0,0,0,.81-3c0-1-.33-1.82-1.46-1.82-2,0-3.48,3.4-3.48,5.83,0,1.5.32,2.11,1.05,2.11C366.69,42.43,368.11,40.85,368.84,39.35Z"/></svg>