<?xml version="1.0" encoding="UTF-8"?><svg xmlns="http://www.w3.org/2000/svg" viewBox="0 0 460.96 70.6"><defs><style>.cls-1{fill:#fff;}.cls-2{fill:#6441a4;mix-blend-mode:color;}.cls-3{fill:none;isolation:isolate;}</style></defs><g class="cls-3"><g id="Layer_1"><rect class="cls-2" x="0" y="-.22" width="460.96" height="70.6" rx="35.3" ry="35.3"/><path class="cls-1" d="m163.14,27.28h-6.14v-5.96h19.17v5.96h-6.24v21.55h-6.79v-21.55Zm5.14,20.27v-20.27h-3.53v20.27h3.53Z"/><path class="cls-1" d="m177.54,21.32h7.06l5.55,12.98,3.35-8.62-1.74-4.36h6.97l5.5,12.93,5.04-12.93h7.02l-11.46,28.43h-.92l-6.79-15.86-6.56,15.86h-.87l-12.15-28.43Zm18.66,10.5l-1.74-3.94-3.3,8.39,1.65,3.9,3.39-8.35Zm10.73,8.44l7.15-17.65h-3.53l-5.37,13.57,1.74,4.08Z"/><path class="cls-1" d="m218.95,21.32h6.74v27.51h-6.74v-27.51Zm5.04,26.23v-9.81h-3.35v9.81h3.35Z"/><path class="cls-1" d="m234.95,27.28h-6.14v-5.96h19.17v5.96h-6.24v21.55h-6.79v-21.55Zm5.14,20.27v-20.27h-3.53v20.27h3.53Z"/><path class="cls-1" d="m264.44,20.4c5.23,0,8.85,1.97,11.78,5.04l-4.63,4.4c-1.93-1.88-4.4-3.07-7.15-3.07-4.91,0-8.07,3.67-8.07,8.3s3.16,8.3,8.07,8.3c2.75,0,5.23-1.19,7.15-3.07l4.49,4.4c-2.75,2.89-6.56,5.04-11.65,5.04-8.71,0-14.9-6.47-14.9-14.67s6.19-14.67,14.9-14.67Zm7.11,7.57l2.61-2.52c-2.43-2.48-5.59-3.76-9.72-3.76v3.81c2.61,0,5.14.96,7.11,2.48Zm2.52,16.83l-2.61-2.66c-1.65,1.47-4.26,2.52-7.02,2.52v3.81c4.04,0,7.06-1.28,9.63-3.67Z"/><path class="cls-1" d="m279.48,21.32h6.74v10.82h10.78v-10.82h6.69v27.51h-6.69v-10.87h-10.78v10.87h-6.74v-27.51Zm5.04,26.23v-9.58h-3.35v9.58h3.35Zm17.47,0v-9.58h-3.3v9.58h3.3Z"/></g></g></svg>