<?xml version="1.0" encoding="UTF-8"?><svg xmlns="http://www.w3.org/2000/svg" viewBox="0 0 460.96 70.6"><defs><style>.cls-1{fill:#fff;}.cls-2{fill:#e52d27;mix-blend-mode:color;}.cls-3{fill:none;isolation:isolate;}</style></defs><g class="cls-3"><g id="Layer_1"><path class="cls-2" d="m426.57,0H34.39C15.4,0,0,15.4,0,34.39v1.81c0,18.99,15.4,34.39,34.39,34.39h392.18c18.99,0,34.39-15.4,34.39-34.39v-1.81C460.96,15.4,445.56,0,426.57,0Z"/><path class="cls-1" d="m151.67,35.76l-9.77-14.21h7.61l5.5,8.25,5.55-8.25h7.57l-9.77,14.21v13.3h-6.69v-13.3Zm13.8-12.93h-3.9l-5.5,8.12,1.88,2.8,7.52-10.91Z"/><path class="cls-1" d="m183.72,20.63c8.67,0,14.81,6.47,14.81,14.67s-6.14,14.67-14.81,14.67-14.81-6.47-14.81-14.67,6.1-14.67,14.81-14.67Zm0,27.97c6.6,0,11.6-4.4,12.84-10.41h-3.53c-1.1,3.99-4.49,6.83-9.31,6.83s-8.21-2.89-9.31-6.83h-3.53c1.19,6.05,6.19,10.41,12.84,10.41Zm0-5c4.86,0,7.98-3.67,7.98-8.3s-3.12-8.3-7.98-8.3-7.98,3.67-7.98,8.3,3.07,8.3,7.98,8.3Z"/><path class="cls-1" d="m203.22,21.54h6.69v17.24c0,3.67,1.74,4.95,4.08,4.95,2.57,0,4.17-1.28,4.17-4.95v-17.24h6.74v18.25c0,6.51-4.86,10.18-10.91,10.18s-10.78-3.85-10.78-10.18v-18.25Zm5.04,11.05v-9.77h-3.35v9.77h3.35Zm14.95,0v-9.77h-3.39v9.77h3.39Z"/><path class="cls-1" d="m234.17,27.5h-6.14v-5.96h19.17v5.96h-6.24v21.55h-6.79v-21.55Zm5.14,20.27v-20.27h-3.53v20.27h3.53Z"/><path class="cls-1" d="m250.32,21.54h6.69v17.24c0,3.67,1.74,4.95,4.08,4.95,2.57,0,4.17-1.28,4.17-4.95v-17.24h6.74v18.25c0,6.51-4.86,10.18-10.91,10.18s-10.78-3.85-10.78-10.18v-18.25Zm5.04,11.05v-9.77h-3.35v9.77h3.35Zm14.95,0v-9.77h-3.39v9.77h3.39Z"/><path class="cls-1" d="m276.41,21.54h11.1c4.59,0,8.25,3.39,8.25,7.7,0,2.57-1.05,4.17-2.98,5.64v.09c2.84,2.02,4.04,3.94,4.04,6.79,0,3.81-3.03,7.29-8.25,7.29h-12.15v-27.51Zm5,26.23v-24.94h-3.3v24.94h3.3Zm4.91-15.27c1.56,0,2.66-1.05,2.66-2.57,0-1.42-1.1-2.52-2.66-2.52h-3.21v5.09h3.21Zm.87,10.55c1.56,0,2.57-.92,2.57-2.38,0-1.33-1.01-2.43-2.57-2.43h-4.08v4.81h4.08Z"/><path class="cls-1" d="m300.07,21.54h18.2v5.96h-11.46v4.95h10.59v5.87h-10.59v4.95h11.97v5.78h-18.71v-27.51Zm5.04,23.02v-18.34l-3.35-3.39v24.94l3.35-3.21Z"/></g></g></svg>