<?xml version="1.0" encoding="UTF-8"?><svg xmlns="http://www.w3.org/2000/svg" viewBox="0 0 460.96 70.6"><defs><style>.cls-1{fill:#6b0000;mix-blend-mode:color;}.cls-1,.cls-2{stroke-width:0px;}.cls-2{fill:#e6e7e8;}.cls-3{isolation:isolate;}</style></defs><g class="cls-3"><g id="Layer_1"><path class="cls-1" d="m426.57,0H34.39C15.4,0,0,15.4,0,34.39v1.81c0,18.99,15.4,34.39,34.39,34.39h392.18c18.99,0,34.39-15.4,34.39-34.39v-1.81c0-18.99-15.4-34.39-34.39-34.39Z"/><path class="cls-2" d="m86.71,46l4.43-19.92c.21-.93.07-1.82-.97-2.39v-.14h11.11v.14c-.9.54-1.21,1.32-.97,2.39l4.47,19.92c.24,1.11.83,1.93,1.52,2.39v.14h-6.65v-.14c.9-.54,1.21-1.32.97-2.39l-.87-3.82h-8.03l-.87,3.82c-.21.89-.1,1.79.93,2.39v.14h-6.61v-.14c.66-.46,1.25-1.25,1.52-2.39Zm12.15-7.93l-2.35-10.43h-1.52l-2.35,10.43h6.23Z"/><path class="cls-2" d="m107.55,48.39c.69-.54,1.11-1.32,1.11-2.25v-20.21c0-.93-.42-1.71-1.11-2.25v-.14h6.65v.14c-.69.54-1.11,1.32-1.11,2.25v18.5h8.03c.9,0,1.7-.43,1.97-1.04h.21l-.8,5.14h-14.96v-.14Z"/><path class="cls-2" d="m124.38,48.39c.69-.54,1.11-1.32,1.11-2.25v-20.21c0-.93-.42-1.71-1.11-2.25v-.14h6.65v.14c-.69.54-1.11,1.32-1.11,2.25v18.5h8.03c.9,0,1.7-.43,1.97-1.04h.21l-.8,5.14h-14.96v-.14Z"/><path class="cls-2" d="m159.52,48.39c.69-.54,1.11-1.32,1.11-2.25v-7.71h-7.82v7.71c0,.93.42,1.71,1.11,2.25v.14h-6.65v-.14c.69-.54,1.11-1.32,1.11-2.25v-20.21c0-.93-.42-1.71-1.11-2.25v-.14h6.65v.14c-.69.54-1.11,1.32-1.11,2.25v8.39h7.82v-8.39c0-.93-.42-1.71-1.11-2.25v-.14h6.65v.14c-.69.54-1.11,1.32-1.11,2.25v20.21c0,.93.42,1.71,1.11,2.25v.14h-6.65v-.14Z"/><path class="cls-2" d="m174.69,48.39c.73-.54,1.11-1.32,1.11-2.25v-6.25l-6.65-13.92c-.48-1.07-1.28-1.89-1.97-2.29v-.14h6.99v.14c-.9.57-.93,1.25-.45,2.29l4.33,9.1,4.29-9.1c.45-1.04.45-1.71-.45-2.29v-.14h6.99v.14c-.69.39-1.49,1.21-2.01,2.29l-6.61,13.92v6.25c0,.93.38,1.71,1.07,2.25v.14h-6.65v-.14Z"/><path class="cls-2" d="m196.53,48.39v.14h-6.65v-.14c.69-.54,1.11-1.32,1.11-2.25v-20.21c0-.93-.42-1.71-1.11-2.25v-.14h8.34c5.44,0,8.93,2.89,8.93,7.57s-3.46,7.68-8.62,7.68h-3.12v7.36c0,.93.42,1.71,1.11,2.25Zm1.94-13.71c2.63,0,4.29-1.18,4.29-3.54s-1.63-3.5-4.29-3.5h-3.05v7.03h3.05Z"/><path class="cls-2" d="m208.82,48.39c.69-.54,1.11-1.32,1.11-2.25v-20.21c0-.93-.42-1.71-1.11-2.25v-.14h6.65v.14c-.69.54-1.11,1.32-1.11,2.25,0,4.89,6.34,7.82,7.93,11.93v-11.93c0-.93-.38-1.71-1.07-2.25v-.14h6.65v.14c-.73.54-1.11,1.32-1.11,2.25v20.21c0,.93.38,1.71,1.11,2.25v.14h-6.65v-.14c.69-.54,1.07-1.32,1.07-2.25,0-5.11-6.44-8.1-7.93-12.1v12.1c0,.93.42,1.71,1.11,2.25v.14h-6.65v-.14Z"/><path class="cls-2" d="m229.8,36.07c0-7.5,5.71-13.35,13.12-13.35s13.16,5.86,13.16,13.35-5.71,13.28-13.16,13.28-13.12-5.86-13.12-13.28Zm13.12,9.18c5.09,0,8.69-3.78,8.69-9.18s-3.6-9.25-8.69-9.25-8.69,3.86-8.69,9.25,3.64,9.18,8.69,9.18Z"/><path class="cls-2" d="m269.76,46.11l-5.54-20.14c-.31-1.07-.93-1.89-1.59-2.29v-.14h6.68v.14c-1,.57-1.18,1.25-.9,2.29l4.85,18.28,4.85-18.28c.28-1.04.1-1.71-.9-2.29v-.14h6.68v.14c-.66.39-1.28,1.25-1.56,2.29l-5.57,20.14c-.24.93-.1,1.71.9,2.29v.14h-8.79v-.14c.93-.54,1.18-1.29.9-2.29Z"/><path class="cls-2" d="m284.92,48.39c.69-.54,1.11-1.32,1.11-2.25v-20.21c0-.93-.42-1.71-1.11-2.25v-.14h6.65v.14c-.69.54-1.11,1.32-1.11,2.25v20.21c0,.93.42,1.71,1.11,2.25v.14h-6.65v-.14Z"/><path class="cls-2" d="m294.24,48.39c.69-.54,1.11-1.32,1.11-2.25v-20.21c0-.93-.42-1.71-1.11-2.25v-.14h8.03c4.36,0,13.54,1.11,13.54,12.46,0,9.6-6.61,12.53-11.81,12.53h-9.76v-.14Zm9.11-3.96c5.4,0,8-2.79,8-8.43s-2.91-8.36-8.93-8.36h-2.63v16.78h3.57Z"/><path class="cls-2" d="m329.93,37.97c-.52-.64-1.28-1.04-2.18-1.04h-4.43v7.5h7.38c.9,0,1.73-.43,2.01-1.04h.21l-.8,5.14h-14.33v-.14c.69-.54,1.11-1.32,1.11-2.25v-20.21c0-.93-.42-1.71-1.11-2.25v-.14h13.36l.8,5.14h-.21c-.31-.64-1.11-1.04-2.08-1.04h-6.34v5.21h4.43c.9,0,1.66-.39,2.18-1.04h.14v6.14h-.14Z"/><path class="cls-2" d="m333.4,36.07c0-7.5,5.71-13.35,13.12-13.35s13.16,5.86,13.16,13.35-5.71,13.28-13.16,13.28-13.12-5.86-13.12-13.28Zm13.12,9.18c5.09,0,8.69-3.78,8.69-9.18s-3.6-9.25-8.69-9.25-8.69,3.86-8.69,9.25,3.64,9.18,8.69,9.18Z"/><path class="cls-2" d="m360.71,43c0-2.75,1.97-4.82,4.26-4.82,1.87,0,3.01,1.39,3.01,2.25,0,.18-.07.25-.17.25-.17,0-.48-.18-1-.18-1.04,0-1.83.86-1.83,2.11,0,1.64,1.35,2.64,2.91,2.64,1.87,0,3.08-1.5,3.08-3.46,0-5.64-9.31-6.61-9.31-13.18,0-3.5,2.77-5.89,5.85-5.89,2.63,0,4.12,1.75,4.95,1.75.24,0,.59-.14.8-.46h.21v6.11h-.17c-1.28-1.71-3.32-3.25-5.12-3.25-1.32,0-2.08.79-2.08,1.79,0,3.5,9.35,5.5,9.35,13,0,4.07-2.91,7.71-7.51,7.71-4.05,0-7.2-2.86-7.2-6.36Z"/></g></g></svg>