<?xml version="1.0" encoding="UTF-8" standalone="no"?>
<!DOCTYPE svg PUBLIC "-//W3C//DTD SVG 1.1//EN" "http://www.w3.org/Graphics/SVG/1.1/DTD/svg11.dtd">
<svg width="100%" height="100%" viewBox="0 0 461 71" version="1.1" xmlns="http://www.w3.org/2000/svg" xmlns:xlink="http://www.w3.org/1999/xlink" xml:space="preserve" xmlns:serif="http://www.serif.com/" style="fill-rule:evenodd;clip-rule:evenodd;stroke-linejoin:round;stroke-miterlimit:2;">
    <path d="M460.96,35.3C460.96,54.783 445.143,70.6 425.66,70.6L35.3,70.6C15.817,70.6 0,54.783 0,35.3C0,15.817 15.817,0 35.3,0L425.66,0C445.143,0 460.96,15.817 460.96,35.3Z" style="fill:rgb(30,26,39);"/>
    <g transform="matrix(0.183092,0,0,0.183092,162.677,54.4031)">
        <g id="path10" transform="matrix(1,0,0,1,9.03182,-4.73189)">
            <path d="M1022.74,-85.921L1022.74,-205.171L1171.24,-205.171L1171.24,-176.671L1063.99,-176.671L1063.99,-163.171L1171.24,-163.171L1171.24,-135.421L1063.99,-135.421L1063.99,-115.171L1171.24,-115.171L1171.24,-85.921L1022.74,-85.921Z" style="fill:white;fill-rule:nonzero;"/>
        </g>
        <g id="path9" transform="matrix(1,0,0,1,9.03182,-4.73189)">
            <path d="M859.239,-85.921L859.239,-205.171L900.489,-205.171L900.489,-117.421L1006.99,-117.421L1006.99,-85.921L859.239,-85.921Z" style="fill:white;fill-rule:nonzero;"/>
        </g>
        <g id="path8" transform="matrix(1,0,0,1,9.03182,-4.73189)">
            <path d="M644.914,-86.824C645.084,-87.331 663.254,-114.321 685.293,-146.8L725.364,-205.854L768.349,-205.921L808.169,-147.106C830.07,-114.758 848.194,-87.758 848.444,-87.106C848.853,-86.04 846.312,-85.921 823.119,-85.921L797.34,-85.921L791.739,-95.296L786.137,-104.671L706.614,-104.648L700.979,-95.473L695.344,-86.297L669.976,-86.1C650.159,-85.946 644.674,-86.106 644.914,-86.825L644.914,-86.824ZM768.489,-133.617C768.489,-134.108 747.61,-169.166 746.721,-170.168C746.312,-170.63 733.078,-149.658 723.73,-133.733C723.548,-133.424 733.545,-133.171 745.944,-133.171C758.344,-133.171 768.489,-133.372 768.489,-133.617Z" style="fill:white;fill-rule:nonzero;"/>
        </g>
        <g id="path7" transform="matrix(1,0,0,1,9.03182,-4.73189)">
            <path d="M-47.511,-145.566L-47.511,-205.236L14.176,-204.971C82.952,-204.675 80.38,-204.86 91.989,-199.357C96.007,-197.452 99.023,-195.277 102.546,-191.743C110.381,-183.883 113.747,-175.066 113.727,-162.451C113.708,-149.96 110.606,-140.936 103.747,-133.416C96.66,-125.645 86.598,-120.691 74.364,-118.948C71.445,-118.533 52.381,-118.194 31.441,-118.186L-6.232,-118.172L-6.434,-102.234L-6.636,-86.297L-47.511,-85.897L-47.511,-145.566ZM60.564,-147.524C64.437,-148.821 67.83,-151.669 69.573,-155.087C70.82,-157.53 71.086,-159.187 70.865,-163.11C70.528,-169.06 69.162,-171.222 63.864,-174.193L60.114,-176.296L-6.261,-176.743L-6.261,-146.671L25.877,-146.671C47.909,-146.671 58.816,-146.939 60.564,-147.524L60.564,-147.524Z" style="fill:white;fill-rule:nonzero;"/>
        </g>
        <g id="path6" transform="matrix(1,0,0,1,9.03182,-4.73189)">
            <rect x="-104.511" y="-205.171" width="42" height="119.25" style="fill:white;fill-rule:nonzero;"/>
        </g>
        <g id="path5" transform="matrix(1,0,0,1,9.03182,-4.73189)">
            <path d="M-268.011,-145.554L-268.011,-205.195L-226.386,-204.796L-225.999,-117.421L-118.731,-117.421L-118.934,-101.858L-119.136,-86.296L-193.574,-86.105L-268.011,-85.914L-268.011,-145.554Z" style="fill:white;fill-rule:nonzero;"/>
        </g>
        <g id="path4" transform="matrix(1,0,0,1,9.03182,-4.73189)">
            <path d="M537.489,-83.742C518.468,-85.381 491.739,-90.745 491.739,-92.922C491.739,-93.807 499.966,-119.864 500.384,-120.304C500.519,-120.446 506.138,-119.186 512.871,-117.504C533.289,-112.403 539.005,-111.794 566.364,-111.811C586.588,-111.822 591.165,-112.029 595.456,-113.12C604.233,-115.35 607.288,-117.883 606.24,-122.061C605.065,-126.742 597.448,-128.281 560.364,-131.334C550.885,-132.115 537.242,-133.971 529.989,-135.467C510.31,-139.527 499.762,-145.752 494.509,-156.406C492.254,-160.98 492.114,-161.749 492.114,-169.531C492.114,-177.093 492.295,-178.166 494.243,-182.134C500.965,-195.822 519.639,-204.317 549.864,-207.434C560.361,-208.517 590.712,-208.52 602.824,-207.439C619.778,-205.927 641.878,-201.54 644.232,-199.219C644.818,-198.641 637.554,-172.493 636.44,-171.171C636.15,-170.827 632.751,-171.558 628.888,-172.795C611.99,-178.208 595.317,-180.004 567.001,-179.462C542.453,-178.992 535.91,-177.734 534.789,-173.265C533.396,-167.717 540.819,-165.588 569.983,-163.174C601.612,-160.555 615.276,-158.391 626.875,-154.163C640.481,-149.204 647.413,-140.753 648.281,-128.068C650.006,-102.826 629.77,-87.708 588.921,-83.721C579.589,-82.81 548.15,-82.823 537.489,-83.741L537.489,-83.742Z" style="fill:white;fill-rule:nonzero;"/>
        </g>
        <g id="path3" transform="matrix(1,0,0,1,9.03182,-4.73189)">
            <path d="M169.989,-83.742C155.641,-84.978 142.089,-87.281 129.978,-90.541C124.14,-92.112 124.095,-92.143 124.526,-94.299C125.641,-99.873 132.721,-120.422 133.526,-120.422C134.022,-120.422 137.283,-119.598 140.771,-118.591C158.377,-113.51 175.419,-111.413 198.859,-111.445C216.601,-111.467 224.534,-112.104 231.174,-114.033C235.671,-115.339 238.989,-118.14 238.989,-120.63C238.989,-125.394 231.189,-127.914 210.841,-129.726C203.428,-130.386 193.314,-131.294 188.364,-131.744C183.414,-132.194 174.639,-133.351 168.864,-134.316C144.732,-138.347 132.05,-145.076 126.807,-156.63C123.847,-163.155 123.347,-173.553 125.695,-179.786C130.299,-192.008 143.447,-200.32 165.304,-204.825C177.883,-207.417 188.654,-208.281 208.324,-208.274C227.773,-208.268 239.738,-207.43 253.944,-205.082C263.104,-203.568 275.552,-200.382 276.692,-199.259C277.209,-198.75 269.667,-171.85 268.749,-170.932C268.543,-170.726 265.222,-171.567 261.369,-172.801C244.491,-178.207 227.806,-180.004 199.501,-179.462C174.953,-178.992 168.41,-177.734 167.289,-173.265C165.897,-167.721 173.289,-165.599 202.483,-163.161C239.168,-160.098 253.437,-157.492 264.739,-151.793C277.57,-145.322 283.093,-133.304 280.228,-118.086C276.654,-99.102 256.131,-87.109 221.421,-83.721C212.089,-82.81 180.65,-82.823 169.989,-83.741L169.989,-83.742Z" style="fill:white;fill-rule:nonzero;"/>
        </g>
        <g id="path2" transform="matrix(1,0,0,1,9.03182,-4.73189)">
            <path d="M-376.011,-83.716C-396.436,-86.231 -413.105,-91.746 -425.285,-100.017C-431.814,-104.45 -439.734,-113.286 -443.004,-119.784C-447.52,-128.755 -448.989,-136.094 -448.599,-147.727C-448.324,-155.921 -447.928,-158.538 -446.21,-163.539C-439.958,-181.735 -425.116,-194.276 -400.598,-202.08C-375.714,-210 -336.581,-210.522 -306.636,-203.333C-298.464,-201.371 -282.504,-195.963 -281.283,-194.742C-280.767,-194.226 -281.796,-189.428 -284.468,-179.888C-286.639,-172.137 -288.482,-165.723 -288.563,-165.634C-288.644,-165.545 -291.777,-166.626 -295.525,-168.036C-326.461,-179.679 -367.746,-181.189 -388.58,-171.44C-394.603,-168.622 -400.926,-162.638 -403.57,-157.253C-405.407,-153.513 -405.636,-152.213 -405.636,-145.546C-405.636,-138.85 -405.411,-137.588 -403.536,-133.769C-391.879,-110.03 -337.8,-105.984 -289.717,-125.253C-287.985,-125.947 -279.914,-97.416 -281.549,-96.382C-285.83,-93.676 -310.444,-86.914 -323.886,-84.752C-332.746,-83.326 -367.275,-82.641 -376.011,-83.716Z" style="fill:white;fill-rule:nonzero;"/>
        </g>
        <g id="path1" transform="matrix(1,0,0,1,9.03182,-4.73189)">
            <path d="M384.19,51.607C384.635,47.717 394.239,-80.031 394.239,-82.07L394.239,-83.671L348.489,-83.671C322.378,-83.671 302.739,-83.956 302.739,-84.336C302.739,-85.411 342.24,-230.672 342.641,-231.074C342.842,-231.275 355.639,-231.351 371.077,-231.242L399.148,-231.046L386.589,-184.921C379.681,-159.552 374.021,-138.374 374.009,-137.858C373.992,-137.145 376.947,-136.921 386.335,-136.921L398.681,-136.921L399.448,-139.733C399.871,-141.28 401.668,-147.608 403.442,-153.796L406.668,-165.046L437.579,-165.242C454.579,-165.349 468.489,-165.254 468.489,-165.03C468.489,-164.118 385.067,53.253 384.486,53.858C384.14,54.217 384.007,53.204 384.19,51.608L384.19,51.607Z" style="fill:rgb(143,107,199);fill-rule:nonzero;"/>
        </g>
    </g>
</svg>
