<svg id="Layer_1" data-name="Layer 1" xmlns="http://www.w3.org/2000/svg" viewBox="0 0 460.96 70.6"><defs><style>.cls-1{fill:#7389dc;}.cls-2{fill:#fff;}</style></defs><rect class="cls-1" width="460.96" height="70.6" rx="35.3"/><path class="cls-2" d="M143.44,21.54H153c8.12,0,14.4,6,14.4,13.71,0,7.34-5.59,13.8-14.4,13.8h-9.58Zm5,26.23V22.83h-3.35V47.77Zm4.4-4.86a7.34,7.34,0,0,0,7.62-7.66,7.27,7.27,0,0,0-7.62-7.61h-2.7V42.91Z"/><path class="cls-2" d="M172,21.54h6.74V49.05H172Zm5,26.23V38h-3.34v9.81Z"/><path class="cls-2" d="M189.57,41a2.87,2.87,0,0,0,2.84,2.89c1.7,0,2.76-1,2.76-2.38,0-2.07-2.71-2.66-5-3.44-4.63-1.65-7.2-3.81-7.2-8.53a9.16,9.16,0,0,1,9.36-8.89c6.1,0,9,3.89,9.35,9h-6.33a2.87,2.87,0,0,0-5.73-.18c0,2.06,2.53,2.43,4.86,3.12,4.91,1.46,7.2,4.22,7.2,8.53A9.11,9.11,0,0,1,192.41,50c-6,0-9.4-4-9.4-9Zm2.84,7.71V45.16a4.19,4.19,0,0,1-4.21-2.89h-3.58C184.71,45.71,188.06,48.69,192.41,48.69Zm7.66-20.36c-.27-2.71-2.29-6.42-7.66-6.42v3.58a4,4,0,0,1,4.22,2.84Z"/><path class="cls-2" d="M221.44,20.63a15.38,15.38,0,0,1,11.79,5l-4.63,4.4A10.25,10.25,0,0,0,221.44,27c-4.9,0-8.07,3.67-8.07,8.3s3.17,8.3,8.07,8.3a10.25,10.25,0,0,0,7.16-3.07l4.49,4.4a15.62,15.62,0,0,1-11.65,5,14.42,14.42,0,0,1-14.9-14.67A14.42,14.42,0,0,1,221.44,20.63Zm7.11,7.56,2.61-2.52a12.89,12.89,0,0,0-9.72-3.76v3.8A11.83,11.83,0,0,1,228.55,28.19ZM231.07,45l-2.61-2.66a10.86,10.86,0,0,1-7,2.52v3.81A13.38,13.38,0,0,0,231.07,45Z"/><path class="cls-2" d="M250.2,20.63A14.38,14.38,0,0,1,265,35.3a14.81,14.81,0,0,1-29.62,0A14.35,14.35,0,0,1,250.2,20.63Zm0,28A12.84,12.84,0,0,0,263,38.19h-3.53a9.76,9.76,0,0,1-18.62,0h-3.53A12.71,12.71,0,0,0,250.2,48.6Zm0-5c4.86,0,8-3.67,8-8.3s-3.12-8.3-8-8.3-8,3.67-8,8.3S245.29,43.6,250.2,43.6Z"/><path class="cls-2" d="M269.69,21.54H281.2c5.91,0,9.77,3.58,9.77,8.76,0,4.81-2.43,7.52-6.51,8.53l7.42,10.22h-8.43l-7-10.27V49.05h-6.74Zm5,26.23V22.83h-3.34V47.77Zm7.11-14.31c1.51,0,2.52-1.56,2.52-3.16a2.91,2.91,0,0,0-2.7-3h-5.23v6.19Z"/><path class="cls-2" d="M294.27,21.54h9.58c8.12,0,14.4,6,14.4,13.71,0,7.34-5.59,13.8-14.4,13.8h-9.58Zm5.05,26.23V22.83H296V47.77Zm4.4-4.86a7.33,7.33,0,0,0,7.61-7.66,7.27,7.27,0,0,0-7.61-7.61H301V42.91Z"/></svg>