<?xml version="1.0" encoding="UTF-8" standalone="no"?>
<svg
   id="Layer_1"
   viewBox="0 0 460.96 70.6"
   version="1.1"
   sodipodi:docname="loyalfans.svg"
   xml:space="preserve"
   inkscape:version="1.4 (86a8ad7, 2024-10-11)"
   xmlns:inkscape="http://www.inkscape.org/namespaces/inkscape"
   xmlns:sodipodi="http://sodipodi.sourceforge.net/DTD/sodipodi-0.dtd"
   xmlns="http://www.w3.org/2000/svg"
   xmlns:svg="http://www.w3.org/2000/svg"><sodipodi:namedview
     id="namedview67"
     pagecolor="#ffffff"
     bordercolor="#000000"
     borderopacity="0.25"
     inkscape:showpageshadow="2"
     inkscape:pageopacity="0.0"
     inkscape:pagecheckerboard="0"
     inkscape:deskcolor="#d1d1d1"
     inkscape:zoom="1.8530567"
     inkscape:cx="117.37364"
     inkscape:cy="31.569461"
     inkscape:window-width="2560"
     inkscape:window-height="1377"
     inkscape:window-x="-8"
     inkscape:window-y="-8"
     inkscape:window-maximized="1"
     inkscape:current-layer="Layer_1"
     showguides="true" /><defs
     id="defs1"><style
       id="style1">.cls-1{fill:#40b4e6;}.cls-1,.cls-2,.cls-3,.cls-4,.cls-5,.cls-6,.cls-7,.cls-8,.cls-9,.cls-10,.cls-11,.cls-12,.cls-13,.cls-14,.cls-15,.cls-16,.cls-17,.cls-18,.cls-19,.cls-20,.cls-21{stroke-width:0px;}.cls-2{fill:#40b9ea;}.cls-3{fill:#40a9db;}.cls-4{fill:#00aff0;}.cls-22{fill:none;stroke:#01afef;stroke-miterlimit:10;stroke-width:2px;}.cls-5{fill:#bfe7f8;}.cls-6{fill:#02b0ef;}.cls-7{fill:#bee2f3;}.cls-8{fill:#018ccf;}.cls-9{fill:#40c3f3;}.cls-10{fill:#28a1da;}.cls-11{fill:#ab69ff;}.cls-12{fill:#b3def2;}.cls-13{fill:#01afef;}.cls-14{fill:#018dcf;}.cls-15{fill:#5db9e3;}.cls-16{fill:#161618;}.cls-17{fill:#40bdee;}.cls-18{fill:#008ccf;}.cls-19{fill:#6bc8ee;}.cls-20{fill:#e6f7fd;}.cls-21{fill:#028dd0;}</style></defs><path
     class="cls-16"
     d="m35.3,68.1c-18.08,0-32.8-14.71-32.8-32.8S17.21,2.5,35.3,2.5h390.37c18.08,0,32.8,14.71,32.8,32.8s-14.71,32.8-32.8,32.8H35.3Z"
     id="path1"
     style="fill:#121212;fill-opacity:1" /><path
     class="cls-4"
     d="m425.66,5c16.71,0,30.3,13.59,30.3,30.3s-13.59,30.3-30.3,30.3H35.3c-16.71,0-30.3-13.59-30.3-30.3S18.59,5,35.3,5h390.37m0-5H35.3C15.8,0,0,15.8,0,35.3h0c0,19.49,15.8,35.3,35.3,35.3h390.37c19.49,0,35.3-15.8,35.3-35.3h0c0-19.49-15.8-35.3-35.3-35.3h0Z"
     id="path2"
     style="fill:#121212;fill-opacity:1" /><path
     class="cls-1"
     d="m166.08,29.36c-.26,0-.53,0-.79,0,.26,0,.53,0,.79,0Z"
     id="path30" /><path
     class="cls-3"
     d="m158.23,33.06c-.02-.1-.03-.2-.05-.3.02.1.03.2.05.3Z"
     id="path31" /><path
     class="cls-3"
     d="m121.06,26.07c-.02.07-.04.14-.05.22.02-.07.04-.14.05-.22Z"
     id="path32" /><path
     class="cls-12"
     d="m165.69,40.58c-.08.01-.15.02-.23.03.08-.01.15-.02.23-.03Z"
     id="path33" /><path
     class="cls-3"
     d="m154.29,42.49c.02.07.03.15.05.22-.02-.07-.03-.15-.05-.22Z"
     id="path34" /><path
     class="cls-3"
     d="m149.49,29.82c-.05-.02-.1-.03-.15-.05.05.02.1.03.15.05Z"
     id="path35" /><path
     class="cls-15"
     d="m168.99,32.97c.05-.02.11-.03.16-.05-.05.02-.11.03-.16.05Z"
     id="path36" /><path
     class="cls-10"
     d="m130.27,28.61s.1-.03.14-.04c-.05.01-.1.03-.14.04Z"
     id="path37" /><path
     class="cls-12"
     d="m164.58,40.59c-.05,0-.1-.01-.15-.02.05,0,.1.01.15.02Z"
     id="path38" /><path
     class="cls-3"
     d="m131.23,26c.02-.05.03-.1.05-.15-.02.05-.03.1-.05.15Z"
     id="path39" /><path
     class="cls-15"
     d="m168.69,32.94s.07.02.1.03c-.03-.01-.07-.02-.1-.03Z"
     id="path40" /><path
     class="cls-5"
     d="m125.11,36.23s.05-.04.07-.05c-.02.02-.05.04-.07.05Z"
     id="path41" /><path
     class="cls-7"
     d="m150.77,34.17s.02-.06.03-.09c0,.03-.02.06-.03.09Z"
     id="path42" /><path
     class="cls-3"
     d="m141.31,29.77s-.05,0-.08,0c.03,0,.05,0,.08,0Z"
     id="path43" /><path
     class="cls-3"
     d="m125.04,42.57s.03-.06.05-.08c-.02.03-.03.06-.05.08Z"
     id="path44" /><path
     class="cls-9"
     d="m115.69,29.77s-.05,0-.08,0c.03,0,.05,0,.08,0Z"
     id="path45" /><path
     class="cls-3"
     d="m154.37,42.78s.04.04.06.06c-.02-.02-.04-.04-.06-.06Z"
     id="path46" /><path
     class="cls-3"
     d="m154.51,42.92s.04.04.06.06c-.02-.02-.04-.04-.06-.06Z"
     id="path47" /><path
     class="cls-17"
     d="m90.5,43.05s.05-.03.08-.05c-.03.02-.05.03-.08.05Z"
     id="path48" /><path
     class="cls-17"
     d="m98.01,43.05s.04-.03.07-.05c-.02.02-.04.03-.07.05Z"
     id="path49" /><path
     class="cls-9"
     d="m110.02,29.82s-.06-.03-.08-.04c.03.02.06.03.08.04Z"
     id="path50" /><path
     class="cls-3"
     d="m121.5,25.72s-.05,0-.08,0c.03,0,.05,0,.08,0Z"
     id="path51" /><path
     class="cls-3"
     d="m41.67,43.73s0-.04,0-.06c.02.02.05.04.07.06-.03,0-.05,0-.08,0Z"
     id="path53" /><path
     class="cls-9"
     d="m89.33,29.82s-.06-.03-.09-.05c.03.02.06.03.09.05Z"
     id="path54" /><path
     class="cls-13"
     d="m44.02,36.01c.03-.05.05-.1.08-.15-.03.05-.05.1-.08.15Z"
     id="path55" /><path
     class="cls-1"
     d="m138.29,32.23c-.12,0-.25,0-.37,0,.12,0,.25,0,.37,0Z"
     id="path57" /><path
     class="cls-1"
     d="m135.87,37.32c.01.1.03.21.04.31-.01-.1-.03-.21-.04-.31Z"
     id="path58" /><path
     class="cls-12"
     d="m137.55,40.5c.05.01.1.02.15.04-.05-.01-.1-.02-.15-.04Z"
     id="path59" /><path
     class="cls-12"
     d="m138.29,40.52s.06-.01.08-.02c-.03,0-.06.01-.08.02Z"
     id="path60" /><style
     type="text/css"
     id="style1-9">
	.st0{fill:#FFFFFF;}
	.st1{fill:#D90A16;}
</style><g
     id="g9"
     transform="matrix(0.45772855,0,0,0.45772855,129.9556,14.739645)">
	<g
   id="g1">
		<path
   class="st0"
   d="M 11.9,12.6 V 61.3 H 40.2 V 72.7 H 0 V 12.6 Z"
   id="path1-4" />
	</g>
	<g
   id="g2">
		<path
   class="st0"
   d="m 51.7,27.8 c 2.7,-4.6 6.3,-8.3 10.9,-11.1 4.6,-2.8 9.6,-4.1 15,-4.1 5.4,0 10.4,1.4 15,4.1 4.6,2.8 8.3,6.4 11,11.1 2.8,4.6 4.1,9.6 4.1,15 0,5.4 -1.4,10.4 -4.1,15 -2.8,4.6 -6.4,8.2 -11,10.9 -4.6,2.7 -9.6,4 -15,4 -5.4,0 -10.4,-1.3 -15,-4 C 58,66 54.4,62.4 51.7,57.8 c -2.7,-4.6 -4,-9.6 -4,-15 0,-5.3 1.3,-10.3 4,-15 z m 10.4,24.4 c 1.6,2.9 3.8,5.1 6.6,6.8 2.8,1.7 5.9,2.5 9.3,2.5 3.3,0 6.3,-0.8 9,-2.5 2.8,-1.7 4.8,-3.9 6.4,-6.8 1.5,-2.8 2.3,-6 2.3,-9.4 0,-3.5 -0.8,-6.7 -2.4,-9.6 -1.6,-2.9 -3.8,-5.1 -6.5,-6.8 -2.8,-1.7 -5.8,-2.5 -9.2,-2.5 -3.4,0 -6.4,0.9 -9.2,2.5 -2.8,1.7 -4.9,3.9 -6.5,6.8 -1.6,2.9 -2.4,6.1 -2.4,9.6 0.2,3.3 1,6.5 2.6,9.4 z"
   id="path2-8" />
	</g>
	<g
   id="g3">
		<path
   class="st0"
   d="m 232.8,12.6 v 48.7 h 28.3 V 72.7 H 221 V 12.6 Z"
   id="path3-8" />
	</g>
	<path
   class="st1"
   d="m 311.6,12.7 v 11.4 h -25.7 v 13.6 h 22.3 V 49.1 H 285.9 V 72.7 H 274 v -60 z"
   id="path4-2" />
	<path
   class="st1"
   d="M 426.3,12.6 V 72.7 H 426 l -38.9,-35.2 0.3,35.1 h -11.1 v -60 h 0.4 l 38.9,35.7 -0.3,-35.7 z"
   id="path5-4" />
	<path
   class="st1"
   d="m 462,23 c -2.6,0 -4.6,0.5 -6,1.5 -1.4,1 -2.1,2.6 -2.1,4.6 0,1.9 1,3.5 3.1,4.9 2.1,1.4 4.8,2.8 8.3,4.1 2.8,1 5.2,2.2 7.1,3.5 2,1.3 3.6,3.1 4.9,5.4 1.3,2.3 2,5.3 2,8.8 0,3.1 -0.7,5.9 -2.4,8.5 -1.6,2.6 -3.9,4.6 -6.9,6.2 -3.1,1.5 -6.7,2.3 -10.9,2.3 -3.6,0 -7.1,-0.5 -10.5,-1.6 -3.5,-1.1 -6.7,-2.6 -9.7,-4.8 l 5.1,-9.1 c 2,1.5 4.4,2.8 7,3.7 2.6,0.9 5,1.4 7.1,1.4 2.4,0 4.6,-0.5 6.4,-1.6 1.8,-1.1 2.8,-2.8 2.8,-5.1 0,-3.1 -2.9,-5.7 -8.6,-7.9 -3.4,-1.3 -6.2,-2.6 -8.4,-3.8 -2.2,-1.3 -4.2,-3 -5.8,-5.3 -1.6,-2.3 -2.4,-5.2 -2.4,-8.7 0,-5.1 1.7,-9.2 5.1,-12.3 3.4,-3.1 7.8,-4.8 13.4,-5.1 4.4,0 8.1,0.5 11,1.5 2.9,1 5.8,2.4 8.6,4.2 l -4.4,8.9 C 470.2,24.4 465.7,23 462,23 Z"
   id="path6-5" />
	<path
   class="st1"
   d="m 323.2,72.7 3.9,-9.4 H 347 l 3.8,9.4 h 13.6 L 338.3,12.6 h -0.7 l -26.1,60.1 z m 14.2,-34 5.8,14.6 h -11.9 z"
   id="path7-5" />
	<path
   class="st0"
   d="m 170.1,72.7 3.9,-9.4 h 19.9 l 3.8,9.4 h 13.6 L 185.2,12.6 h -0.7 l -26.1,60.1 z m 14,-34 5.8,14.6 H 178 Z"
   id="path8-1" />
	<path
   class="st1"
   d="m 129.5,10.2 c 2.9,-2.9 7.7,-2.9 10.6,0 2.9,2.9 2.9,7.7 0,10.6 -2.9,2.9 -7.7,2.9 -10.6,0 -2.9,-2.9 -3,-7.7 0,-10.6 z m 48,-10.1 -26.6,33 c -0.4,0.5 -0.8,1 -1.2,1.5 -2,2.6 -3.8,5.5 -5.2,8.5 -2.8,6 -4.4,12.7 -4.4,19.9 v 9.8 H 129.5 V 62.5 c 0,-0.9 0,-1.8 -0.1,-2.6 -0.3,-6.1 -1.9,-11.9 -4.3,-17.1 -0.6,-1.3 -1.3,-2.6 -2,-3.8 L 122.8,38.5 106,10.4 134.9,34.9 v 0 0 z"
   id="path9-7" />
</g></svg>
