<svg id="Layer_1" data-name="Layer 1" xmlns="http://www.w3.org/2000/svg" viewBox="0 0 381.06 96.42"><defs><style>.cls-1{fill:#fff;}</style></defs><path class="cls-1" d="M63.53,86.68c-2.56,3.69-7.07,9.74-13.32,9.74-6.87,0-10.86-2.26-20.8-15.68a23.39,23.39,0,0,1-6.87,1.13c-6.45,0-12.29-2.05-15.37-6.76a4.3,4.3,0,0,0-1.94,3.58c0,2.46,2.15,2,2.15,4.82A3.24,3.24,0,0,1,4.1,86.79c-2.67,0-4.1-2-4.1-4.61,0-3.39,2.36-6.66,5.94-8.92a25.28,25.28,0,0,1-2.76-12c0-21,17.72-49,41.49-49,11.07,0,17.22,6.25,17.22,18.64,0,19.88-13.22,40.48-27.56,47.65,5.94,4.82,12.5,10.14,19.77,10.14a12,12,0,0,0,8.5-3ZM14.65,62a26.31,26.31,0,0,0,1.44,8.51c5.32.3,10.65,2.25,16.19,6.35C42.42,70.6,51.13,49.49,51.13,32c0-8.3-.62-17.21-9.94-17.21C25.41,14.76,14.65,44.27,14.65,62ZM28,78.79c-4-4.09-8.3-6-11.17-6.25C18.65,76.64,22.23,79,26,79A9.59,9.59,0,0,0,28,78.79Z"/><path class="cls-1" d="M77.15,71.83a7.86,7.86,0,0,1,.52-3.28c-3.79,4.2-8.4,7.58-12.4,7.58-3,0-5.84-1.43-5.84-5.22C59.43,66.4,65,60.25,65,56.25c0-.71-.31-1-.92-1-.92,0-3.89,2.66-3.89,2.66L59.43,57C61.07,55.54,66.19,51,69.37,51c2.87,0,4.4,1.33,4.4,3.38,0,4.1-5.12,11.27-5.12,16A1.44,1.44,0,0,0,70.19,72c1.43,0,3.58-1.12,7.37-5.63,1.64-2.05,2.46-7.18,3.69-9.74a8.88,8.88,0,0,1,7-5c4.1-.51,5.33-1.74,5.33-1.74L94.27,51a11.24,11.24,0,0,0-4.1,4.51c-2,3.89-4.2,11.78-4.2,15.37,0,.71.3,1.12.71,1.12C88.63,72,91.6,69,91.6,69l.72.82S87,76.13,82.38,76.13C79.61,76.13,77.15,74.59,77.15,71.83Z"/><path class="cls-1" d="M111.38,51c4.1,0,7.17,1.74,7.17,4.61,0,5.33-5.94,8.91-11.07,8.91-1,0-2-.2-2-.92a.49.49,0,0,1,.52-.51c3.89,0,7.17-4.82,7.17-9.12,0-.82-.41-1.33-1.13-1.33-3.89,0-8.6,7.89-8.6,14.24,0,4.61,2.15,6.15,4.61,6.15,3.89,0,7.37-4.1,7.37-4.1l.82.82s-5.12,6.35-12.7,6.35c-4.41,0-9.22-2.36-9.22-8C94.27,58.3,104.72,51,111.38,51Z"/><path class="cls-1" d="M138.53,51c4.1,0,7.17,1.74,7.17,4.61,0,5.33-5.94,8.91-11.06,8.91-1,0-2-.2-2-.92a.48.48,0,0,1,.51-.51c3.89,0,7.17-4.82,7.17-9.12,0-.82-.41-1.33-1.12-1.33-3.9,0-8.61,7.89-8.61,14.24,0,4.61,2.15,6.15,4.61,6.15,3.89,0,7.38-4.1,7.38-4.1l.82.82s-5.13,6.35-12.71,6.35c-4.41,0-9.22-2.36-9.22-8C121.42,58.3,131.87,51,138.53,51Z"/><path class="cls-1" d="M177.26,51c2.56,0,4.82,1.64,4.82,3.79,0,4.92-4.72,9.22-4.72,15.06,0,1.74.93,2.15,1.44,2.15,2.35,0,5-3,5-3l.82.82s-5.12,6.25-10.45,6.25c-3.28,0-6.05-1.64-6.05-4.92,0-5.43,5.74-11,5.74-14.75,0-1.23-.51-1.64-1.23-1.64-1.84,0-5.53,2.15-9,6.15-2.15,2.46-4.91,12.09-4.91,13.73,0,1.12-.72,1.43-2.26,1.43-.92,0-2.15-.31-4-.31a15.43,15.43,0,0,0-3.9.82c-.2,0-.41-.2-.41-.61s1.23-1,1.85-2.46c2.35-5.12,5.43-14.76,5.43-17.32,0-1-.31-1.33-.82-1.33-1,0-4.1,2.77-4.1,2.77l-.72-.92c1.74-1.54,6.46-5.74,9.74-5.74,2.45,0,4.4,1.23,4.4,3.28a20.59,20.59,0,0,1-.92,5.22C167.12,54.92,173.37,51,177.26,51Z"/><path class="cls-1" d="M232.9,65.37c0-15.88-10.66-21-10.66-34.83,0-10.76,11.58-18.35,19.78-18.35,7.58,0,12.6,3.9,12.6,10.35,0,4.2-1.74,8.51-5.23,8.51a3.06,3.06,0,0,1-3.17-3.18c0-4.1,5-3.59,5-7.79,0-2.76-3.59-5.63-7.69-5.63-6.66,0-10.65,4.81-10.65,12,0,13.73,11.58,19.36,11.58,37,0,15.36-13.73,24.18-25.72,24.18-12.3,0-20-8-20-17.32a15.87,15.87,0,0,1,15.67-16c5.13,0,9,2.87,9,5.84a2.82,2.82,0,0,1-3,3.07c-2.25,0-3-1.95-3-4,0-1.53-.31-3.27-4-3.27-6,0-12,6.45-12,13.42,0,8.61,6.87,13.93,15,13.93C226.44,83.3,232.9,75.31,232.9,65.37Z"/><path class="cls-1" d="M258.1,69.88c0,1.54.72,2.15,1.34,2.15,1.94,0,4.91-3.07,4.91-3.07l.82.82s-5.84,6.35-10.55,6.35c-3,0-5.94-.92-5.94-5.12,0-4.51,5.53-10.76,5.53-14.76a.81.81,0,0,0-.92-.92c-1,0-3.79,2.46-3.79,2.46l-.72-.92c1.64-1.44,6.66-5.84,9.94-5.84,2.87,0,4.71,1.53,4.71,3.48C263.43,58.92,258.1,65.68,258.1,69.88ZM264.25,36A3,3,0,0,1,267.33,39c0,3-2.67,6.66-5.13,6.66a3.22,3.22,0,0,1-3.38-3.38C258.82,39.45,261.79,36,264.25,36Z"/><path class="cls-1" d="M271.43,48.26h1.94c1.44-5,4.41-7.07,8.2-8.09,4.51-1.13,5.63-2,5.63-2l.62,1.23a12,12,0,0,0-4.2,4.51,20.6,20.6,0,0,0-2.05,4.3h7.17L287.82,50h-6.76c-1.95,6.66-4.51,14.86-4.51,18.55,0,2.56.82,3.48,2.56,3.48,2.77,0,5.64-3.07,5.64-3.07l.71.82s-5.73,6.35-10.76,6.35c-4,0-7.07-2.66-7.07-5.94,0-4.2,2.67-11.27,5.33-20.19H270.5Z"/><path class="cls-1" d="M303.7,59.94c-1.95,2.77-5.33,13.12-5.33,14.76,0,1.12-.51,1.43-1.43,1.43s-3-.31-4.82-.31a16.66,16.66,0,0,0-4,.82.43.43,0,0,1-.41-.41c0-.41,1.12-1.12,1.84-2.56C292,69,295.09,58.2,295.09,56.25c0-.41-.1-1-.82-1-1.12,0-4,2.66-4,2.66l-.72-.92C291.1,55.54,296,51,299.4,51c2.87,0,4.5,1.53,4.5,3.38a12.13,12.13,0,0,1-.3,3c2.15-3.07,5.94-6.35,8.4-6.35s4,1.53,4,3.38c0,2.25-1.44,4.61-4.21,4.61a2.77,2.77,0,0,1-2.86-2.77c0-.61-.21-.92-.62-.92C307.29,55.33,306.26,56.25,303.7,59.94Z"/><path class="cls-1" d="M342.64,72.13c1.84,0,4.92-3.17,4.92-3.17l.71.82s-5.73,6.35-9.22,6.35c-3.07,0-4.92-2-4.92-4.51a11,11,0,0,1,.41-3.17c-1.64,2.86-6.45,7.68-11.06,7.68-5.43,0-8.3-3-8.3-7.58,0-9.74,9.63-17.52,16.9-17.52,3.9,0,5.95,1.94,6.25,4.51.72-2,2.36-3.39,5.85-3.9a10.27,10.27,0,0,0,4.91-1.74l.62,1.23a9.74,9.74,0,0,0-4.1,4.41c-1.64,3.17-4.3,11.57-4.3,15.06C341.31,71.73,341.82,72.13,342.64,72.13Zm-7.89-7a29.7,29.7,0,0,0,2.05-7.69c0-2.46-.82-4.61-3.69-4.61-5,0-8.81,8.61-8.81,14.76,0,3.79.82,5.32,2.66,5.32C329.32,73,332.9,69,334.75,65.17Z"/><path class="cls-1" d="M358.73,24.69a3.47,3.47,0,0,1,3.38,3.59c0,3.18-4.41,9.12-7.48,9.12-.52,0-.93-.21-.93-.72,0-.3.41-.61.72-.82a6.2,6.2,0,0,0,3-4.4c-1.33,0-1.94-1.34-1.94-2.56C355.45,27.36,356.06,24.69,358.73,24.69Z"/><path class="cls-1" d="M356.88,69.78a4.46,4.46,0,0,1,4.51-4.41,2.91,2.91,0,0,1,3,3c0,2.26-1.74,2.46-1.74,4.2,0,1.23.82,2.36,2.77,2.36,2.87,0,4-2.25,4-4.71,0-5.33-8.19-6-8.19-11.89,0-5.12,6.86-7.58,11.57-7.58,4.2,0,7.07,2.15,7.07,5.12,0,2.67-1.74,4.2-3.79,4.2-1.84,0-3.17-1.12-3.17-2.56,0-1.84,1.33-2.35,1.33-3.89a1.46,1.46,0,0,0-1.54-1.54A3.65,3.65,0,0,0,369,55.64c0,5.94,8.92,7.17,8.92,12.6,0,5-5.84,8.2-11.68,8.2C361,76.44,356.88,73.88,356.88,69.78Z"/></svg>