<svg id="Layer_1" data-name="Layer 1" xmlns="http://www.w3.org/2000/svg" viewBox="0 0 460.96 70.6"><defs><style>.cls-1{fill:#222;}.cls-2{fill:#fff;}</style></defs><rect class="cls-1" width="460.96" height="70.6" rx="35.3"/><path class="cls-2" d="M164.51,21.54h6.28l7,14.86,7.06-14.86h6.19V49.05h-6.7V36.81l-6,13.16h-1.1l-6-13.25V49.05h-6.74Zm5.05,26.23v-15l-3.35-7.52V47.77Zm14.8-14.54v-7l-5.59,12,1.51,3.67Z"/><path class="cls-2" d="M195.47,21.54h18.2v6H202.21v5H212.8v5.86H202.21v5h12v5.77h-18.7Zm5,23V26.22l-3.35-3.39V47.77Z"/><path class="cls-2" d="M217.43,21.54h11.51c5.92,0,9.77,3.58,9.77,8.76,0,4.81-2.43,7.52-6.51,8.53l7.43,10.22h-8.44l-7-10.27V49.05h-6.74Zm5,26.23V22.83h-3.35V47.77Zm7.1-14.31c1.52,0,2.53-1.55,2.53-3.16a2.92,2.92,0,0,0-2.71-3h-5.23v6.19Z"/><path class="cls-2" d="M257.19,20.63a15.34,15.34,0,0,1,11.78,5l-4.63,4.4A10.21,10.21,0,0,0,257.19,27c-4.91,0-8.07,3.67-8.07,8.3s3.16,8.3,8.07,8.3a10.21,10.21,0,0,0,7.15-3.07l4.5,4.4a15.62,15.62,0,0,1-11.65,5,14.42,14.42,0,0,1-14.9-14.67A14.42,14.42,0,0,1,257.19,20.63Zm7.11,7.56,2.61-2.52a12.89,12.89,0,0,0-9.72-3.76v3.8A11.85,11.85,0,0,1,264.3,28.19ZM266.82,45l-2.61-2.66a10.89,10.89,0,0,1-7,2.52v3.81A13.4,13.4,0,0,0,266.82,45Z"/><path class="cls-2" d="M272.24,21.54H279V32.36h10.77V21.54h6.7V49.05h-6.7V38.19H279V49.05h-6.74Zm5,26.23V38.19h-3.35v9.58Zm17.47,0V38.19h-3.3v9.58Z"/></svg>