<?xml version="1.0" encoding="UTF-8"?><svg id="Layer_1" xmlns="http://www.w3.org/2000/svg" viewBox="0 0 460.96 70.6"><defs><style>.cls-1{fill:#fff;}.cls-2{fill:#222;}</style></defs><rect class="cls-2" x="0" y="0" width="460.96" height="70.6" rx="35.3" ry="35.3"/><path class="cls-1" d="m164.51,21.54h6.28l7.02,14.86,7.06-14.86h6.19v27.51h-6.7v-12.24l-6.01,13.16h-1.1l-6.01-13.25v12.33h-6.74v-27.51Zm5.04,26.23v-15.04l-3.35-7.52v22.56h3.35Zm14.81-14.54v-6.97l-5.59,11.97,1.51,3.67,4.08-8.67Z"/><path class="cls-1" d="m195.47,21.54h18.2v5.96h-11.46v4.95h10.59v5.87h-10.59v4.95h11.97v5.78h-18.71v-27.51Zm5.04,23.02v-18.34l-3.35-3.39v24.94l3.35-3.21Z"/><path class="cls-1" d="m217.43,21.54h11.51c5.92,0,9.77,3.58,9.77,8.76,0,4.81-2.43,7.52-6.51,8.53l7.43,10.22h-8.44l-7.02-10.27v10.27h-6.74v-27.51Zm5.04,26.23v-24.94h-3.35v24.94h3.35Zm7.11-14.31c1.51,0,2.52-1.56,2.52-3.16s-1.19-3.03-2.71-3.03h-5.23v6.19h5.41Z"/><path class="cls-1" d="m257.19,20.63c5.23,0,8.85,1.97,11.79,5.04l-4.63,4.4c-1.93-1.88-4.4-3.07-7.15-3.07-4.91,0-8.07,3.67-8.07,8.3s3.16,8.3,8.07,8.3c2.75,0,5.23-1.19,7.15-3.07l4.49,4.4c-2.75,2.89-6.56,5.04-11.65,5.04-8.71,0-14.9-6.46-14.9-14.67s6.19-14.67,14.9-14.67Zm7.11,7.57l2.61-2.52c-2.43-2.48-5.59-3.76-9.72-3.76v3.81c2.62,0,5.14.96,7.11,2.48Zm2.52,16.83l-2.61-2.66c-1.65,1.47-4.26,2.52-7.02,2.52v3.81c4.04,0,7.06-1.28,9.63-3.67Z"/><path class="cls-1" d="m272.24,21.54h6.74v10.82h10.78v-10.82h6.69v27.51h-6.69v-10.87h-10.78v10.87h-6.74v-27.51Zm5.04,26.23v-9.58h-3.35v9.58h3.35Zm17.47,0v-9.58h-3.3v9.58h3.3Z"/></svg>