<svg id="Layer_1" data-name="Layer 1" xmlns="http://www.w3.org/2000/svg" viewBox="0 0 460.96 70.6"><defs><style>.cls-1{fill:#fff;}.cls-2{fill:#00aff0;}</style></defs><path class="cls-1" d="M35.3,68.1a32.8,32.8,0,0,1,0-65.6H425.66a32.8,32.8,0,0,1,0,65.6Z"/><path class="cls-2" d="M425.66,5a30.3,30.3,0,0,1,0,60.6H35.3A30.3,30.3,0,0,1,35.3,5H425.66m0-5H35.3A35.29,35.29,0,0,0,0,35.3H0A35.3,35.3,0,0,0,35.3,70.6H425.66A35.3,35.3,0,0,0,461,35.3h0A35.29,35.29,0,0,0,425.66,0Z"/><path class="cls-2" d="M144.1,20.63A14.37,14.37,0,0,1,158.91,35.3a14.81,14.81,0,0,1-29.62,0A14.35,14.35,0,0,1,144.1,20.63Zm0,28a12.83,12.83,0,0,0,12.84-10.4h-3.53a9.76,9.76,0,0,1-18.62,0h-3.53A12.71,12.71,0,0,0,144.1,48.59Zm0-5c4.86,0,8-3.67,8-8.3S149,27,144.1,27s-8,3.67-8,8.3S139.19,43.6,144.1,43.6Z"/><path class="cls-2" d="M163.59,21.54h7.11l10.68,16.33V21.54h6.7V49.05h-7L170.33,32.68V49.05h-6.74Zm5,26.23V31l-3.35-5.28V47.77Zm17.74-3.07V22.83h-3.3V39.56Z"/><path class="cls-2" d="M192.49,21.54h6.74V43.28h12v5.77h-18.7Zm5,23V22.83h-3.35V47.77Z"/><path class="cls-2" d="M217.29,35.76l-9.76-14.22h7.61l5.5,8.26,5.55-8.26h7.56L224,35.76V49.05h-6.7ZM231.1,22.83h-3.9l-5.5,8.11,1.88,2.8Z"/><path class="cls-2" d="M237,21.54h17.74v6h-11v5.87h10.13v5.87H243.76v9.81H237Zm5,26.23V26.22l-3.35-3.39V47.77Z"/><path class="cls-2" d="M266.73,20.63h1.19L281.4,49.05h-7.24l-1.38-2.84H261.92l-1.33,2.84h-7.25Zm-7.34,27.14,3-6.37h-3.72l-3,6.37Zm11.1-6.37-3.16-7h-.09l-3.21,7Zm4.77,6.37h3.81l-3-6.37h-3.71Z"/><path class="cls-2" d="M284.34,21.54h7.11l10.68,16.33V21.54h6.7V49.05h-7L291.08,32.68V49.05h-6.74Zm5.05,26.23V31L286,25.71V47.77Zm17.74-3.07V22.83h-3.3V39.56Z"/><path class="cls-2" d="M319.65,41a2.87,2.87,0,0,0,2.85,2.89c1.69,0,2.75-1,2.75-2.38,0-2.07-2.71-2.66-4.95-3.44-4.64-1.65-7.2-3.81-7.2-8.53a9.15,9.15,0,0,1,9.35-8.89c6.1,0,9,3.89,9.35,9h-6.32a2.87,2.87,0,0,0-5.73-.18c0,2.06,2.52,2.43,4.86,3.12,4.9,1.46,7.19,4.21,7.19,8.53A9.11,9.11,0,0,1,322.5,50c-6,0-9.4-4-9.4-9Zm2.85,7.71V45.16a4.19,4.19,0,0,1-4.22-2.89H314.7C314.79,45.71,318.14,48.69,322.5,48.69Zm7.65-20.36c-.27-2.71-2.29-6.42-7.65-6.42v3.58a4,4,0,0,1,4.21,2.84Z"/></svg>