<?xml version="1.0" encoding="UTF-8"?><svg id="Layer_1" xmlns="http://www.w3.org/2000/svg" viewBox="0 0 460.96 70.6"><defs><style>.cls-1{fill:#40b4e6;}.cls-1,.cls-2,.cls-3,.cls-4,.cls-5,.cls-6,.cls-7,.cls-8,.cls-9,.cls-10,.cls-11,.cls-12,.cls-13,.cls-14,.cls-15,.cls-16,.cls-17,.cls-18,.cls-19,.cls-20,.cls-21{stroke-width:0px;}.cls-2{fill:#40b9ea;}.cls-3{fill:#40a9db;}.cls-4{fill:#00aff0;}.cls-22{fill:none;stroke:#01afef;stroke-miterlimit:10;stroke-width:2px;}.cls-5{fill:#bfe7f8;}.cls-6{fill:#02b0ef;}.cls-7{fill:#bee2f3;}.cls-8{fill:#018ccf;}.cls-9{fill:#40c3f3;}.cls-10{fill:#28a1da;}.cls-11{fill:#ab69ff;}.cls-12{fill:#b3def2;}.cls-13{fill:#01afef;}.cls-14{fill:#018dcf;}.cls-15{fill:#5db9e3;}.cls-16{fill:#161618;}.cls-17{fill:#40bdee;}.cls-18{fill:#008ccf;}.cls-19{fill:#6bc8ee;}.cls-20{fill:#e6f7fd;}.cls-21{fill:#028dd0;}</style></defs><path class="cls-16" d="m35.3,68.1c-18.08,0-32.8-14.71-32.8-32.8S17.21,2.5,35.3,2.5h390.37c18.08,0,32.8,14.71,32.8,32.8s-14.71,32.8-32.8,32.8H35.3Z"/><path class="cls-4" d="m425.66,5c16.71,0,30.3,13.59,30.3,30.3s-13.59,30.3-30.3,30.3H35.3c-16.71,0-30.3-13.59-30.3-30.3S18.59,5,35.3,5h390.37m0-5H35.3C15.8,0,0,15.8,0,35.3h0c0,19.49,15.8,35.3,35.3,35.3h390.37c19.49,0,35.3-15.8,35.3-35.3h0c0-19.49-15.8-35.3-35.3-35.3h0Z"/><path class="cls-11" d="m210.42,42.76c.45-.34.71-.85.71-1.45v-4.96h-5.03v4.96c0,.6.27,1.1.71,1.45v.09h-4.27v-.09c.45-.34.71-.85.71-1.45v-13c0-.6-.27-1.1-.71-1.45v-.09h4.27v.09c-.45.34-.71.85-.71,1.45v5.4h5.03v-5.4c0-.6-.27-1.1-.71-1.45v-.09h4.27v.09c-.45.34-.71.85-.71,1.45v13c0,.6.27,1.1.71,1.45v.09h-4.27v-.09Z"/><path class="cls-11" d="m220.18,42.76c.47-.34.71-.85.71-1.45v-4.02l-4.27-8.96c-.31-.69-.82-1.22-1.27-1.47v-.09h4.5v.09c-.58.37-.6.8-.29,1.47l2.78,5.86,2.76-5.86c.29-.67.29-1.1-.29-1.47v-.09h4.5v.09c-.45.25-.96.78-1.29,1.47l-4.25,8.96v4.02c0,.6.24,1.1.69,1.45v.09h-4.27v-.09Z"/><path class="cls-11" d="m234.23,42.76v.09h-4.27v-.09c.45-.34.71-.85.71-1.45v-13c0-.6-.27-1.1-.71-1.45v-.09h5.37c3.5,0,5.74,1.86,5.74,4.87s-2.23,4.94-5.54,4.94h-2v4.73c0,.6.27,1.1.71,1.45Zm1.25-8.82c1.69,0,2.76-.76,2.76-2.27s-1.05-2.25-2.76-2.25h-1.96v4.52h1.96Z"/><path class="cls-11" d="m242.14,42.76c.45-.34.71-.85.71-1.45v-13c0-.6-.27-1.1-.71-1.45v-.09h4.27v.09c-.45.34-.71.85-.71,1.45,0,3.15,4.07,5.03,5.1,7.67v-7.67c0-.6-.25-1.1-.69-1.45v-.09h4.27v.09c-.47.34-.71.85-.71,1.45v13c0,.6.25,1.1.71,1.45v.09h-4.27v-.09c.45-.34.69-.85.69-1.45,0-3.28-4.14-5.21-5.1-7.79v7.79c0,.6.27,1.1.71,1.45v.09h-4.27v-.09Z"/><path class="cls-11" d="m255.63,34.84c0-4.82,3.67-8.59,8.44-8.59s8.46,3.77,8.46,8.59-3.67,8.54-8.46,8.54-8.44-3.77-8.44-8.54Zm8.44,5.9c3.27,0,5.59-2.43,5.59-5.9s-2.32-5.95-5.59-5.95-5.59,2.48-5.59,5.95,2.34,5.9,5.59,5.9Z"/><path class="cls-11" d="m281.33,41.29l-3.56-12.95c-.2-.69-.6-1.22-1.02-1.47v-.09h4.3v.09c-.65.37-.76.8-.58,1.47l3.12,11.76,3.12-11.76c.18-.67.07-1.1-.58-1.47v-.09h4.3v.09c-.42.25-.82.8-1,1.47l-3.58,12.95c-.16.6-.07,1.1.58,1.47v.09h-5.66v-.09c.6-.34.76-.83.58-1.47Z"/><path class="cls-11" d="m291.09,42.76c.45-.34.71-.85.71-1.45v-13c0-.6-.27-1.1-.71-1.45v-.09h4.27v.09c-.45.34-.71.85-.71,1.45v13c0,.6.27,1.1.71,1.45v.09h-4.27v-.09Z"/><path class="cls-11" d="m297.08,42.76c.45-.34.71-.85.71-1.45v-13c0-.6-.27-1.1-.71-1.45v-.09h5.17c2.8,0,8.71.71,8.71,8.01,0,6.18-4.25,8.06-7.59,8.06h-6.28v-.09Zm5.86-2.55c3.47,0,5.14-1.79,5.14-5.42s-1.87-5.37-5.74-5.37h-1.69v10.79h2.29Z"/><path class="cls-11" d="m320.03,36.06c-.33-.41-.82-.67-1.4-.67h-2.85v4.82h4.74c.58,0,1.11-.28,1.29-.67h.13l-.51,3.31h-9.22v-.09c.45-.34.71-.85.71-1.45v-13c0-.6-.27-1.1-.71-1.45v-.09h8.59l.51,3.31h-.13c-.2-.41-.71-.67-1.34-.67h-4.07v3.35h2.85c.58,0,1.07-.25,1.4-.67h.09v3.95h-.09Z"/><path class="cls-11" d="m322.26,34.84c0-4.82,3.67-8.59,8.44-8.59s8.46,3.77,8.46,8.59-3.67,8.54-8.46,8.54-8.44-3.77-8.44-8.54Zm8.44,5.9c3.27,0,5.59-2.43,5.59-5.9s-2.32-5.95-5.59-5.95-5.59,2.48-5.59,5.95,2.34,5.9,5.59,5.9Z"/><path class="cls-11" d="m339.83,39.29c0-1.77,1.27-3.1,2.74-3.1,1.2,0,1.94.9,1.94,1.45,0,.11-.04.16-.11.16-.11,0-.31-.11-.65-.11-.67,0-1.18.55-1.18,1.35,0,1.06.87,1.7,1.87,1.7,1.2,0,1.98-.96,1.98-2.23,0-3.63-5.99-4.25-5.99-8.47,0-2.25,1.78-3.79,3.76-3.79,1.69,0,2.65,1.13,3.18,1.13.16,0,.38-.09.51-.3h.13v3.93h-.11c-.82-1.1-2.14-2.09-3.29-2.09-.85,0-1.34.51-1.34,1.15,0,2.25,6.01,3.54,6.01,8.36,0,2.62-1.87,4.96-4.83,4.96-2.6,0-4.63-1.84-4.63-4.09Z"/><path class="cls-8" d="m47.71,27.47c.36-.34.68-.72,1.08-1.01.71-.52,1.54-.75,2.4-.9,1.37-.25,2.76-.24,4.14-.24,1.46,0,2.92,0,4.38,0,.1,0,.19.01.31.02-.16.71-.39,1.36-.71,1.99-.69,1.35-1.7,2.4-2.96,3.22-.99.65-2.07,1.1-3.21,1.4-.3.08-.6.16-.94.26.08.05.12.1.18.11.84.21,1.69.2,2.54.18.6-.02,1.19-.1,1.78-.18.11-.01.23-.04.41-.08-.16.47-.28.9-.44,1.31-.42,1.08-1.05,2.04-1.92,2.8-.78.69-1.7,1.19-2.71,1.49-.46.13-.91.3-1.39.3-.15,0-.31.04-.46.09-.07.02-.15.08-.18.15-.46,1.03-1.11,1.93-1.91,2.74-.52.52-1.11.93-1.71,1.33-.76.49-1.59.81-2.45,1.05-.7.19-1.44.29-2.17.25-.02-.02-.05-.04-.07-.06.46-1.48.93-2.96,1.39-4.44.3-.96.6-1.91.9-2.87.04-.11.04-.24.05-.36h0s.05-.1.08-.15c.1-.32.21-.63.31-.95.13-.38.25-.76.38-1.14.45-1.31.91-2.61,1.48-3.87.39-.86.88-1.66,1.45-2.42Z"/><path class="cls-13" d="m47.71,27.47c-.56.76-1.05,1.55-1.45,2.42-.57,1.26-1.03,2.56-1.48,3.87-.13.38-.25.76-.38,1.14,0-.12,0-.24,0-.37,0-1.76-1.56-3.05-3.28-2.72-1.1.21-1.99,1.13-2.17,2.23-.19,1.16.34,2.3,1.34,2.88.99.57,2.27.46,3.13-.28.22-.19.4-.43.6-.64-.02.12-.02.24-.05.36-.3.96-.6,1.91-.9,2.87-.46,1.48-.93,2.96-1.39,4.44,0,.02,0,.04,0,.06-.36,0-.72.04-1.06,0-.47-.06-.93-.19-1.39-.3-.62-.15-1.21-.37-1.77-.67-1.35-.71-2.47-1.68-3.34-2.94-.71-1.03-1.2-2.15-1.47-3.36-.19-.86-.22-1.74-.14-2.62.02-.24.05-.47.06-.71.02-.58.22-1.11.39-1.65.14-.43.34-.85.55-1.25.39-.72.8-1.44,1.43-2,.25-.22.44-.5.69-.71.37-.31.76-.59,1.15-.85.58-.38,1.22-.65,1.87-.88,1.19-.41,2.42-.56,3.67-.47,1.03.08,2.03.32,2.99.74.76.33,1.47.75,2.11,1.28.08.06.19.08.29.12Z"/><path class="cls-13" d="m76.64,43.44c-.4,0-.81.04-1.21,0-.64-.08-1.26-.25-1.86-.47-.83-.31-1.55-.8-2.18-1.39-.48-.46-.89-.99-1.2-1.6-.25-.49-.53-.97-.68-1.51-.12-.45-.25-.89-.35-1.34-.26-1.15-.25-2.32-.22-3.49.03-1.03.16-2.05.48-3.05.26-.79.6-1.55,1.04-2.25.56-.88,1.3-1.58,2.21-2.1.69-.4,1.43-.69,2.2-.82.82-.14,1.66-.22,2.51-.13.78.09,1.54.2,2.28.46,1.62.57,2.8,1.63,3.62,3.12.54.99.88,2.05,1.03,3.17.09.7.18,1.41.2,2.11.01.63-.07,1.27-.12,1.9-.06.82-.26,1.6-.52,2.38-.4,1.18-1.01,2.24-1.91,3.11-.85.82-1.87,1.36-3.01,1.67-.76.21-1.53.25-2.3.23Zm3.59-9.03c-.03-.6-.07-1.2-.1-1.79-.05-.76-.19-1.5-.46-2.22-.2-.53-.48-1.02-.91-1.4-.47-.42-1.04-.63-1.67-.69-.8-.08-1.56.05-2.23.54-.64.47-.98,1.15-1.21,1.88-.33,1.04-.38,2.11-.43,3.19-.02.48.04.95.04,1.43,0,.69.09,1.37.24,2.04.12.54.29,1.06.56,1.55.79,1.41,2.02,1.65,3.32,1.47.81-.11,1.43-.55,1.88-1.22.31-.46.5-.98.63-1.52.27-1.06.32-2.15.34-3.24Z"/><path class="cls-14" d="m141.31,29.77h2.55c0,.13.02.26.02.39,0,2.76,0,5.52,0,8.28,0,.28.02.56.05.84.06.58.36,1,.88,1.26.03.02.06.04.12.09-.07.17-.13.35-.2.52-.09.24-.19.47-.28.71-.21.55-.59.94-1.14,1.17-.06.03-.13.04-.2.04-1.11.13-1.87-.43-2.48-1.26-.2-.27-.24-.28-.44-.03-.64.79-1.43,1.37-2.43,1.65-.17.05-.36.04-.55.04-.42,0-.84.04-1.25-.02-.49-.07-.98-.23-1.41-.47-.9-.51-1.53-1.27-1.95-2.19-.3-.64-.5-1.32-.63-2.03-.2-1.14-.18-2.27-.14-3.41.04-1.19.36-2.3.95-3.34.54-.95,1.25-1.73,2.26-2.19.57-.26,1.15-.42,1.78-.43.27,0,.55,0,.82,0,.72.03,1.35.13,2.52,1.39.13-.22.25-.44.4-.64.17-.22.43-.28.68-.36.03,0,.05,0,.08,0Zm-3.39,2.46c-.68.07-1.14.46-1.46,1.04-.35.63-.49,1.33-.54,2.04-.04.67-.04,1.34-.06,2.01.01.1.03.21.04.31.05.61.15,1.21.4,1.78.24.55.62.97,1.24,1.09.05.01.1.02.15.04.2,0,.39-.01.59-.02.03,0,.06-.01.08-.02.77-.18,1.44-.91,1.56-1.7.02-.09.05-.19.05-.28,0-1.53,0-3.06,0-4.6,0-.09-.03-.19-.05-.28-.18-.78-.84-1.35-1.64-1.42-.12,0-.25,0-.37,0Z"/><path class="cls-6" d="m115.69,29.77h3.59c.03.29-.11.54-.19.8-.42,1.36-.85,2.71-1.28,4.06-.48,1.5-.96,3-1.44,4.5-.47,1.48-.93,2.96-1.41,4.44-.32.98-.83,1.85-1.53,2.63-.98,1.1-2.21,1.74-3.62,2.1-.45.12-.91.23-1.38.24-.05,0-.1,0-.15,0-.53.02-.65-.18-.76-.72-.05-.23-.05-.48-.08-.71-.06-.41-.13-.83-.19-1.27.41-.09.78-.17,1.16-.25,1.05-.22,1.95-.68,2.56-1.6.18-.27.32-.56.5-.88-.13-.02-.22-.04-.31-.04-.66,0-1.07-.28-1.27-.91-.33-1.02-.64-2.04-.95-3.06-.35-1.14-.69-2.27-1.03-3.41-.34-1.13-.69-2.25-1.03-3.37-.22-.74-.45-1.47-.67-2.21-.03-.1-.02-.21-.02-.32,1.29,0,2.53,0,3.76,0,.03.01.06.03.08.04.26.07.37.26.42.5.3,1.37.6,2.75.9,4.12.22,1.01.45,2.01.67,3.02.2.89.39,1.78.58,2.66.01.05.05.1.11.2.12-.5.23-.94.34-1.38.26-1.07.51-2.15.78-3.22.18-.74.37-1.47.55-2.21.15-.6.29-1.2.43-1.8.1-.44.22-.88.31-1.32.06-.31.2-.53.51-.62.03,0,.05,0,.08,0Z"/><path class="cls-13" d="m89.33,29.82c.73.14.93.7,1.05,1.38.11-.08.19-.13.25-.19.51-.56,1.11-.99,1.81-1.3.4-.17.81-.28,1.25-.32.13-.01.26-.06.39-.06.92-.01,1.8.11,2.57.65.69.48,1.08,1.16,1.27,1.95.11.45.17.91.17,1.37.01,3.14,0,6.28,0,9.42,0,.1-.01.19-.02.29-.02.02-.04.03-.07.05-1.09,0-2.18.02-3.27.02-.29,0-.53-.22-.56-.52-.01-.11,0-.22,0-.33,0-2.62,0-5.25,0-7.87,0-.47-.05-.94-.2-1.39-.11-.35-.37-.54-.72-.64-.58-.17-1.07.06-1.51.36-.34.23-.61.54-.85.89-.18.25-.26.51-.25.82,0,2.75,0,5.49,0,8.24,0,.13-.04.25-.06.38-.03.02-.05.03-.08.05-1.09,0-2.18.02-3.27.02-.27,0-.5-.22-.53-.51-.01-.11,0-.22,0-.33,0-4.01,0-8.02,0-12.04,0-.13,0-.26,0-.43.88,0,1.72,0,2.56,0,.03.02.06.03.09.05Z"/><path class="cls-18" d="m147.34,43.07c-.4-.13-.5-.25-.52-.62,0-.1,0-.2,0-.29,0-3.98,0-7.97,0-11.95v-.44c.86,0,1.69,0,2.51,0,.05.02.1.03.15.05.59.15.72.31,1.05,1.41.1-.09.18-.17.26-.25.36-.38.75-.71,1.2-.98.52-.31,1.08-.52,1.69-.62.55-.09,1.08-.1,1.63,0,1,.19,1.79.68,2.32,1.55.34.56.52,1.17.54,1.83.02.1.03.2.05.3,0,.12,0,.24,0,.37,0,3.07,0,6.13,0,9.2,0,.13-.03.26-.05.39-.75,0-1.49-.01-2.24-.01-.34,0-.68.01-1.03.02-.12.02-.24.07-.35-.04-.02-.02-.04-.04-.06-.06-.03-.03-.06-.06-.08-.08-.02-.02-.04-.04-.06-.06,0-.02-.02-.04-.02-.07-.02-.07-.03-.15-.05-.22,0-.61,0-1.23,0-1.84,0-2.23,0-4.47,0-6.7,0-.33-.06-.67-.15-.99-.16-.58-.96-.8-1.4-.69-.63.16-1.11.53-1.5,1.03-.19.24-.42.45-.43.78,0,.03-.02.06-.03.09,0,.13-.02.27-.02.4,0,2.68,0,5.35,0,8.03,0,.13-.01.27-.02.4-1,0-2,0-3,0-.13,0-.26.04-.38.06Z"/><path class="cls-18" d="m131.23,26c-.08.62-.14,1.25-.25,1.87-.06.31-.23.58-.57.7-.05.01-.1.03-.14.04-.76,0-1.51.02-2.27.03-.94,0-1.88,0-2.82.01-.02.02-.05.04-.07.06,0,.65-.01,1.3-.01,1.95,0,.85,0,1.69.01,2.54.13.03.25.07.38.07,1.07,0,2.13,0,3.2,0,.34,0,.69,0,1.03,0,.13,0,.25,0,.27.17-.06.62-.1,1.24-.19,1.85-.07.54-.45.88-1.02.87-1.2-.02-2.4,0-3.59,0-.02.02-.05.04-.07.05,0,.15-.01.29-.01.44,0,1.94,0,3.88-.01,5.82-.02.03-.03.06-.05.08-.05.09-.08.2-.14.28-.13.17-.3.25-.51.19-.16-.01-.31-.03-.47-.03-.97,0-1.94-.01-2.92-.02,0-.1,0-.2,0-.29,0-5.36,0-10.72,0-16.08,0-.11,0-.22,0-.33.02-.07.04-.14.05-.22.03-.21.18-.3.36-.36.03,0,.05,0,.08,0,.1,0,.2-.01.29-.01,3.04,0,6.08,0,9.13,0,.09,0,.18-.01.26,0,.04,0,.06.08.09.12-.02.05-.03.1-.05.15Z"/><path class="cls-21" d="m160.25,32.91c.15-.9.53-1.67,1.25-2.28.64-.55,1.4-.85,2.18-1.09.51-.15,1.06-.22,1.61-.2.26,0,.53,0,.79,0,1.63.06,3.1.55,4.41,1.57-.07.14-.12.27-.2.39-.29.45-.59.9-.89,1.34-.07.1-.17.17-.26.26-.05.02-.11.03-.16.05-.07,0-.14,0-.21,0-.03-.01-.07-.02-.1-.03-.16-.06-.32-.1-.48-.17-.61-.27-1.22-.48-1.9-.53-.35-.03-.7-.07-1.05-.04-.5.04-.87.3-.98.69-.17.57.04.97.64,1.26.51.25,1.06.42,1.59.61.81.28,1.65.5,2.42.9.8.41,1.46.97,1.8,1.84.11.28.2.57.25.87.14.88.03,1.73-.38,2.52-.31.6-.76,1.06-1.31,1.45-.7.5-1.49.77-2.32.96-.82.19-1.64.14-2.46.15-.68,0-1.34-.12-1.98-.31-.86-.26-1.69-.61-2.4-1.18-.19-.15-.37-.31-.57-.47.23-.26.43-.51.64-.74.28-.31.56-.62.84-.92.32-.35.61-.39,1-.13.63.43,1.33.69,2.07.86.11.02.22.01.33.02.05,0,.1.01.15.02.29,0,.59.01.88.02.08-.01.15-.02.23-.03.36-.08.71-.18.97-.49.34-.41.37-1.2-.02-1.54-.26-.22-.6-.36-.92-.47-.75-.27-1.51-.48-2.26-.75-.89-.32-1.73-.73-2.36-1.47-.4-.46-.67-.99-.77-1.6-.02-.13-.05-.25-.08-.38.1-.32.1-.64,0-.96Z"/><path class="cls-13" d="m104.63,24.1v.47c0,4.93,0,9.87,0,14.8,0,.1,0,.2,0,.29,0,.23.08.42.26.54.16.1.31.18.54.1.26-.09.55.11.63.4.22.77.44,1.54.66,2.32-.65.29-1.31.44-2.01.43-.42,0-.84.03-1.25-.02-.49-.06-.95-.24-1.36-.52-.78-.54-1.18-1.3-1.36-2.22-.06-.29-.06-.58-.06-.86,0-4.9,0-9.79,0-14.69,0-.55.13-.7.69-.76.58-.06,1.16-.11,1.74-.16.45-.04.89-.1,1.34-.14.05,0,.1,0,.19.02Z"/><path class="cls-1" d="m129.99,33.45c-.03-.16-.14-.17-.27-.17-.34,0-.69,0-1.03,0-1.07,0-2.13,0-3.2,0-.13,0-.25-.05-.38-.07,1.6,0,3.2,0,4.8,0,.02,0,.05.01.11.03-.01.07-.03.14-.04.21Z"/><path class="cls-19" d="m147.34,43.07c.13-.02.26-.06.38-.06,1,0,2,0,3,0-.07.03-.15.07-.22.08-1.05,0-2.11,0-3.16,0Z"/><path class="cls-19" d="m121,42.99c.97,0,1.94,0,2.92.02.16,0,.31.02.47.03-.11.01-.21.04-.32.04-.92,0-1.83,0-2.75,0-.11,0-.25.07-.32-.08Z"/><path class="cls-19" d="m154.92,43.03c.34,0,.68-.02,1.03-.02.75,0,1.49,0,2.24.01-.07.02-.13.05-.2.05-.96,0-1.93,0-2.89,0-.06,0-.11-.03-.17-.05Z"/><path class="cls-17" d="m160.25,32.91c.1.32.1.64,0,.96,0-.32,0-.64,0-.96Z"/><path class="cls-1" d="m137.64,29.37c-.27,0-.55,0-.82,0,.27-.11.55-.11.82,0Z"/><path class="cls-1" d="m166.08,29.36c-.26,0-.53,0-.79,0,.26,0,.53,0,.79,0Z"/><path class="cls-3" d="m158.23,33.06c-.02-.1-.03-.2-.05-.3.02.1.03.2.05.3Z"/><path class="cls-3" d="m121.06,26.07c-.02.07-.04.14-.05.22.02-.07.04-.14.05-.22Z"/><path class="cls-12" d="m165.69,40.58c-.08.01-.15.02-.23.03.08-.01.15-.02.23-.03Z"/><path class="cls-3" d="m154.29,42.49c.02.07.03.15.05.22-.02-.07-.03-.15-.05-.22Z"/><path class="cls-3" d="m149.49,29.82c-.05-.02-.1-.03-.15-.05.05.02.1.03.15.05Z"/><path class="cls-15" d="m168.99,32.97c.05-.02.11-.03.16-.05-.05.02-.11.03-.16.05Z"/><path class="cls-10" d="m130.27,28.61s.1-.03.14-.04c-.05.01-.1.03-.14.04Z"/><path class="cls-12" d="m164.58,40.59c-.05,0-.1-.01-.15-.02.05,0,.1.01.15.02Z"/><path class="cls-3" d="m131.23,26c.02-.05.03-.1.05-.15-.02.05-.03.1-.05.15Z"/><path class="cls-15" d="m168.69,32.94s.07.02.1.03c-.03-.01-.07-.02-.1-.03Z"/><path class="cls-5" d="m125.11,36.23s.05-.04.07-.05c-.02.02-.05.04-.07.05Z"/><path class="cls-7" d="m150.77,34.17s.02-.06.03-.09c0,.03-.02.06-.03.09Z"/><path class="cls-3" d="m141.31,29.77s-.05,0-.08,0c.03,0,.05,0,.08,0Z"/><path class="cls-3" d="m125.04,42.57s.03-.06.05-.08c-.02.03-.03.06-.05.08Z"/><path class="cls-9" d="m115.69,29.77s-.05,0-.08,0c.03,0,.05,0,.08,0Z"/><path class="cls-3" d="m154.37,42.78s.04.04.06.06c-.02-.02-.04-.04-.06-.06Z"/><path class="cls-3" d="m154.51,42.92s.04.04.06.06c-.02-.02-.04-.04-.06-.06Z"/><path class="cls-17" d="m90.5,43.05s.05-.03.08-.05c-.03.02-.05.03-.08.05Z"/><path class="cls-17" d="m98.01,43.05s.04-.03.07-.05c-.02.02-.04.03-.07.05Z"/><path class="cls-9" d="m110.02,29.82s-.06-.03-.08-.04c.03.02.06.03.08.04Z"/><path class="cls-3" d="m121.5,25.72s-.05,0-.08,0c.03,0,.05,0,.08,0Z"/><path class="cls-20" d="m125.11,28.72s.05-.04.07-.06c-.02.02-.05.04-.07.06Z"/><path class="cls-3" d="m41.67,43.73s0-.04,0-.06c.02.02.05.04.07.06-.03,0-.05,0-.08,0Z"/><path class="cls-9" d="m89.33,29.82s-.06-.03-.09-.05c.03.02.06.03.09.05Z"/><path class="cls-13" d="m44.02,36.01c.03-.05.05-.1.08-.15-.03.05-.05.1-.08.15Z"/><path class="cls-2" d="m139.93,38.81c0-.08-.02-.17-.02-.25,0-1.55,0-3.1,0-4.65,0-.08.01-.17.02-.25.02.09.05.19.05.28,0,1.53,0,3.06,0,4.6,0,.09-.03.19-.05.28Z"/><path class="cls-1" d="m138.29,32.23c-.12,0-.25,0-.37,0,.12,0,.25,0,.37,0Z"/><path class="cls-1" d="m135.87,37.32c.01.1.03.21.04.31-.01-.1-.03-.21-.04-.31Z"/><path class="cls-12" d="m137.55,40.5c.05.01.1.02.15.04-.05-.01-.1-.02-.15-.04Z"/><path class="cls-12" d="m138.29,40.52s.06-.01.08-.02c-.03,0-.06.01-.08.02Z"/><line class="cls-22" x1="189.03" y1="11.64" x2="189.03" y2="56.64"/><path class="cls-13" d="m357.55,42.54v-10.65h3.34c1.27,0,2.09.05,2.48.16.59.16,1.09.51,1.49,1.04.4.54.6,1.23.6,2.07,0,.65-.12,1.2-.34,1.65-.23.45-.52.79-.88,1.05-.35.25-.71.42-1.08.5-.5.1-1.22.15-2.16.15h-1.36v4.02h-2.08Zm2.08-8.84v3.02h1.14c.82,0,1.37-.06,1.65-.17.28-.11.49-.29.65-.52.16-.24.24-.51.24-.83,0-.39-.11-.71-.33-.96-.22-.25-.5-.41-.84-.47-.25-.05-.75-.07-1.5-.07h-1.01Z"/><path class="cls-13" d="m367.17,42.54v-10.65h3.34c1.27,0,2.09.05,2.48.16.59.16,1.09.51,1.49,1.04.4.54.6,1.23.6,2.07,0,.65-.12,1.2-.34,1.65-.23.45-.52.79-.88,1.05-.35.25-.71.42-1.08.5-.5.1-1.22.15-2.16.15h-1.36v4.02h-2.08Zm2.08-8.84v3.02h1.14c.82,0,1.37-.06,1.65-.17.28-.11.49-.29.65-.52.16-.24.24-.51.24-.83,0-.39-.11-.71-.33-.96-.22-.25-.5-.41-.84-.47-.25-.05-.75-.07-1.5-.07h-1.01Z"/><path class="cls-13" d="m379.42,42.54l-3.69-10.65h2.26l2.61,7.88,2.53-7.88h2.21l-3.7,10.65h-2.22Z"/><path class="cls-13" d="m399.55,41.24l-1.2,1.58c-.59-.3-1.15-.7-1.69-1.22-.42.39-.86.67-1.33.86s-1.03.28-1.68.28c-1.29,0-2.25-.37-2.9-1.12-.5-.58-.75-1.24-.75-1.99,0-.68.2-1.3.59-1.84.39-.54.98-1.02,1.77-1.42-.35-.43-.62-.84-.79-1.23-.18-.39-.27-.76-.27-1.11,0-.64.25-1.19.75-1.64.5-.45,1.21-.67,2.14-.67s1.59.23,2.09.7.75,1.04.75,1.72c0,.43-.12.84-.37,1.23-.25.39-.75.83-1.51,1.31l1.44,1.95c.17-.31.31-.71.44-1.21l1.79.42c-.18.65-.33,1.13-.46,1.43-.13.3-.27.56-.42.76.22.21.51.45.86.7.35.25.61.42.77.5Zm-6.16-3.57c-.46.24-.8.52-1.02.86-.23.33-.34.68-.34,1.02,0,.44.14.8.42,1.08s.65.42,1.12.42c.31,0,.61-.06.89-.19s.6-.33.94-.62l-2.01-2.56Zm.77-2.21l.54-.42c.39-.31.59-.63.59-.94,0-.26-.1-.48-.29-.67-.19-.18-.45-.28-.77-.28s-.56.08-.74.24-.27.35-.27.56c0,.25.15.56.45.91l.49.58Z"/><path class="cls-13" d="m404.83,42.54v-10.65h3.34c1.27,0,2.09.05,2.48.16.59.16,1.09.51,1.49,1.04.4.54.6,1.23.6,2.07,0,.65-.12,1.2-.34,1.65-.23.45-.52.79-.88,1.05-.35.25-.71.42-1.08.5-.5.1-1.22.15-2.16.15h-1.36v4.02h-2.08Zm2.08-8.84v3.02h1.14c.82,0,1.37-.06,1.65-.17.28-.11.49-.29.65-.52.16-.24.24-.51.24-.83,0-.39-.11-.71-.33-.96-.22-.25-.5-.41-.84-.47-.25-.05-.75-.07-1.5-.07h-1.01Z"/><path class="cls-13" d="m414.45,42.54v-10.65h3.34c1.27,0,2.09.05,2.48.16.59.16,1.09.51,1.49,1.04.4.54.6,1.23.6,2.07,0,.65-.12,1.2-.34,1.65-.23.45-.52.79-.88,1.05-.35.25-.71.42-1.08.5-.5.1-1.22.15-2.16.15h-1.36v4.02h-2.08Zm2.08-8.84v3.02h1.14c.82,0,1.37-.06,1.65-.17.28-.11.49-.29.65-.52.16-.24.24-.51.24-.83,0-.39-.11-.71-.33-.96-.22-.25-.5-.41-.84-.47-.25-.05-.75-.07-1.5-.07h-1.01Z"/><path class="cls-13" d="m424.04,42.54v-10.65h3.12l1.87,7.26,1.85-7.26h3.13v10.65h-1.94v-8.38l-2.05,8.38h-2.01l-2.04-8.38v8.38h-1.94Z"/></svg>