<?xml version="1.0" encoding="UTF-8"?><svg id="Layer_1" xmlns="http://www.w3.org/2000/svg" viewBox="0 0 460.96 70.6"><defs><style>.cls-1{fill:#5db9e3;}.cls-2{fill:#e6f7fd;}.cls-3{fill:#28a1da;}.cls-4{fill:#00aff0;}.cls-5{letter-spacing:0em;}.cls-5,.cls-6,.cls-7,.cls-8{font-size:33.58px;}.cls-9{fill:#01afef;}.cls-10{fill:#40b9ea;}.cls-11{fill:#40c3f3;}.cls-12{fill:#ab69ff;font-family:MontecatiniPro-StrettoUltra, 'Montecatini Pro';}.cls-13{fill:#6bc8ee;}.cls-14{fill:#bee2f3;}.cls-15{font-size:20.04px;}.cls-16{fill:#02b0ef;}.cls-17{fill:#008ccf;}.cls-18{fill:#018ccf;}.cls-19{fill:#bfe7f8;}.cls-6{letter-spacing:0em;}.cls-20{fill:#018dcf;}.cls-21{letter-spacing:0em;}.cls-22{fill:#40bdee;}.cls-23{fill:#b3def2;}.cls-7{letter-spacing:0em;}.cls-24{fill:#40b4e6;}.cls-25{fill:#40a9db;}.cls-26{letter-spacing:0em;}.cls-27{fill:#028dd0;}.cls-28{fill:#161618;}.cls-29{fill:#f723ab;font-family:AcuminConcept-Bold, 'Acumin Variable Concept';font-size:17.97px;font-variation-settings:'wght' 700, 'wdth' 100, 'slnt' 0;font-weight:700;}</style></defs><path class="cls-28" d="m35.3,68.72c-18.08,0-32.8-14.71-32.8-32.8S17.21,3.13,35.3,3.13h390.37c18.08,0,32.8,14.71,32.8,32.8s-14.71,32.8-32.8,32.8H35.3Z"/><path class="cls-4" d="m425.66,5.63c16.71,0,30.3,13.59,30.3,30.3s-13.59,30.3-30.3,30.3H35.3c-16.71,0-30.3-13.59-30.3-30.3S18.59,5.63,35.3,5.63h390.37m0-5H35.3C15.8.63,0,16.43,0,35.93H0C0,55.42,15.8,71.22,35.3,71.22h390.37c19.49,0,35.3-15.8,35.3-35.3h0c0-19.49-15.8-35.3-35.3-35.3h0Z"/><text class="cls-29" transform="translate(397.14 47.56)"><tspan class="cls-26" x="0" y="0">P</tspan><tspan class="cls-21" x="11.56" y="0">P</tspan><tspan x="23.47" y="0">V</tspan></text><text class="cls-12" transform="translate(179.32 47.06) scale(.96 1)"><tspan class="cls-8" x="0" y="0">HYP</tspan><tspan class="cls-7" x="59.71" y="0">N</tspan><tspan class="cls-8" x="80.7" y="0">O</tspan><tspan class="cls-15" x="107.53" y="0"> </tspan><tspan class="cls-8" x="111.54" y="0">VI</tspan><tspan class="cls-7" x="140.59" y="0">D</tspan><tspan class="cls-6" x="163.42" y="0">E</tspan><tspan class="cls-5" x="179.21" y="0">O</tspan><tspan class="cls-8" x="205.77" y="0">S</tspan></text><path class="cls-18" d="m38.92,29.37c.39-.37.74-.78,1.16-1.09.76-.56,1.66-.81,2.59-.98,1.48-.27,2.97-.26,4.47-.26,1.58,0,3.15,0,4.73,0,.1,0,.21.01.33.02-.18.76-.42,1.47-.77,2.15-.75,1.45-1.83,2.59-3.2,3.48-1.07.7-2.24,1.18-3.47,1.51-.32.09-.65.18-1.02.28.08.05.13.11.19.12.9.22,1.82.22,2.74.19.64-.02,1.28-.11,1.92-.19.12-.02.24-.05.44-.09-.17.51-.3.97-.47,1.42-.45,1.17-1.13,2.2-2.07,3.02-.85.74-1.83,1.29-2.93,1.6-.49.14-.98.32-1.51.32-.17,0-.33.04-.49.09-.07.02-.16.09-.19.16-.5,1.12-1.2,2.09-2.06,2.96-.56.56-1.19,1.01-1.85,1.43-.82.53-1.72.88-2.65,1.13-.76.21-1.55.31-2.35.27-.03-.02-.05-.05-.08-.07.5-1.6,1-3.2,1.5-4.8.32-1.03.65-2.06.97-3.1.04-.12.04-.26.06-.39,0,0,0,0,0,0,.03-.05.06-.11.09-.16.11-.34.22-.68.33-1.03.14-.41.27-.82.41-1.23.48-1.41.98-2.82,1.59-4.18.42-.93.95-1.79,1.56-2.61Z"/><path class="cls-9" d="m38.92,29.37c-.61.82-1.14,1.67-1.56,2.61-.62,1.36-1.11,2.77-1.59,4.18-.14.41-.27.82-.41,1.23,0-.13,0-.26,0-.4,0-1.9-1.68-3.3-3.54-2.94-1.19.23-2.15,1.22-2.35,2.41-.21,1.26.37,2.48,1.45,3.11,1.07.62,2.45.5,3.38-.3.24-.21.43-.46.65-.69-.02.13-.02.26-.06.39-.32,1.03-.65,2.07-.97,3.1-.5,1.6-1,3.2-1.5,4.8,0,.02,0,.05,0,.07-.38,0-.77.04-1.15,0-.51-.07-1-.2-1.5-.32-.67-.16-1.31-.4-1.91-.72-1.45-.77-2.66-1.81-3.61-3.17-.77-1.11-1.3-2.32-1.58-3.63-.21-.93-.23-1.88-.15-2.83.02-.25.06-.51.07-.76.02-.62.24-1.2.42-1.78.15-.47.36-.91.6-1.35.42-.78.86-1.55,1.54-2.16.27-.24.47-.54.75-.76.4-.33.82-.63,1.25-.92.62-.42,1.31-.7,2.02-.95,1.28-.44,2.61-.6,3.96-.5,1.12.08,2.19.35,3.22.8.82.36,1.59.81,2.28,1.38.08.07.21.09.32.13Z"/><path class="cls-9" d="m70.15,46.61c-.44,0-.88.04-1.31-.01-.69-.09-1.36-.27-2.01-.51-.9-.33-1.67-.86-2.35-1.5-.52-.49-.96-1.07-1.29-1.72-.27-.53-.58-1.05-.73-1.63-.13-.48-.27-.96-.38-1.45-.29-1.24-.27-2.5-.24-3.76.03-1.11.17-2.22.52-3.29.28-.86.64-1.67,1.12-2.42.6-.95,1.4-1.7,2.39-2.27.75-.43,1.54-.74,2.37-.88.89-.15,1.79-.24,2.71-.14.84.09,1.66.22,2.46.5,1.75.61,3.03,1.76,3.91,3.37.59,1.07.95,2.21,1.11,3.42.1.76.19,1.52.21,2.28.02.68-.08,1.37-.13,2.05-.07.88-.28,1.73-.56,2.57-.43,1.28-1.09,2.42-2.07,3.36-.92.89-2.01,1.46-3.25,1.8-.82.22-1.65.27-2.49.25Zm3.87-9.75c-.04-.65-.07-1.29-.11-1.94-.05-.82-.21-1.62-.5-2.39-.22-.57-.52-1.1-.99-1.52-.51-.46-1.13-.68-1.8-.74-.87-.08-1.69.06-2.41.59-.69.51-1.05,1.24-1.31,2.03-.36,1.12-.42,2.28-.46,3.44-.02.51.04,1.03.04,1.54,0,.74.1,1.47.26,2.2.13.58.31,1.14.61,1.67.86,1.52,2.18,1.78,3.58,1.58.87-.12,1.55-.59,2.03-1.32.33-.5.54-1.06.68-1.64.29-1.15.35-2.32.37-3.5Z"/><path class="cls-20" d="m139.95,31.85h2.75c0,.14.02.28.02.42,0,2.98,0,5.96,0,8.94,0,.3.03.61.06.91.06.63.39,1.08.95,1.36.03.02.06.05.13.1-.07.18-.14.37-.22.56-.1.26-.2.51-.3.77-.23.6-.64,1.02-1.23,1.26-.07.03-.15.04-.22.05-1.19.14-2.02-.46-2.68-1.36-.22-.29-.26-.31-.47-.03-.69.86-1.55,1.48-2.62,1.78-.19.05-.39.04-.59.04-.45,0-.91.04-1.35-.02-.53-.08-1.05-.24-1.53-.51-.97-.55-1.65-1.37-2.11-2.36-.32-.69-.54-1.43-.68-2.19-.22-1.23-.19-2.46-.15-3.69.05-1.28.39-2.49,1.02-3.6.58-1.02,1.35-1.87,2.44-2.37.61-.28,1.24-.45,1.92-.46.3,0,.59,0,.89,0,.78.03,1.46.14,2.72,1.5.15-.23.27-.47.43-.69.18-.23.47-.3.73-.39.03,0,.06,0,.08,0Zm-3.66,2.66c-.74.08-1.23.5-1.57,1.12-.38.68-.53,1.43-.58,2.2-.04.72-.04,1.45-.06,2.17.01.11.03.22.04.34.06.66.16,1.31.43,1.92.26.6.67,1.04,1.34,1.18.06.01.11.03.17.04.21,0,.42-.01.63-.02.03,0,.06-.01.09-.02.83-.19,1.56-.98,1.68-1.83.02-.1.05-.2.05-.3,0-1.65,0-3.31,0-4.96,0-.1-.04-.2-.05-.3-.2-.84-.91-1.46-1.77-1.53-.13,0-.27,0-.4,0Z"/><path class="cls-16" d="m112.29,31.85h3.88c.03.32-.12.59-.21.86-.45,1.46-.92,2.92-1.38,4.38-.52,1.62-1.04,3.24-1.56,4.86-.51,1.6-1,3.2-1.53,4.79-.35,1.06-.9,2-1.65,2.84-1.06,1.18-2.39,1.88-3.9,2.27-.49.12-.98.24-1.49.26-.05,0-.11,0-.16,0-.57.02-.7-.19-.82-.78-.05-.25-.05-.51-.09-.77-.06-.45-.14-.89-.21-1.37.45-.1.85-.19,1.25-.27,1.13-.24,2.1-.74,2.77-1.72.19-.29.34-.61.54-.95-.14-.02-.24-.04-.33-.04-.71,0-1.15-.3-1.37-.99-.35-1.1-.69-2.2-1.03-3.31-.37-1.23-.74-2.45-1.11-3.68-.37-1.21-.74-2.43-1.11-3.64-.24-.8-.49-1.59-.72-2.39-.03-.11-.02-.23-.03-.35,1.39,0,2.73,0,4.06,0,.03.02.06.03.09.05.28.07.4.28.46.54.33,1.48.64,2.97.97,4.45.24,1.09.49,2.17.73,3.26.21.96.42,1.92.63,2.87.01.06.06.11.12.21.13-.54.25-1.01.36-1.49.28-1.16.56-2.32.84-3.47.19-.8.4-1.59.59-2.39.16-.65.31-1.3.46-1.94.11-.47.23-.95.33-1.42.07-.33.22-.57.55-.67.03,0,.06,0,.08,0Z"/><path class="cls-9" d="m83.84,31.9c.79.15,1.01.75,1.13,1.49.11-.09.2-.14.27-.21.55-.61,1.2-1.07,1.95-1.4.43-.19.88-.3,1.34-.35.14-.01.28-.06.42-.07.99-.02,1.94.12,2.78.7.74.51,1.16,1.25,1.37,2.1.12.48.19.99.19,1.48.02,3.39,0,6.78,0,10.17,0,.11-.02.21-.02.31-.02.02-.05.04-.07.06-1.18,0-2.36.02-3.53.02-.32,0-.57-.24-.6-.56-.01-.12,0-.24,0-.36,0-2.83,0-5.67,0-8.5,0-.51-.06-1.01-.22-1.5-.12-.38-.4-.58-.78-.69-.62-.18-1.15.06-1.63.39-.37.25-.66.59-.92.96-.19.27-.28.55-.28.88,0,2.97,0,5.93,0,8.9,0,.14-.04.27-.06.41-.03.02-.06.04-.08.05-1.18,0-2.36.02-3.53.02-.29,0-.54-.24-.58-.55-.01-.12,0-.24,0-.36,0-4.33,0-8.66,0-12.99,0-.14,0-.28,0-.46.95,0,1.86,0,2.77,0,.03.02.06.03.09.05Z"/><path class="cls-17" d="m146.46,46.2c-.44-.14-.54-.26-.56-.67,0-.11,0-.21,0-.32,0-4.3,0-8.6,0-12.9v-.47c.92,0,1.82,0,2.71,0,.06.02.11.03.17.05.64.16.77.33,1.13,1.52.1-.1.2-.18.28-.27.38-.41.81-.77,1.3-1.05.57-.33,1.17-.56,1.82-.67.59-.09,1.17-.11,1.76,0,1.08.2,1.93.74,2.5,1.67.37.6.56,1.27.58,1.98.02.11.03.22.05.33,0,.13.01.26.01.4,0,3.31,0,6.62,0,9.93,0,.14-.03.28-.05.42-.81,0-1.61-.01-2.42-.02-.37,0-.74.02-1.11.02-.13.02-.26.08-.38-.04-.02-.02-.04-.05-.07-.07-.03-.03-.06-.06-.09-.09-.02-.02-.04-.04-.06-.07,0-.02-.02-.05-.02-.07-.02-.08-.04-.16-.05-.24,0-.66,0-1.32-.01-1.99,0-2.41,0-4.82,0-7.23,0-.36-.07-.72-.16-1.06-.18-.62-1.03-.86-1.51-.75-.68.17-1.19.57-1.62,1.11-.2.26-.46.48-.46.84-.01.03-.02.06-.03.09,0,.14-.02.29-.03.43,0,2.89,0,5.77,0,8.66,0,.15-.01.29-.02.44-1.08,0-2.16,0-3.24,0-.14,0-.28.04-.41.07Z"/><path class="cls-17" d="m129.07,27.78c-.09.67-.15,1.35-.27,2.02-.06.34-.25.63-.61.75-.05.02-.1.03-.16.05-.82,0-1.63.02-2.45.03-1.01,0-2.03,0-3.04.01-.02.02-.05.05-.07.07,0,.7-.02,1.4-.02,2.1,0,.91,0,1.83.01,2.74.14.03.27.08.41.08,1.15,0,2.3,0,3.45,0,.37,0,.74,0,1.11,0,.14,0,.27,0,.3.18-.06.67-.11,1.33-.2,2-.08.58-.48.95-1.1.94-1.29-.02-2.59,0-3.88,0-.03.02-.05.04-.08.06,0,.16-.02.32-.02.48,0,2.09,0,4.18-.01,6.28-.02.03-.03.06-.05.09-.05.1-.08.21-.15.3-.14.19-.32.27-.55.2-.17-.01-.34-.03-.51-.03-1.05,0-2.1-.01-3.15-.02,0-.11,0-.21,0-.32,0-5.78,0-11.57,0-17.35,0-.12,0-.24,0-.36.02-.08.04-.16.06-.23.03-.23.2-.32.39-.38.03,0,.06,0,.09,0,.11,0,.21-.01.32-.02,3.28,0,6.57,0,9.85,0,.09,0,.19-.01.28.01.04.01.07.09.1.13-.02.06-.03.11-.05.17Z"/><path class="cls-27" d="m160.4,35.24c.17-.97.58-1.8,1.34-2.46.69-.59,1.51-.92,2.36-1.17.55-.17,1.15-.24,1.74-.21.28,0,.57,0,.85,0,1.76.06,3.34.6,4.76,1.7-.07.15-.13.29-.21.42-.31.49-.63.97-.96,1.45-.07.11-.18.19-.28.28-.06.02-.11.04-.17.05-.08,0-.15,0-.23,0-.04-.01-.07-.02-.11-.04-.17-.06-.35-.11-.51-.19-.66-.29-1.32-.52-2.05-.57-.38-.03-.75-.07-1.13-.04-.54.04-.93.33-1.06.75-.18.62.04,1.05.69,1.36.55.27,1.14.45,1.72.65.88.31,1.78.54,2.61.97.86.45,1.58,1.05,1.94,1.98.12.3.22.62.27.94.15.95.04,1.86-.41,2.72-.33.64-.82,1.15-1.42,1.57-.76.53-1.61.83-2.5,1.04-.88.21-1.77.15-2.66.17-.73,0-1.44-.13-2.13-.33-.93-.28-1.82-.66-2.59-1.27-.2-.16-.4-.33-.61-.51.24-.28.46-.55.69-.8.3-.33.6-.67.91-1,.35-.37.66-.43,1.08-.14.68.46,1.44.75,2.23.93.11.03.24.02.35.02.05,0,.11.01.16.02.32,0,.63.01.95.02.08-.01.17-.02.25-.04.39-.09.77-.2,1.04-.53.37-.44.4-1.3-.02-1.66-.28-.24-.65-.39-1-.51-.81-.29-1.63-.52-2.44-.81-.96-.34-1.87-.79-2.55-1.59-.43-.5-.72-1.07-.83-1.73-.02-.14-.05-.27-.08-.41.1-.35.1-.69,0-1.04Z"/><path class="cls-9" d="m100.35,25.73v.51c0,5.33,0,10.65,0,15.98,0,.11,0,.21,0,.32,0,.24.08.45.28.58.17.11.34.2.58.11.28-.1.59.12.68.43.24.83.47,1.66.71,2.5-.71.31-1.42.47-2.17.47-.45,0-.9.03-1.35-.02-.53-.06-1.02-.26-1.46-.56-.85-.58-1.27-1.41-1.47-2.39-.06-.32-.06-.62-.06-.93,0-5.29,0-10.57,0-15.86,0-.59.14-.76.74-.82.63-.07,1.25-.11,1.88-.18.48-.05.96-.1,1.44-.16.05,0,.1,0,.2.02Z"/><path class="cls-24" d="m127.73,35.82c-.03-.18-.16-.18-.3-.18-.37,0-.74,0-1.11,0-1.15,0-2.3,0-3.45,0-.14,0-.27-.05-.41-.08,1.73,0,3.46,0,5.19,0,.03,0,.05.01.12.03-.01.07-.03.15-.04.23Z"/><path class="cls-13" d="m146.46,46.2c.14-.02.28-.07.41-.07,1.08,0,2.16,0,3.24,0-.08.03-.16.08-.24.08-1.14,0-2.28,0-3.42,0Z"/><path class="cls-13" d="m118.03,46.12c1.05,0,2.1,0,3.15.02.17,0,.34.02.51.03-.12.01-.23.04-.35.04-.99,0-1.98,0-2.96,0-.12,0-.27.08-.34-.09Z"/><path class="cls-13" d="m154.64,46.16c.37,0,.74-.03,1.11-.02.81,0,1.61,0,2.42.02-.07.02-.15.06-.22.06-1.04,0-2.08,0-3.12,0-.06,0-.12-.03-.18-.05Z"/><path class="cls-22" d="m160.4,35.24c.1.35.1.69,0,1.04,0-.35,0-.69,0-1.04Z"/><path class="cls-24" d="m135.98,31.42c-.3,0-.59,0-.89,0,.3-.12.59-.12.89,0Z"/><path class="cls-24" d="m166.68,31.41c-.28,0-.57,0-.85,0,.28,0,.57,0,.85,0Z"/><path class="cls-25" d="m158.21,35.4c-.02-.11-.03-.22-.05-.33.02.11.03.22.05.33Z"/><path class="cls-25" d="m118.1,27.86c-.02.08-.04.16-.06.23.02-.08.04-.16.06-.23Z"/><path class="cls-23" d="m166.27,43.52c-.08.01-.17.02-.25.04.08-.01.17-.02.25-.04Z"/><path class="cls-25" d="m153.96,45.58c.02.08.04.16.05.24-.02-.08-.04-.16-.05-.24Z"/><path class="cls-25" d="m148.78,31.9c-.06-.02-.11-.03-.17-.05.06.02.11.03.17.05Z"/><path class="cls-1" d="m169.83,35.3c.06-.02.11-.04.17-.05-.06.02-.11.04-.17.05Z"/><path class="cls-3" d="m128.03,30.6c.05-.02.1-.03.16-.05-.05.02-.1.03-.16.05Z"/><path class="cls-23" d="m165.07,43.53c-.05,0-.11-.01-.16-.02.05,0,.11.01.16.02Z"/><path class="cls-25" d="m129.07,27.78c.02-.06.03-.11.05-.17-.02.06-.03.11-.05.17Z"/><path class="cls-1" d="m169.5,35.27s.07.02.11.04c-.04-.01-.07-.02-.11-.04Z"/><path class="cls-19" d="m122.47,38.82s.05-.04.08-.06c-.03.02-.05.04-.08.06Z"/><path class="cls-14" d="m150.16,36.6s.02-.06.03-.09c-.01.03-.02.06-.03.09Z"/><path class="cls-25" d="m139.95,31.85s-.06,0-.08,0c.03,0,.06,0,.08,0Z"/><path class="cls-25" d="m122.39,45.67s.03-.06.05-.09c-.02.03-.03.06-.05.09Z"/><path class="cls-11" d="m112.29,31.85s-.06,0-.08,0c.03,0,.06,0,.08,0Z"/><path class="cls-25" d="m154.04,45.89s.04.05.06.07c-.02-.02-.04-.04-.06-.07Z"/><path class="cls-25" d="m154.2,46.05s.04.05.07.07c-.02-.02-.04-.05-.07-.07Z"/><path class="cls-22" d="m85.1,46.19s.06-.04.08-.05c-.03.02-.06.04-.08.05Z"/><path class="cls-22" d="m93.21,46.19s.05-.04.07-.06c-.02.02-.05.04-.07.06Z"/><path class="cls-11" d="m106.18,31.9s-.06-.03-.09-.05c.03.02.06.03.09.05Z"/><path class="cls-25" d="m118.57,27.48s-.06,0-.09,0c.03,0,.06,0,.09,0Z"/><path class="cls-2" d="m122.47,30.71s.05-.05.07-.07c-.02.02-.05.05-.07.07Z"/><path class="cls-25" d="m32.4,46.92s0-.05,0-.07c.03.02.05.05.08.07-.03,0-.06,0-.08,0Z"/><path class="cls-11" d="m83.84,31.9s-.06-.03-.09-.05c.03.02.06.03.09.05Z"/><path class="cls-9" d="m34.94,38.58c.03-.05.06-.11.09-.16-.03.05-.06.11-.09.16Z"/><path class="cls-10" d="m138.46,41.61c0-.09-.02-.18-.02-.27,0-1.67,0-3.35,0-5.02,0-.09.01-.18.02-.27.02.1.05.2.05.3,0,1.65,0,3.31,0,4.96,0,.1-.04.2-.05.3Z"/><path class="cls-24" d="m136.7,34.51c-.13,0-.27,0-.4,0,.13,0,.27,0,.4,0Z"/><path class="cls-24" d="m134.08,40c.01.11.03.22.04.34-.01-.11-.03-.22-.04-.34Z"/><path class="cls-23" d="m135.89,43.43c.06.01.11.03.17.04-.06-.01-.11-.03-.17-.04Z"/><path class="cls-23" d="m136.69,43.46s.06-.01.09-.02c-.03,0-.06.01-.09.02Z"/></svg>