<?xml version="1.0" encoding="UTF-8"?><svg id="Layer_1" xmlns="http://www.w3.org/2000/svg" viewBox="0 0 460.96 70.6"><defs><style>.cls-1{fill:#fff;}.cls-2{fill:#1da1f2;}</style></defs><rect class="cls-2" x="0" y=".41" width="460.96" height="70.6" rx="35.3" ry="35.3"/><path class="cls-1" d="m157.36,27.45h-6.14v-5.96h19.17v5.96h-6.24v21.55h-6.79v-21.55Zm5.14,20.27v-20.27h-3.53v20.27h3.53Z"/><path class="cls-1" d="m171.76,21.49h7.06l5.55,12.98,3.35-8.62-1.74-4.36h6.97l5.5,12.93,5.04-12.93h7.02l-11.46,28.43h-.92l-6.79-15.86-6.56,15.86h-.87l-12.15-28.43Zm18.66,10.5l-1.74-3.94-3.3,8.39,1.65,3.9,3.39-8.34Zm10.73,8.44l7.15-17.65h-3.53l-5.37,13.57,1.74,4.08Z"/><path class="cls-1" d="m213.17,21.49h6.74v27.51h-6.74v-27.51Zm5.04,26.23v-9.81h-3.35v9.81h3.35Z"/><path class="cls-1" d="m229.17,27.45h-6.14v-5.96h19.17v5.96h-6.24v21.55h-6.79v-21.55Zm5.14,20.27v-20.27h-3.53v20.27h3.53Z"/><path class="cls-1" d="m250.18,27.45h-6.14v-5.96h19.17v5.96h-6.24v21.55h-6.79v-21.55Zm5.14,20.27v-20.27h-3.53v20.27h3.53Z"/><path class="cls-1" d="m266.32,21.49h18.2v5.96h-11.46v4.95h10.59v5.87h-10.59v4.95h11.97v5.78h-18.71v-27.51Zm5.04,23.02v-18.34l-3.35-3.39v24.94l3.35-3.21Z"/><path class="cls-1" d="m288.29,21.49h11.51c5.92,0,9.77,3.58,9.77,8.76,0,4.81-2.43,7.52-6.51,8.53l7.43,10.22h-8.44l-7.02-10.27v10.27h-6.74v-27.51Zm5.04,26.23v-24.94h-3.35v24.94h3.35Zm7.11-14.31c1.51,0,2.52-1.56,2.52-3.16s-1.19-3.03-2.71-3.03h-5.23v6.19h5.41Z"/></svg>