<?xml version="1.0" encoding="UTF-8"?><svg xmlns="http://www.w3.org/2000/svg" viewBox="0 0 460.96 70.6"><defs><style>.cls-1{fill:none;stroke:#eaeaea;stroke-miterlimit:10;stroke-width:3px;}.cls-2{isolation:isolate;}.cls-3{fill:#6441a4;mix-blend-mode:color;}.cls-3,.cls-4,.cls-5,.cls-6{stroke-width:0px;}.cls-4,.cls-5{fill:#fff;}.cls-5{fill-rule:evenodd;}.cls-6{fill:#eaeaea;}</style></defs><g class="cls-2"><g id="Layer_1"><rect class="cls-3" x="0" y="0" width="460.96" height="70.6" rx="35.3" ry="35.3"/><path class="cls-6" d="m241.28,27.93c0-1.56,1.12-2.74,2.42-2.74,1.06,0,1.71.79,1.71,1.28,0,.1-.04.14-.1.14-.1,0-.28-.1-.57-.1-.59,0-1.04.49-1.04,1.2,0,.93.77,1.5,1.65,1.5,1.06,0,1.75-.85,1.75-1.97,0-3.21-5.3-3.76-5.3-7.49,0-1.99,1.58-3.35,3.33-3.35,1.5,0,2.34,1,2.82,1,.14,0,.33-.08.45-.26h.12v3.47h-.1c-.73-.98-1.89-1.85-2.92-1.85-.75,0-1.18.45-1.18,1.02,0,1.99,5.32,3.13,5.32,7.39,0,2.32-1.66,4.39-4.27,4.39-2.31,0-4.1-1.62-4.1-3.62Z"/><path class="cls-6" d="m250.61,30.99c.39-.3.63-.75.63-1.28v-11.5c0-.53-.24-.97-.63-1.28v-.08h3.78v.08c-.39.3-.63.75-.63,1.28v11.5c0,.53.24.97.63,1.28v.08h-3.78v-.08Z"/><path class="cls-6" d="m258.45,30.99c.39-.3.63-.75.63-1.28v-10.52h-2.84c-.51,0-.96.22-1.14.59h-.12l.45-2.92h9.83l.43,2.92h-.1c-.18-.37-.63-.59-1.14-.59h-2.86v10.52c0,.53.24.97.63,1.28v.08h-3.78v-.08Z"/><path class="cls-6" d="m270.09,30.99v.08h-3.78v-.08c.39-.3.63-.75.63-1.28v-11.5c0-.53-.24-.97-.63-1.28v-.08h4.73c3.09,0,5.08,1.48,5.08,4.16,0,1.89-1.16,3.17-3.03,3.68,2.17.87,2.23,5.65,4.49,5.65.2,0,.24.04.24.16,0,.28-.51.81-1.4.81-3.86,0-3.47-6.01-6.03-6.01h-.93v4.41c0,.53.24.97.63,1.28Zm1.1-8.02c1.52,0,2.4-.67,2.4-1.91,0-1.36-.85-1.87-2.4-1.87h-1.73v3.78h1.73Z"/><path class="cls-6" d="m278.69,29.63l2.52-11.33c.12-.53.04-1.04-.55-1.36v-.08h6.32v.08c-.51.3-.69.75-.55,1.36l2.54,11.33c.14.63.47,1.1.87,1.36v.08h-3.78v-.08c.51-.3.69-.75.55-1.36l-.49-2.17h-4.57l-.49,2.17c-.12.51-.06,1.02.53,1.36v.08h-3.76v-.08c.38-.26.71-.71.87-1.36Zm6.91-4.51l-1.34-5.93h-.87l-1.34,5.93h3.55Z"/><path class="cls-6" d="m291.99,17.57c0,1.36-1.62,2.68-2.3,2.94-.26.1-.45-.12-.24-.28.35-.22.91-.73,1.16-1.38-.87.06-1.56-.63-1.56-1.48,0-.79.61-1.44,1.42-1.44.87,0,1.52.69,1.52,1.65Z"/><path class="cls-6" d="m291.99,27.93c0-1.56,1.12-2.74,2.42-2.74,1.06,0,1.71.79,1.71,1.28,0,.1-.04.14-.1.14-.1,0-.28-.1-.57-.1-.59,0-1.04.49-1.04,1.2,0,.93.77,1.5,1.66,1.5,1.06,0,1.75-.85,1.75-1.97,0-3.21-5.3-3.76-5.3-7.49,0-1.99,1.58-3.35,3.33-3.35,1.5,0,2.34,1,2.82,1,.14,0,.33-.08.45-.26h.12v3.47h-.1c-.73-.98-1.89-1.85-2.92-1.85-.75,0-1.18.45-1.18,1.02,0,1.99,5.32,3.13,5.32,7.39,0,2.32-1.65,4.39-4.27,4.39-2.3,0-4.1-1.62-4.1-3.62Z"/><path class="cls-6" d="m305.26,30.99c.39-.3.63-.75.63-1.28v-11.5c0-.53-.24-.97-.63-1.28v-.08h4.61c2.97,0,4.29,1.4,4.29,3.37,0,1.32-.67,2.4-1.67,2.92,1.62.45,2.74,1.83,2.74,3.82,0,2.46-1.71,4.1-4.65,4.1h-5.32v-.08Zm4.45-8.81c1.32,0,1.93-.57,1.93-1.52s-.63-1.46-1.83-1.46h-1.4v2.99h1.3Zm.31,6.56c1.71,0,2.68-.75,2.68-2.13,0-1.46-1.12-2.09-2.66-2.09h-1.63v4.22h1.62Z"/><path class="cls-6" d="m316.31,30.99c.39-.3.63-.75.63-1.28v-11.5c0-.53-.24-.97-.63-1.28v-.08h4.57c2.48,0,7.7.63,7.7,7.09,0,5.46-3.76,7.13-6.72,7.13h-5.55v-.08Zm5.18-2.25c3.07,0,4.55-1.58,4.55-4.79s-1.66-4.75-5.08-4.75h-1.5v9.54h2.03Z"/><path class="cls-6" d="m329.4,29.63l2.52-11.33c.12-.53.04-1.04-.55-1.36v-.08h6.32v.08c-.51.3-.69.75-.55,1.36l2.54,11.33c.14.63.47,1.1.87,1.36v.08h-3.78v-.08c.51-.3.69-.75.55-1.36l-.49-2.17h-4.57l-.49,2.17c-.12.51-.06,1.02.53,1.36v.08h-3.76v-.08c.38-.26.71-.71.87-1.36Zm6.91-4.51l-1.34-5.93h-.87l-1.34,5.93h3.55Z"/><path class="cls-6" d="m343.58,30.99c.41-.3.63-.75.63-1.28v-3.55l-3.78-7.92c-.28-.61-.73-1.08-1.12-1.3v-.08h3.98v.08c-.51.32-.53.71-.26,1.3l2.46,5.18,2.44-5.18c.26-.59.26-.98-.26-1.3v-.08h3.98v.08c-.39.22-.85.69-1.14,1.3l-3.76,7.92v3.55c0,.53.22.97.61,1.28v.08h-3.78v-.08Z"/><path class="cls-6" d="m359.55,30.99v.08h-3.78v-.08c.39-.3.63-.75.63-1.28v-11.5c0-.53-.24-.97-.63-1.28v-.08h4.75c3.09,0,5.08,1.65,5.08,4.31s-1.97,4.37-4.9,4.37h-1.77v4.18c0,.53.24.97.63,1.28Zm1.1-7.8c1.5,0,2.44-.67,2.44-2.01s-.93-1.99-2.44-1.99h-1.73v4h1.73Z"/><path class="cls-6" d="m365.5,29.63l2.52-11.33c.12-.53.04-1.04-.55-1.36v-.08h6.32v.08c-.51.3-.69.75-.55,1.36l2.54,11.33c.14.63.47,1.1.87,1.36v.08h-3.78v-.08c.51-.3.69-.75.55-1.36l-.49-2.17h-4.57l-.49,2.17c-.12.51-.06,1.02.53,1.36v.08h-3.76v-.08c.38-.26.71-.71.87-1.36Zm6.91-4.51l-1.34-5.93h-.87l-1.34,5.93h3.55Z"/><path class="cls-6" d="m381.13,30.99v.08h-3.78v-.08c.39-.3.63-.75.63-1.28v-11.5c0-.53-.24-.97-.63-1.28v-.08h4.73c3.09,0,5.08,1.48,5.08,4.16,0,1.89-1.16,3.17-3.03,3.68,2.17.87,2.23,5.65,4.49,5.65.2,0,.24.04.24.16,0,.28-.51.81-1.4.81-3.86,0-3.47-6.01-6.03-6.01h-.93v4.41c0,.53.24.97.63,1.28Zm1.1-8.02c1.52,0,2.4-.67,2.4-1.91,0-1.36-.85-1.87-2.4-1.87h-1.73v3.78h1.73Z"/><path class="cls-6" d="m391.31,30.99c.39-.3.63-.75.63-1.28v-10.52h-2.84c-.51,0-.97.22-1.14.59h-.12l.45-2.92h9.83l.43,2.92h-.1c-.18-.37-.63-.59-1.14-.59h-2.86v10.52c0,.53.24.97.63,1.28v.08h-3.78v-.08Z"/><path class="cls-6" d="m403.07,30.99c.41-.3.63-.75.63-1.28v-3.55l-3.78-7.92c-.28-.61-.73-1.08-1.12-1.3v-.08h3.98v.08c-.51.32-.53.71-.26,1.3l2.46,5.18,2.44-5.18c.26-.59.26-.98-.26-1.3v-.08h3.98v.08c-.39.22-.85.69-1.14,1.3l-3.76,7.92v3.55c0,.53.22.97.61,1.28v.08h-3.78v-.08Z"/><path class="cls-6" d="m414.83,27.05c0-2.48,1.67-4.24,4.04-4.73-1-.59-1.67-1.65-1.67-2.84,0-1.73,1.4-3.09,3.21-3.09,1.54,0,2.76,1.04,2.76,2.31,0,1.06-.85,1.77-1.6,1.77-.22,0-.28-.06-.26-.12.04-.12.22-.35.22-.77,0-.59-.43-.93-1-.93s-1,.39-1,1.02c0,.79.85,1.58,2.62,2.13t.04.02c.45-1.1,1.46-1.87,2.86-1.87.51,0,.89.1,1.12.18v2.23h-.08c-.1-.1-.32-.28-.69-.28-.49,0-.91.32-1.06.73,1.67,1.1,2.76,2.76,2.76,4.71,0,1.38-.45,2.72-1.04,3.55h-2.88v-.14c.75-.49,1.42-1.75,1.42-3.13,0-2.29-1.62-3.88-3.86-3.88-2.05,0-3.31,1.4-3.31,3.07,0,1.26.73,2.21,1.91,2.21.97,0,1.63-.63,1.63-1.54s-.57-1.4-1.3-1.4c-.43,0-.67.2-.67.08,0-.2.39-1.18,1.79-1.18,1.52,0,2.58,1.14,2.58,2.78,0,2.03-1.63,3.59-4.02,3.59-2.66,0-4.51-1.87-4.51-4.49Z"/><path class="cls-6" d="m234.72,54.06l-3.15-11.46c-.18-.61-.53-1.08-.91-1.3v-.08h3.8v.08c-.57.33-.67.71-.51,1.3l2.76,10.4,2.76-10.4c.16-.59.06-.97-.51-1.3v-.08h3.8v.08c-.38.22-.73.71-.89,1.3l-3.17,11.46c-.14.53-.06.97.51,1.3v.08h-5v-.08c.53-.3.67-.73.51-1.3Z"/><path class="cls-6" d="m243.48,55.36c.41-.3.63-.75.63-1.28v-10.16c0-.81-.12-1.2-.63-1.14v-.16c.93-.28,2.26-1.06,3.05-1.83h.12v13.28c0,.53.22.97.63,1.28v.08h-3.8v-.08Z"/><path class="cls-6" d="m249.08,55.36c.41-.3.63-.75.63-1.28v-10.16c0-.81-.12-1.2-.63-1.14v-.16c.93-.28,2.26-1.06,3.05-1.83h.12v13.28c0,.53.22.97.63,1.28v.08h-3.8v-.08Z"/><path class="cls-6" d="m262.25,55.36v.08h-3.78v-.08c.39-.3.63-.75.63-1.28v-11.5c0-.53-.24-.98-.63-1.28v-.08h4.73c3.09,0,5.08,1.48,5.08,4.16,0,1.89-1.16,3.17-3.03,3.68,2.17.87,2.23,5.65,4.49,5.65.2,0,.24.04.24.16,0,.28-.51.81-1.4.81-3.86,0-3.47-6.01-6.03-6.01h-.93v4.41c0,.53.24.97.63,1.28Zm1.1-8.02c1.52,0,2.4-.67,2.4-1.91,0-1.36-.85-1.87-2.4-1.87h-1.73v3.78h1.73Z"/><path class="cls-6" d="m277.18,49.43c-.3-.37-.73-.59-1.24-.59h-2.52v4.26h4.2c.51,0,.98-.24,1.14-.59h.12l-.45,2.92h-8.16v-.08c.39-.3.63-.75.63-1.28v-11.5c0-.53-.24-.98-.63-1.28v-.08h7.6l.45,2.92h-.12c-.18-.37-.63-.59-1.18-.59h-3.61v2.96h2.52c.51,0,.95-.22,1.24-.59h.08v3.49h-.08Z"/><path class="cls-6" d="m282.83,54.06l-3.15-11.46c-.18-.61-.53-1.08-.91-1.3v-.08h3.8v.08c-.57.33-.67.71-.51,1.3l2.76,10.4,2.76-10.4c.16-.59.06-.97-.51-1.3v-.08h3.8v.08c-.37.22-.73.71-.89,1.3l-3.17,11.46c-.14.53-.06.97.51,1.3v.08h-5v-.08c.53-.3.67-.73.51-1.3Z"/><path class="cls-6" d="m298.37,49.43c-.3-.37-.73-.59-1.24-.59h-2.52v4.26h4.2c.51,0,.98-.24,1.14-.59h.12l-.45,2.92h-8.16v-.08c.39-.3.63-.75.63-1.28v-11.5c0-.53-.24-.98-.63-1.28v-.08h7.6l.45,2.92h-.12c-.18-.37-.63-.59-1.18-.59h-3.61v2.96h2.52c.51,0,.95-.22,1.24-.59h.08v3.49h-.08Z"/><path class="cls-6" d="m301.18,54l2.52-11.33c.12-.53.04-1.04-.55-1.36v-.08h6.32v.08c-.51.3-.69.75-.55,1.36l2.54,11.33c.14.63.47,1.1.87,1.36v.08h-3.78v-.08c.51-.3.69-.75.55-1.36l-.49-2.17h-4.57l-.49,2.17c-.12.51-.06,1.02.53,1.36v.08h-3.76v-.08c.38-.26.71-.71.87-1.36Zm6.91-4.51l-1.34-5.93h-.87l-1.34,5.93h3.55Z"/><path class="cls-6" d="m313.04,55.36c.39-.3.63-.75.63-1.28v-11.5c0-.53-.24-.98-.63-1.28v-.08h3.78v.08c-.39.3-.63.75-.63,1.28v10.52h4.57c.51,0,.96-.24,1.12-.59h.12l-.45,2.92h-8.51v-.08Z"/><path class="cls-6" d="m325.68,48.36c0-4.26,3.25-7.6,7.47-7.6s7.49,3.33,7.49,7.6-3.25,7.55-7.49,7.55-7.47-3.33-7.47-7.55Zm7.47,5.22c2.9,0,4.94-2.15,4.94-5.22s-2.05-5.26-4.94-5.26-4.95,2.19-4.95,5.26,2.07,5.22,4.95,5.22Z"/><path class="cls-6" d="m341.75,55.36c.39-.3.63-.75.63-1.28v-11.5c0-.53-.24-.98-.63-1.28v-.08h3.78v.08c-.39.3-.63.75-.63,1.28,0,2.78,3.61,4.45,4.51,6.78v-6.78c0-.53-.22-.98-.61-1.28v-.08h3.78v.08c-.41.3-.63.75-.63,1.28v11.5c0,.53.22.97.63,1.28v.08h-3.78v-.08c.39-.3.61-.75.61-1.28,0-2.9-3.66-4.61-4.51-6.89v6.89c0,.53.24.97.63,1.28v.08h-3.78v-.08Z"/><path class="cls-6" d="m358.03,55.36c.39-.3.63-.75.63-1.28v-11.5c0-.53-.24-.98-.63-1.28v-.08h3.94v.08c-.39.22-.63.65-.26,1.16l2.6,3.62,2.6-3.62c.37-.51.14-.93-.26-1.16v-.08h3.94v.08c-.39.3-.63.75-.63,1.28v11.5c0,.53.24.97.63,1.28v.08h-3.78v-.08c.39-.3.63-.75.63-1.28v-8.06l-3.09,4.27h-.08l-3.09-4.27v8.06c0,.53.24.97.63,1.28v.08h-3.78v-.08Z"/><path class="cls-6" d="m372.17,54l2.52-11.33c.12-.53.04-1.04-.55-1.36v-.08h6.32v.08c-.51.3-.69.75-.55,1.36l2.54,11.33c.14.63.47,1.1.87,1.36v.08h-3.78v-.08c.51-.3.69-.75.55-1.36l-.49-2.17h-4.57l-.49,2.17c-.12.51-.06,1.02.53,1.36v.08h-3.76v-.08c.38-.26.71-.71.87-1.36Zm6.91-4.51l-1.34-5.93h-.87l-1.34,5.93h3.55Z"/><path class="cls-6" d="m386.35,55.36c.41-.3.63-.75.63-1.28v-3.55l-3.78-7.92c-.28-.61-.73-1.08-1.12-1.3v-.08h3.98v.08c-.51.33-.53.71-.26,1.3l2.46,5.18,2.44-5.18c.26-.59.26-.97-.26-1.3v-.08h3.98v.08c-.39.22-.85.69-1.14,1.3l-3.76,7.92v3.55c0,.53.22.97.61,1.28v.08h-3.78v-.08Z"/><path class="cls-6" d="m407.88,55.36v.08h-3.78v-.08c.39-.3.63-.75.63-1.28v-2.38h-6.8l-.06-.06c1.56-2.54,3.13-5.63,3.13-8.1,0-1.24-.47-2.09-1.14-2.38-.45-.18-.16-.41.35-.41,1.32,0,3.07,1.26,3.07,3.68,0,1.42-.61,3.29-1.48,4.96h2.92v-6.62c0-.65-.16-1.06-.63-1.22v-.12l3.15-.61v8.57h1.14c.53,0,.98-.24,1.16-.61h.12l-.43,2.92h-1.99v2.38c0,.53.24.97.63,1.28Z"/><path class="cls-6" d="m412.76,55.36c.39-.3.63-.75.63-1.28v-10.52h-2.84c-.51,0-.97.22-1.14.59h-.12l.45-2.92h9.83l.43,2.92h-.1c-.18-.37-.63-.59-1.14-.59h-2.86v10.52c0,.53.24.97.63,1.28v.08h-3.78v-.08Z"/><path class="cls-6" d="m427.59,55.36c.39-.3.63-.75.63-1.28v-4.39h-4.45v4.39c0,.53.24.97.63,1.28v.08h-3.78v-.08c.39-.3.63-.75.63-1.28v-11.5c0-.53-.24-.98-.63-1.28v-.08h3.78v.08c-.39.3-.63.75-.63,1.28v4.77h4.45v-4.77c0-.53-.24-.98-.63-1.28v-.08h3.78v.08c-.39.3-.63.75-.63,1.28v11.5c0,.53.24.97.63,1.28v.08h-3.78v-.08Z"/><path class="cls-6" d="m434.58,52.66c.83,0,1.46.67,1.46,1.5s-.63,1.5-1.46,1.5-1.46-.65-1.46-1.5.65-1.5,1.46-1.5Zm-.22-1.26c-.47-1.06-1.08-3.84-1.08-7.07v-2.23c0-.79.53-1.34,1.28-1.34s1.3.55,1.3,1.34v2.23c0,3.23-.63,6.01-1.08,7.07-.12.22-.16.29-.22.29-.04,0-.1-.06-.2-.29Z"/><line class="cls-1" x1="218.53" y1="14.27" x2="218.53" y2="59.27"/><path id="LOGO" class="cls-5" d="m19.45,23.46l-1.17,3.82.03,17.62h4.38v4.7l2.35-2.35,2.35-2.35h4.11l7.63-7.63v-13.8h-19.67Zm17.62,12.63l-3.23,3.23h-5.29l-2.94,2.94v-2.94h-4.4v-13.8h15.86v10.57Zm-3.23-.88h-2.06v-5.87h2.06v5.87Zm-5.29,0h-2.06v-5.87h2.06v5.87Z"/><path class="cls-6" d="m99.75,23.19c2.54,0,5.07,0,7.61,0,0,.06,0,.12,0,.19,0,.67,0,1.35,0,2.02,0,.39.01.79.02,1.18,0,.2,0,.2.22.21.16,0,.32.01.48.01,1.19,0,2.38,0,3.56,0,.09,0,.17,0,.25.08,1.16,1.17,2.32,2.33,3.49,3.49,0,.12,0,.24,0,.36,0,3.82,0,7.64,0,11.46,0,.08,0,.16,0,.24-.04.03-.08.06-.12.09-1.42.95-2.85,1.9-4.27,2.85-.53.35-1.05.71-1.58,1.06-.17,0-.34,0-.51,0-1.17,0-2.33,0-3.5,0-.03-.06-.02-.12-.02-.19,0-.51-.01-1.01-.02-1.52,0-.07.02-.15-.04-.21-.05,0-.08.03-.11.06-.89.6-1.76,1.23-2.62,1.85-1.21,0-2.42,0-3.63,0,0-.07,0-.14,0-.2,0-.47,0-.95,0-1.42,0-.09-.01-.18-.02-.26-.07,0-.09.03-.12.06-.09.08-.18.17-.27.26-.53.53-1.06,1.05-1.59,1.58-.07,0-.15,0-.22,0-1.99,0-3.99,0-5.98,0-.08,0-.16,0-.24,0-.64-.64-1.27-1.29-1.95-1.92-.08.21-.11.41-.15.6-.09.44-.18.88-.28,1.32-1.87,0-3.75,0-5.62,0-.64-.64-1.27-1.29-1.94-1.91-.02.03-.04.04-.04.06-.03.61,0,1.23-.02,1.85-.06,0-.11,0-.17,0-1.7,0-3.4,0-5.11,0-.07,0-.14,0-.2,0q-.15-.01-.18-.16c-.11-.53-.22-1.07-.33-1.6-.01-.05-.02-.11-.06-.17-.67.63-1.31,1.29-1.96,1.94-3.44,0-6.88,0-10.32,0-.05,0-.09,0-.14,0-.6-.25-1.22-.49-1.83-.73-.13-.05-.15-.04-.15.1,0,.21,0,.41-.01.62-.08,0-.16,0-.24,0-1.67,0-3.34,0-5,0-.04-.03-.09-.06-.13-.08-1.9-1.14-3.8-2.28-5.7-3.41-.1-.06-.2-.14-.28-.22-1.12-1.12-2.24-2.24-3.37-3.36-.05-.05-.08-.12-.16-.12v-16.06h7.68c.02.06.08.1.12.14,1.11,1.11,2.22,2.22,3.33,3.33.11.11.22.15.37.15,4.27,0,8.53,0,12.8,0,1.05,0,2.1-.01,3.15-.02.24,0,.24,0,.24-.24.03-1.05.02-2.1.02-3.15,0-.07-.01-.14.01-.2,4.54,0,9.07,0,13.61,0,0,.06.01.11.01.17,0,1.07.01,2.13.02,3.2,0,.05,0,.09,0,.14,0,.06.02.1.09.09.03,0,.06,0,.09,0,1.07.01,2.14.02,3.2.03.03,0,.07,0,.1,0,.07,0,.11.02.1.09,0,.04,0,.08,0,.12,0,.49.01.98.02,1.47,0,.06,0,.12.02.18.07,0,.1-.06.14-.1.56-.55,1.12-1.11,1.68-1.66.09-.09.18-.12.3-.12,1.22,0,2.44,0,3.67,0,.13,0,.22-.03.31-.13,1.12-1.12,2.24-2.24,3.37-3.37.04-.04.09-.07.11-.13Zm-36.47,18.05c2.21,0,4.42,0,6.63,0,.13,0,.21-.04.3-.13.85-.85,1.69-1.7,2.54-2.54.1-.1.14-.19.14-.33,0-3.2-.01-6.4-.02-9.61,0-.04,0-.08,0-.12,0-.07-.03-.09-.09-.09-.03,0-.06,0-.09,0-1.34,0-2.67-.01-4.01-.02-.23,0-.21-.03-.21.21,0,2.44-.01,4.89-.02,7.33,0,.22,0,.43,0,.65,0,.22.03.21-.2.21-.37,0-.74,0-1.11,0-.06,0-.11,0-.17,0-.06,0-.08-.03-.08-.08,0-.05,0-.09,0-.14,0-.63,0-1.27,0-1.9,0-2.03-.01-4.05-.02-6.08,0-.18,0-.18-.18-.18-1.34,0-2.69-.01-4.03-.02-.21,0-.2-.01-.2.19,0,.43,0,.86,0,1.28,0,2.24,0,4.49,0,6.73,0,.19,0,.19-.2.19-.39,0-.78,0-1.17,0-.24,0-.21.01-.21-.22-.01-2.65-.02-5.31-.03-7.96,0-.04,0-.08,0-.12,0-.06-.03-.08-.08-.08-.03,0-.06,0-.09,0-1.34,0-2.69-.01-4.03-.02-.21,0-.2-.02-.2.21,0,4.14,0,8.28,0,12.42,0,.24,0,.21.21.21,2.21,0,4.42,0,6.63,0Zm38.09-8.24h0c0,2.63,0,5.25,0,7.88,0,.07,0,.15,0,.22,0,.09.04.12.12.12.16,0,.32.02.48.02,1.19,0,2.38,0,3.57,0,.27,0,.24.04.24-.25,0-2.65,0-5.31.01-7.96,0-.19-.02-.19.19-.19.01,0,.02,0,.03,0,1.05,0,2.1,0,3.15,0,.25,0,.22-.01.22.22.01,2.63.02,5.26.03,7.89,0,.05,0,.09,0,.14,0,.08.02.13.11.12.03,0,.06,0,.09,0,1.33,0,2.66,0,3.99,0,.03,0,.07,0,.1,0,.07,0,.09-.03.09-.09,0-.03,0-.07,0-.1,0-3.22,0-6.44.02-9.66,0-.11-.03-.19-.11-.27-.79-.79-1.58-1.58-2.38-2.37-.1-.1-.19-.25-.32-.3-.13-.05-.29-.02-.44-.02-1.49,0-2.98,0-4.47-.01-.33,0-.29-.01-.3-.29-.01-1.02-.02-2.04-.03-3.07,0-.05,0-.09,0-.14,0-.07-.03-.09-.09-.09-.04,0-.08,0-.12,0-1.32,0-2.64,0-3.96,0-.24,0-.22-.03-.22.22,0,2.65,0,5.31,0,7.96Zm-20.84-1.36h-.01c0,2.21,0,4.43,0,6.64,0,.09,0,.17.08.25.88.87,1.76,1.75,2.63,2.63.06.06.12.09.21.09.39,0,.79,0,1.18,0,1.24,0,2.48,0,3.72,0,.17,0,.17,0,.17-.17,0-.01,0-.02,0-.03,0-1.34,0-2.68,0-4.02,0-.03,0-.07,0-.1,0-.07-.03-.09-.09-.09-.05,0-.1,0-.15,0-1.05,0-2.1-.01-3.15-.02-.17,0-.17,0-.17-.17,0-.01,0-.02,0-.03,0-1.18,0-2.36,0-3.55,0-.04,0-.08,0-.12,0-.06.02-.1.09-.1.03,0,.07,0,.1,0,1.05,0,2.09-.01,3.14-.02.05,0,.1,0,.15,0,.07,0,.09-.03.09-.09,0-.03,0-.07,0-.1,0-1.34,0-2.68,0-4.02,0-.03,0-.07,0-.1,0-.06-.03-.09-.09-.09-.06,0-.11,0-.17,0-1.05,0-2.09,0-3.14-.01-.17,0-.17,0-.17-.17,0-.02,0-.03,0-.05-.01-1.06-.02-2.12-.03-3.19,0-.2,0-.18-.19-.18-1.33,0-2.65,0-3.98,0-.25,0-.22-.03-.22.22,0,2.2,0,4.41,0,6.61Zm-33.71-.02h-.02c0,2.21,0,4.43,0,6.64,0,.12.04.21.12.3.86.85,1.71,1.7,2.56,2.56.09.09.17.13.3.13,1.37-.01,2.74-.01,4.11-.02.27,0,.55,0,.82,0,.08,0,.12-.03.11-.11,0-.03,0-.07,0-.1,0-1.32,0-2.64,0-3.96,0-.24.02-.22-.23-.22-1.06,0-2.13-.02-3.19-.03-.19,0-.17,0-.17-.17,0-.01,0-.02,0-.03,0-1.19,0-2.37,0-3.56,0-.22-.03-.2.2-.2.01,0,.02,0,.03,0,1.04,0,2.08-.02,3.12-.03.24,0,.23.03.23-.22,0-1.32,0-2.64,0-3.96,0-.04,0-.08,0-.12,0-.06-.02-.1-.09-.09-.05,0-.09,0-.14,0-1.06,0-2.11-.02-3.17-.03-.19,0-.18.02-.18-.19-.01-1.07-.02-2.15-.03-3.22,0-.2.01-.18-.19-.18-1.33,0-2.65,0-3.98,0-.25,0-.22-.03-.22.22,0,2.2,0,4.39,0,6.59Zm43.34,3.19c0,1.16,0,2.33,0,3.49,0,.12.03.2.12.28.85.84,1.69,1.68,2.53,2.53.09.09.18.12.3.12,2.15,0,4.3,0,6.44,0,.04,0,.08,0,.12,0,.07,0,.09-.03.09-.09,0-.05,0-.09,0-.14,0-1.32,0-2.64,0-3.96,0-.26.03-.23-.22-.23-1.47,0-2.94,0-4.41,0-.15,0-.3,0-.44-.02-.13,0-.13-.01-.13-.15,0-.03,0-.07,0-.1,0-1.15,0-2.31,0-3.46,0-.04,0-.08,0-.12,0-.09.04-.12.12-.12.26,0,.53-.02.79-.02,1.36,0,2.72,0,4.08,0,.05,0,.09,0,.14,0,.06,0,.08-.03.08-.08,0-.03,0-.06,0-.09,0-1.36,0-2.72,0-4.08,0-.17,0-.17-.17-.17-.01,0-.02,0-.03,0-2.15,0-4.31,0-6.46,0-.12,0-.2.03-.28.12-.85.85-1.69,1.7-2.55,2.54-.08.08-.11.16-.11.27,0,1.16,0,2.32,0,3.48Zm-15.66.01c0,2.07,0,4.14,0,6.22,0,.22-.02.2.21.2,1.33,0,2.66-.01,3.99-.02.23,0,.21.01.21-.22,0-4.12,0-8.24,0-12.36,0-.04,0-.08,0-.12,0-.06-.02-.1-.09-.09-.03,0-.07,0-.1,0-1.33,0-2.66-.01-3.99-.02-.25,0-.22-.02-.22.22,0,2.07,0,4.13,0,6.2Zm2.22-10.02c-.69,0-1.37,0-2.06,0-.13,0-.14,0-.14.13,0,.54-.01,1.07-.01,1.61,0,.27-.01.24.24.25,1.34.02,2.67,0,4.01,0,.15,0,.15,0,.15-.15,0-.56,0-1.12,0-1.68,0-.02,0-.05,0-.07,0-.06-.03-.08-.08-.08-.04,0-.08,0-.12,0-.66,0-1.33,0-1.99,0Z"/><path class="cls-4" d="m132.75,28.48l-3.97,16.25h-2.95l3.92-15.8h-3.25v2.46h-2.79v-5.19h9.05v2.28Z"/><path class="cls-4" d="m135.58,26.2h2.83v18.53h-2.83v-18.53Zm1.4,8.55h4.51c.38,0,.71-.09,1-.27s.51-.44.66-.78.23-.74.23-1.19v-1.25c0-.47-.07-.87-.22-1.22-.15-.34-.37-.61-.66-.79-.29-.18-.63-.27-1.01-.27h-4.51v-2.79h4.47c.99,0,1.84.2,2.56.59.72.4,1.28.97,1.67,1.71s.59,1.62.59,2.62v1.53c0,.99-.2,1.86-.59,2.6s-.96,1.3-1.68,1.7-1.58.59-2.56.59h-4.47v-2.79Z"/><path class="cls-4" d="m159.43,26.2h2.94v18.53h-2.62v-13.8l.17.82-3.39,10.25h-1.95l-3.39-9.99.2-1.07v13.8h-2.65v-18.53h2.98l3.83,11.6,3.87-11.6Z"/><path class="cls-4" d="m171.57,26.2h2.83v18.53h-2.83v-18.53Zm1.4,8.55h4.51c.38,0,.71-.09,1-.27s.51-.44.66-.78.23-.74.23-1.19v-1.25c0-.47-.07-.87-.22-1.22-.15-.34-.37-.61-.66-.79-.29-.18-.63-.27-1.01-.27h-4.51v-2.79h4.47c.99,0,1.84.2,2.56.59.72.4,1.28.97,1.67,1.71s.59,1.62.59,2.62v1.53c0,.99-.2,1.86-.59,2.6s-.96,1.3-1.68,1.7-1.58.59-2.56.59h-4.47v-2.79Z"/><path class="cls-4" d="m187.02,44.46c-.75-.31-1.38-.76-1.87-1.36-.49-.6-.84-1.34-1.05-2.21l2.68-1.21c.23.8.6,1.4,1.09,1.81.5.41,1.12.61,1.86.61.83,0,1.48-.19,1.94-.56s.69-.9.69-1.59v-.82c0-.48-.12-.88-.36-1.2-.24-.31-.57-.56-.97-.73-.4-.17-.94-.36-1.59-.56-.02,0-.03-.02-.04-.03-.01,0-.03-.02-.04-.03l-.15-.04c-.99-.28-1.79-.58-2.42-.89s-1.15-.81-1.59-1.47c-.44-.67-.66-1.57-.66-2.7v-.51c0-1.05.21-1.95.64-2.7s1.05-1.31,1.86-1.7c.81-.39,1.79-.58,2.94-.58.87,0,1.63.14,2.31.43.67.29,1.23.72,1.67,1.3.45.58.78,1.29,1,2.13l-2.56,1.22c-.24-.75-.57-1.31-1-1.7-.43-.38-.93-.57-1.51-.57-.82,0-1.44.18-1.88.54-.44.36-.66.86-.66,1.52v.59c0,.51.13.93.4,1.25.26.32.6.57.99.75.4.18.95.37,1.65.59.04,0,.08.02.12.03.04.01.08.03.12.06.04,0,.08.02.11.02.03,0,.07.01.1.02.92.3,1.67.61,2.26.92.58.32,1.08.8,1.48,1.45.41.65.61,1.5.61,2.56v.83c0,1.05-.22,1.95-.65,2.7-.44.75-1.07,1.31-1.9,1.7s-1.83.58-3.01.58c-.99,0-1.86-.15-2.61-.46Z"/><path class="cls-4" d="m196.13,26.2h10.9v2.79h-10.9v-2.79Zm4.04,1.53h2.81v17h-2.81v-17Z"/></g></g></svg>