<?xml version="1.0" encoding="UTF-8"?><svg xmlns="http://www.w3.org/2000/svg" viewBox="0 0 460.96 70.6"><defs><style>.cls-1{fill:none;stroke:#eaeaea;stroke-miterlimit:10;stroke-width:2px;}.cls-2{isolation:isolate;}.cls-3{fill:#6441a4;mix-blend-mode:color;}.cls-3,.cls-4,.cls-5,.cls-6{stroke-width:0px;}.cls-4,.cls-5{fill:#fff;}.cls-5{fill-rule:evenodd;}.cls-6{fill:#eaeaea;}</style></defs><g class="cls-2"><g id="Layer_1"><rect class="cls-3" x="0" y="0" width="460.96" height="70.6" rx="35.3" ry="35.3"/><path class="cls-6" d="m215.44,25.72c-.34-.42-.84-.67-1.42-.67h-2.89v4.89h4.81c.59,0,1.13-.28,1.31-.67h.14l-.52,3.35h-9.35v-.09c.45-.35.72-.86.72-1.47v-13.18c0-.61-.27-1.12-.72-1.47v-.09h8.72l.52,3.35h-.14c-.2-.42-.72-.68-1.36-.68h-4.13v3.4h2.89c.59,0,1.08-.26,1.42-.68h.09v4h-.09Z"/><path class="cls-6" d="m221.92,31.03l-3.61-13.13c-.2-.7-.61-1.23-1.04-1.49v-.09h4.36v.09c-.65.37-.77.81-.59,1.49l3.16,11.92,3.16-11.92c.18-.68.07-1.12-.59-1.49v-.09h4.36v.09c-.43.26-.84.81-1.02,1.49l-3.64,13.13c-.16.61-.07,1.12.59,1.49v.09h-5.74v-.09c.61-.35.77-.84.59-1.49Z"/><path class="cls-6" d="m239.74,25.72c-.34-.42-.84-.67-1.42-.67h-2.89v4.89h4.81c.59,0,1.13-.28,1.31-.67h.14l-.52,3.35h-9.35v-.09c.45-.35.72-.86.72-1.47v-13.18c0-.61-.27-1.12-.72-1.47v-.09h8.72l.52,3.35h-.14c-.2-.42-.72-.68-1.35-.68h-4.13v3.4h2.89c.59,0,1.08-.26,1.42-.68h.09v4h-.09Z"/><path class="cls-6" d="m246.99,32.52v.09h-4.34v-.09c.45-.35.72-.86.72-1.47v-13.18c0-.61-.27-1.12-.72-1.47v-.09h5.42c3.54,0,5.83,1.7,5.83,4.77,0,2.17-1.33,3.63-3.48,4.21,2.48,1,2.55,6.47,5.15,6.47.23,0,.27.05.27.19,0,.33-.59.93-1.6.93-4.43,0-3.97-6.89-6.91-6.89h-1.06v5.05c0,.61.27,1.12.72,1.47Zm1.26-9.2c1.74,0,2.75-.77,2.75-2.19,0-1.56-.97-2.14-2.75-2.14h-1.99v4.33h1.99Z"/><path class="cls-6" d="m259.2,32.52c.47-.35.72-.86.72-1.47v-4.07l-4.34-9.08c-.32-.7-.84-1.23-1.29-1.49v-.09h4.56v.09c-.59.37-.61.81-.29,1.49l2.82,5.94,2.8-5.94c.29-.68.29-1.12-.29-1.49v-.09h4.56v.09c-.45.26-.97.79-1.31,1.49l-4.31,9.08v4.07c0,.61.25,1.12.7,1.47v.09h-4.34v-.09Z"/><path class="cls-6" d="m273.18,32.52c.45-.35.72-.86.72-1.47v-13.18c0-.61-.27-1.12-.72-1.47v-.09h4.52v.09c-.45.26-.72.75-.29,1.33l2.98,4.14,2.98-4.14c.43-.58.16-1.07-.29-1.33v-.09h4.52v.09c-.45.35-.72.86-.72,1.47v13.18c0,.61.27,1.12.72,1.47v.09h-4.34v-.09c.45-.35.72-.86.72-1.47v-9.24l-3.55,4.89h-.09l-3.54-4.89v9.24c0,.61.27,1.12.72,1.47v.09h-4.34v-.09Z"/><path class="cls-6" d="m288.88,24.49c0-4.89,3.73-8.71,8.56-8.71s8.58,3.82,8.58,8.71-3.73,8.66-8.58,8.66-8.56-3.82-8.56-8.66Zm8.56,5.98c3.32,0,5.67-2.47,5.67-5.98s-2.35-6.03-5.67-6.03-5.67,2.51-5.67,6.03,2.37,5.98,5.67,5.98Z"/><path class="cls-6" d="m307.31,32.52c.45-.35.72-.86.72-1.47v-13.18c0-.61-.27-1.12-.72-1.47v-.09h4.34v.09c-.45.35-.72.86-.72,1.47,0,3.19,4.13,5.1,5.17,7.78v-7.78c0-.61-.25-1.12-.7-1.47v-.09h4.34v.09c-.47.35-.72.86-.72,1.47v13.18c0,.61.25,1.12.72,1.47v.09h-4.34v-.09c.45-.35.7-.86.7-1.47,0-3.33-4.2-5.29-5.17-7.89v7.89c0,.61.27,1.12.72,1.47v.09h-4.34v-.09Z"/><path class="cls-6" d="m324,31.52c0,1.82-1.65,3.61-2.35,3.98-.29.14-.5-.09-.27-.35.36-.35.93-1.21,1.11-2.35-1.04.07-1.85-.72-1.85-1.7s.7-1.68,1.63-1.68c.99,0,1.74.88,1.74,2.1Z"/><path class="cls-6" d="m331.74,32.52c.45-.35.72-.86.72-1.47v-12.06h-3.25c-.59,0-1.11.26-1.31.68h-.14l.52-3.35h11.27l.5,3.35h-.11c-.2-.42-.72-.68-1.31-.68h-3.27v12.06c0,.61.27,1.12.72,1.47v.09h-4.34v-.09Z"/><path class="cls-6" d="m341.48,26.72v-8.85c0-.61-.27-1.12-.72-1.47v-.09h4.38v.09c-.45.35-.7.86-.7,1.47v8.85c0,2.47.9,3.7,2.76,3.7s2.75-1.23,2.75-3.7v-8.85c0-.61-.27-1.12-.72-1.47v-.09h4.38v.09c-.45.35-.7.86-.7,1.47v8.85c0,4.1-2.01,6.43-5.71,6.43s-5.71-2.33-5.71-6.43Z"/><path class="cls-6" d="m363.29,25.72c-.34-.42-.84-.67-1.42-.67h-2.89v4.89h4.81c.59,0,1.13-.28,1.31-.67h.13l-.52,3.35h-9.35v-.09c.45-.35.72-.86.72-1.47v-13.18c0-.61-.27-1.12-.72-1.47v-.09h8.72l.52,3.35h-.14c-.2-.42-.72-.68-1.35-.68h-4.13v3.4h2.89c.59,0,1.08-.26,1.42-.68h.09v4h-.09Z"/><path class="cls-6" d="m370.23,28c0-2.84,1.92-4.87,4.63-5.43-1.15-.67-1.92-1.89-1.92-3.26,0-1.98,1.6-3.54,3.68-3.54,1.76,0,3.16,1.19,3.16,2.65,0,1.21-.97,2.03-1.83,2.03-.25,0-.32-.07-.29-.14.05-.14.25-.4.25-.88,0-.68-.5-1.07-1.15-1.07s-1.15.44-1.15,1.16c0,.91.97,1.82,3,2.44t.05.02c.52-1.26,1.67-2.14,3.27-2.14.59,0,1.02.12,1.29.21v2.56h-.09c-.11-.12-.36-.33-.79-.33-.56,0-1.04.37-1.22.84,1.92,1.26,3.16,3.17,3.16,5.4,0,1.58-.52,3.12-1.2,4.08h-3.3v-.16c.86-.56,1.63-2,1.63-3.59,0-2.63-1.85-4.45-4.43-4.45-2.35,0-3.79,1.61-3.79,3.52,0,1.44.84,2.54,2.19,2.54,1.11,0,1.87-.72,1.87-1.77s-.66-1.61-1.49-1.61c-.5,0-.77.23-.77.09,0-.23.45-1.35,2.06-1.35,1.74,0,2.96,1.3,2.96,3.19,0,2.33-1.87,4.12-4.61,4.12-3.05,0-5.17-2.14-5.17-5.15Z"/><path class="cls-6" d="m389.04,29c0-1.79,1.29-3.14,2.78-3.14,1.22,0,1.96.91,1.96,1.47,0,.12-.05.16-.11.16-.11,0-.32-.12-.66-.12-.68,0-1.2.56-1.2,1.37,0,1.07.88,1.72,1.9,1.72,1.22,0,2.01-.98,2.01-2.26,0-3.68-6.07-4.31-6.07-8.59,0-2.28,1.81-3.84,3.82-3.84,1.72,0,2.69,1.14,3.23,1.14.16,0,.38-.09.52-.3h.14v3.98h-.11c-.84-1.12-2.17-2.12-3.34-2.12-.86,0-1.35.51-1.35,1.16,0,2.28,6.1,3.59,6.1,8.48,0,2.65-1.9,5.03-4.9,5.03-2.64,0-4.7-1.86-4.7-4.14Z"/><path class="cls-6" d="m399.68,30.96l2.89-12.99c.14-.61.04-1.19-.63-1.56v-.09h7.25v.09c-.59.35-.79.86-.63,1.56l2.91,12.99c.16.72.54,1.26.99,1.56v.09h-4.34v-.09c.59-.35.79-.86.63-1.56l-.56-2.49h-5.24l-.56,2.49c-.14.58-.07,1.16.61,1.56v.09h-4.31v-.09c.43-.3.81-.82.99-1.56Zm7.93-5.17l-1.54-6.8h-.99l-1.54,6.8h4.06Z"/><path class="cls-6" d="m414.85,32.52c.45-.35.72-.86.72-1.47v-12.06h-3.25c-.59,0-1.11.26-1.31.68h-.14l.52-3.35h11.27l.5,3.35h-.11c-.2-.42-.72-.68-1.31-.68h-3.27v12.06c0,.61.27,1.12.72,1.47v.09h-4.34v-.09Z"/><line class="cls-1" x1="189.03" y1="14.27" x2="189.03" y2="59.27"/><path id="LOGO" class="cls-5" d="m48,22.43l-1.36,4.42.03,20.39h5.07v5.44l2.72-2.72,2.72-2.72h4.76l8.84-8.84v-15.97h-22.77Zm20.39,14.61l-3.74,3.74h-6.12l-3.4,3.4v-3.4h-5.1v-15.97h18.35v12.23Zm-3.74-1.02h-2.38v-6.8h2.38v6.8Zm-6.12,0h-2.38v-6.8h2.38v6.8Z"/><path class="cls-6" d="m140.93,22.11c2.94,0,5.87,0,8.81,0,0,.07,0,.14.01.22,0,.78,0,1.56,0,2.34,0,.46.01.91.02,1.37,0,.23,0,.24.25.25.18,0,.37.02.55.02,1.37,0,2.75,0,4.12,0,.11,0,.2.01.28.1,1.34,1.35,2.69,2.69,4.03,4.04,0,.14,0,.28,0,.42,0,4.42,0,8.84,0,13.26,0,.09,0,.18,0,.28-.05.04-.09.07-.14.11-1.65,1.1-3.3,2.2-4.94,3.3-.61.41-1.22.82-1.83,1.23-.2,0-.4,0-.59,0-1.35,0-2.7,0-4.05,0-.03-.07-.02-.14-.02-.21,0-.59-.02-1.17-.03-1.76,0-.08.02-.17-.04-.24-.06,0-.09.04-.13.06-1.03.69-2.03,1.42-3.04,2.15-1.4,0-2.8,0-4.2,0,0-.08,0-.16,0-.24,0-.55,0-1.1-.01-1.64,0-.1-.01-.2-.02-.3-.08,0-.1.04-.14.07-.11.1-.21.2-.32.3-.62.61-1.23,1.22-1.85,1.83-.09,0-.17,0-.26,0-2.31,0-4.61,0-6.92,0-.09,0-.18,0-.28,0-.74-.75-1.47-1.5-2.26-2.22-.09.24-.12.47-.17.7-.11.51-.21,1.02-.32,1.53-2.17,0-4.34,0-6.5,0-.74-.74-1.47-1.49-2.24-2.21-.02.04-.04.05-.05.07-.04.71,0,1.42-.02,2.14-.07,0-.13,0-.2,0-1.97,0-3.94,0-5.91,0-.08,0-.16,0-.24.01q-.17-.02-.21-.19c-.13-.62-.26-1.24-.39-1.86-.01-.06-.02-.13-.07-.2-.78.73-1.52,1.49-2.27,2.24-3.98,0-7.97,0-11.95,0-.05,0-.11,0-.16,0-.7-.29-1.41-.57-2.11-.84-.15-.06-.17-.05-.17.12,0,.24,0,.47-.01.71-.09,0-.19,0-.28,0-1.93,0-3.86,0-5.79,0-.05-.03-.1-.07-.15-.1-2.2-1.32-4.39-2.63-6.59-3.95-.12-.07-.23-.16-.33-.26-1.3-1.3-2.6-2.59-3.9-3.89-.05-.05-.09-.13-.19-.13v-18.59h8.89c.03.07.09.11.14.16,1.29,1.28,2.57,2.57,3.85,3.86.13.13.25.17.43.17,4.94,0,9.88,0,14.82,0,1.22,0,2.43-.02,3.65-.03.27,0,.27,0,.28-.28.03-1.22.02-2.43.02-3.65,0-.08-.01-.16.02-.24,5.25,0,10.5,0,15.75,0,0,.07.01.13.01.2,0,1.23.02,2.47.02,3.7,0,.05,0,.11,0,.16,0,.07.02.11.1.11.03,0,.07,0,.1,0,1.24.01,2.47.02,3.71.04.04,0,.08,0,.12,0,.08,0,.13.02.12.11,0,.05,0,.09,0,.14,0,.57.01,1.14.02,1.7,0,.07,0,.14.02.21.08-.01.12-.07.16-.12.65-.64,1.3-1.28,1.94-1.93.1-.1.21-.14.35-.14,1.41,0,2.83,0,4.24,0,.15,0,.26-.04.36-.15,1.3-1.3,2.6-2.6,3.9-3.9.05-.05.11-.08.12-.15Zm-42.21,20.89c2.56,0,5.12,0,7.68,0,.15,0,.24-.04.35-.14.98-.98,1.96-1.97,2.94-2.94.11-.11.16-.22.16-.38-.01-3.71-.02-7.41-.02-11.12,0-.05,0-.09,0-.14,0-.08-.03-.11-.11-.1-.03,0-.07,0-.1,0-1.55,0-3.09-.02-4.64-.02-.26,0-.24-.03-.24.25,0,2.83-.02,5.66-.02,8.48,0,.25,0,.5,0,.75,0,.25.03.24-.23.24-.43,0-.86,0-1.29,0-.07,0-.13,0-.2,0-.07,0-.1-.03-.1-.1,0-.05,0-.11,0-.16,0-.73,0-1.47,0-2.2,0-2.35-.02-4.69-.02-7.04,0-.2,0-.2-.21-.21-1.55,0-3.11-.02-4.66-.02-.25,0-.23-.01-.23.22,0,.5,0,.99,0,1.49,0,2.6,0,5.19-.01,7.79,0,.22,0,.23-.23.23-.45,0-.9,0-1.35,0-.28,0-.24.01-.24-.25-.01-3.07-.02-6.14-.04-9.22,0-.05,0-.09,0-.14,0-.07-.03-.09-.1-.09-.03,0-.07,0-.1,0-1.55,0-3.11-.02-4.66-.02-.24,0-.24-.03-.24.24,0,4.79,0,9.58,0,14.37,0,.28,0,.24.25.24,2.56,0,5.12,0,7.68,0Zm44.08-9.54h0c0,3.04,0,6.08,0,9.12,0,.09,0,.17,0,.26,0,.11.04.14.14.14.19,0,.37.02.56.02,1.38,0,2.75,0,4.13,0,.32,0,.28.04.28-.29,0-3.07,0-6.14.01-9.22,0-.22-.03-.22.21-.22.01,0,.03,0,.04,0,1.22,0,2.43,0,3.65,0,.29,0,.25-.02.25.26.01,3.05.02,6.09.03,9.14,0,.05,0,.11,0,.16,0,.1.02.15.13.14.03,0,.07,0,.1,0,1.54,0,3.08,0,4.62,0,.04,0,.08,0,.12,0,.08,0,.11-.03.11-.11,0-.04,0-.08,0-.12,0-3.73,0-7.45.02-11.18,0-.13-.04-.22-.13-.31-.92-.91-1.83-1.83-2.75-2.75-.12-.12-.22-.28-.38-.35-.16-.06-.34-.02-.51-.02-1.73,0-3.45,0-5.18-.01-.38,0-.34-.01-.34-.34-.02-1.18-.02-2.36-.04-3.55,0-.05,0-.11,0-.16,0-.08-.03-.11-.11-.1-.05,0-.09,0-.14,0-1.53,0-3.06,0-4.58,0-.28,0-.25-.03-.25.26,0,3.07,0,6.14,0,9.22Zm-24.12-1.57h-.01c0,2.56,0,5.13,0,7.69,0,.11.01.2.1.28,1.02,1.01,2.03,2.02,3.04,3.04.07.07.14.1.24.1.46,0,.91,0,1.37,0,1.44,0,2.87,0,4.31,0,.2,0,.2,0,.2-.19,0-.01,0-.03,0-.04,0-1.55,0-3.11,0-4.66,0-.04,0-.08,0-.12,0-.08-.03-.11-.11-.1-.06,0-.12,0-.18,0-1.22,0-2.43-.01-3.65-.02-.19,0-.19,0-.19-.2,0-.01,0-.03,0-.04,0-1.37,0-2.74,0-4.1,0-.05,0-.09,0-.14,0-.07.02-.11.1-.11.04,0,.08,0,.12,0,1.21,0,2.42-.02,3.63-.02.06,0,.12,0,.18,0,.08,0,.11-.03.1-.11,0-.04,0-.08,0-.12,0-1.55,0-3.11,0-4.66,0-.04,0-.08,0-.12,0-.07-.03-.11-.11-.11-.07,0-.13,0-.2,0-1.21,0-2.42,0-3.63-.01-.19,0-.19,0-.2-.19,0-.02,0-.04,0-.06-.01-1.23-.02-2.46-.03-3.69,0-.23,0-.21-.22-.21-1.53,0-3.07,0-4.6,0-.29,0-.26-.03-.26.25,0,2.55,0,5.1,0,7.65Zm-39.02-.02h-.02c0,2.56,0,5.13,0,7.69,0,.14.04.24.14.35.99.98,1.98,1.97,2.96,2.96.1.1.2.15.34.15,1.59-.01,3.17-.02,4.76-.02.32,0,.63,0,.95,0,.09,0,.13-.03.13-.13,0-.04,0-.08,0-.12,0-1.53,0-3.05,0-4.58,0-.28.02-.25-.26-.25-1.23-.01-2.46-.02-3.69-.03-.22,0-.19,0-.19-.2,0-.01,0-.03,0-.04,0-1.37,0-2.75,0-4.12,0-.25-.03-.23.23-.23.01,0,.03,0,.04,0,1.2-.01,2.41-.02,3.61-.03.28,0,.26.04.26-.25,0-1.53,0-3.05,0-4.58,0-.05,0-.09,0-.14,0-.07-.03-.11-.1-.11-.05,0-.11,0-.16,0-1.22-.01-2.45-.02-3.67-.03-.23,0-.21.02-.21-.22-.01-1.24-.02-2.48-.04-3.73,0-.23.01-.21-.22-.21-1.53,0-3.07,0-4.6,0-.28,0-.26-.03-.26.25,0,2.54,0,5.09,0,7.63Zm50.16,3.7c0,1.35,0,2.7,0,4.04,0,.14.04.23.14.33.98.97,1.96,1.95,2.93,2.93.1.1.2.14.35.14,2.49,0,4.97,0,7.46,0,.05,0,.09,0,.14,0,.08,0,.11-.03.11-.11,0-.05,0-.11,0-.16,0-1.53,0-3.05,0-4.58,0-.3.04-.27-.26-.27-1.7,0-3.4,0-5.1,0-.17,0-.34,0-.51-.02-.15-.01-.15-.02-.15-.17,0-.04,0-.08,0-.12-.01-1.33-.01-2.67,0-4,0-.05,0-.09,0-.14,0-.1.04-.14.14-.14.3,0,.61-.02.91-.02,1.57,0,3.15,0,4.72,0,.05,0,.11,0,.16,0,.07,0,.09-.03.09-.1,0-.03,0-.07,0-.1,0-1.57,0-3.14,0-4.72,0-.19,0-.19-.2-.2-.01,0-.03,0-.04,0-2.49,0-4.99,0-7.48,0-.14,0-.23.04-.33.14-.98.98-1.96,1.97-2.95,2.94-.09.09-.13.18-.13.31,0,1.34,0,2.68,0,4.02Zm-18.13.01c0,2.4,0,4.8,0,7.19,0,.25-.02.23.24.23,1.54,0,3.08-.01,4.62-.02.27,0,.24.02.24-.25,0-4.77,0-9.54,0-14.31,0-.05,0-.09,0-.14,0-.07-.03-.11-.1-.11-.04,0-.08,0-.12,0-1.54,0-3.08-.02-4.62-.02-.29,0-.26-.02-.26.25,0,2.39,0,4.78,0,7.17Zm2.57-11.59c-.79,0-1.59,0-2.38,0-.16,0-.16,0-.16.15,0,.62-.01,1.24-.01,1.86,0,.32-.01.28.28.28,1.55.03,3.09,0,4.64,0,.17,0,.17,0,.17-.18,0-.65,0-1.29,0-1.94,0-.03,0-.05,0-.08,0-.07-.03-.1-.1-.1-.05,0-.09,0-.14,0-.77,0-1.53,0-2.3,0Z"/><path class="cls-4" d="m267.99,45.79l-2.65.3c-.06-.56-.23-.98-.51-1.24-.27-.27-.63-.4-1.06-.4-.58,0-1.07.27-1.46.8-.4.54-.65,1.65-.75,3.34.68-.83,1.53-1.24,2.54-1.24,1.14,0,2.12.45,2.93,1.34.81.9,1.22,2.05,1.22,3.47,0,1.5-.43,2.71-1.28,3.62-.86.91-1.95,1.36-3.3,1.36-1.44,0-2.62-.58-3.55-1.73-.93-1.15-1.39-3.04-1.39-5.67s.48-4.64,1.45-5.83c.97-1.19,2.22-1.79,3.76-1.79,1.08,0,1.98.31,2.69.94.71.63,1.16,1.53,1.36,2.72Zm-6.2,6.15c0,.92.2,1.62.61,2.12.41.5.88.75,1.4.75s.93-.2,1.26-.61.51-1.08.51-2.01-.18-1.66-.54-2.1c-.36-.44-.82-.67-1.36-.67s-.97.21-1.33.64c-.36.42-.54,1.05-.54,1.88Z"/><path class="cls-4" d="m270.92,49.06v-2.82h2.73v2.82h-2.73Zm0,7.83v-2.82h2.73v2.82h-2.73Z"/><path class="cls-4" d="m276.35,52.99l2.65-.33c.08.7.31,1.23.68,1.59.37.37.82.55,1.34.55.56,0,1.04-.22,1.42-.66s.58-1.04.58-1.79c0-.71-.18-1.27-.55-1.68-.37-.42-.82-.62-1.35-.62-.35,0-.77.07-1.25.21l.3-2.3c.74.02,1.3-.15,1.69-.5.39-.35.58-.82.58-1.4,0-.49-.14-.89-.43-1.18-.29-.29-.67-.44-1.14-.44s-.87.17-1.2.5c-.33.33-.53.82-.6,1.46l-2.52-.44c.17-.89.44-1.6.79-2.13.35-.53.85-.95,1.48-1.25.63-.3,1.34-.46,2.12-.46,1.34,0,2.42.44,3.23,1.32.67.72,1,1.54,1,2.45,0,1.29-.68,2.32-2.05,3.09.82.18,1.47.59,1.96,1.21.49.63.73,1.39.73,2.28,0,1.29-.46,2.39-1.37,3.3-.91.91-2.05,1.36-3.41,1.36-1.29,0-2.36-.38-3.21-1.15s-1.34-1.77-1.48-3Z"/><path class="cls-4" d="m292.14,42.13c1.38,0,2.46.51,3.24,1.52.93,1.2,1.39,3.2,1.39,5.99s-.47,4.78-1.4,6c-.77,1-1.85,1.5-3.23,1.5s-2.51-.55-3.36-1.65c-.85-1.1-1.27-3.06-1.27-5.88s.47-4.76,1.4-5.98c.77-1,1.85-1.5,3.23-1.5Zm0,2.34c-.33,0-.62.11-.88.33s-.46.61-.6,1.17c-.19.73-.28,1.96-.28,3.68s.08,2.91.25,3.56c.17.65.38,1.08.64,1.29s.55.32.88.32.63-.11.89-.33c.26-.22.46-.61.6-1.17.19-.72.28-1.95.28-3.67s-.08-2.91-.25-3.56-.38-1.08-.64-1.29c-.26-.22-.55-.33-.88-.33Z"/><path class="cls-4" d="m299.2,56.89v-14.7h4.62c1.75,0,2.89.07,3.42.22.82.22,1.5.7,2.05,1.44.55.74.83,1.69.83,2.86,0,.9-.16,1.66-.48,2.28-.32.62-.72,1.1-1.21,1.45-.49.35-.99.58-1.49.7-.69.14-1.68.21-2.99.21h-1.88v5.55h-2.88Zm2.88-12.22v4.17h1.58c1.13,0,1.89-.08,2.28-.23.38-.15.68-.39.9-.72.22-.33.33-.71.33-1.14,0-.54-.15-.98-.46-1.32s-.69-.56-1.16-.65c-.34-.07-1.03-.1-2.07-.1h-1.39Z"/><path class="cls-4" d="m312.45,56.89v-14.7h4.31l2.59,10.03,2.56-10.03h4.32v14.7h-2.67v-11.58l-2.83,11.58h-2.77l-2.82-11.58v11.58h-2.67Z"/><path class="cls-4" d="m334.62,56.89v-14.7h4.62c1.75,0,2.89.07,3.42.22.82.22,1.5.7,2.05,1.44.55.74.83,1.69.83,2.86,0,.9-.16,1.66-.48,2.28-.32.62-.72,1.1-1.21,1.45-.49.35-.99.58-1.49.7-.69.14-1.68.21-2.99.21h-1.88v5.55h-2.88Zm2.88-12.22v4.17h1.58c1.13,0,1.89-.08,2.28-.23.38-.15.68-.39.9-.72.22-.33.33-.71.33-1.14,0-.54-.15-.98-.46-1.32s-.69-.56-1.16-.65c-.34-.07-1.03-.1-2.07-.1h-1.39Z"/><path class="cls-4" d="m347.17,52.11l2.8-.28c.17.97.51,1.68,1.03,2.14s1.21.68,2.09.68c.93,0,1.62-.2,2.1-.61.47-.4.71-.88.71-1.42,0-.35-.1-.64-.3-.89-.2-.24-.54-.46-1.04-.64-.34-.12-1.11-.33-2.31-.64-1.54-.39-2.63-.88-3.25-1.45-.88-.81-1.31-1.8-1.31-2.96,0-.75.21-1.45.62-2.1.41-.65,1-1.15,1.78-1.49.77-.34,1.71-.51,2.81-.51,1.79,0,3.14.4,4.04,1.21.9.81,1.38,1.89,1.42,3.24l-2.88.13c-.12-.76-.39-1.3-.79-1.63s-1.01-.5-1.82-.5-1.49.18-1.96.53c-.31.23-.46.53-.46.91,0,.35.14.65.43.89.36.31,1.25.64,2.65.98s2.44.69,3.11,1.06c.67.36,1.2.86,1.58,1.49.38.63.57,1.41.57,2.34,0,.84-.23,1.63-.68,2.37-.45.74-1.1,1.28-1.93,1.64-.83.36-1.86.54-3.1.54-1.8,0-3.19-.43-4.15-1.29-.97-.86-1.54-2.11-1.73-3.76Z"/><path class="cls-4" d="m364.4,56.89v-12.22h-4.23v-2.49h11.33v2.49h-4.22v12.22h-2.88Z"/></g></g></svg>