<svg id="Layer_1" data-name="Layer 1" xmlns="http://www.w3.org/2000/svg" viewBox="0 0 460.96 70.6"><defs><style>.cls-1{fill:#1da1f2;}.cls-2{fill:#fff;}</style></defs><rect class="cls-1" width="460.96" height="70.6" rx="35.3"/><path class="cls-2" d="M157.36,27h-6.15v-6h19.17v6h-6.24V48.6h-6.78Zm5.13,20.27V27H159V47.31Z"/><path class="cls-2" d="M171.76,21.08h7.06l5.55,13,3.34-8.62L186,21.08h7L198.44,34l5.05-12.93h7L199,49.51h-.92l-6.78-15.86-6.56,15.86h-.87Zm18.66,10.5-1.74-3.94L185.38,36l1.65,3.9ZM201.15,40l7.15-17.65h-3.53l-5.36,13.57Z"/><path class="cls-2" d="M213.17,21.08h6.74V48.6h-6.74Zm5,26.23V37.5h-3.35v9.81Z"/><path class="cls-2" d="M229.17,27H223v-6h19.16v6H236V48.6h-6.79Zm5.14,20.27V27h-3.53V47.31Z"/><path class="cls-2" d="M250.18,27H244v-6H263.2v6H257V48.6h-6.78Zm5.13,20.27V27h-3.53V47.31Z"/><path class="cls-2" d="M266.32,21.08h18.2v6H273.06v5h10.59v5.87H273.06v5h12V48.6H266.32Zm5,23V25.76L268,22.37V47.31Z"/><path class="cls-2" d="M288.29,21.08h11.5c5.92,0,9.77,3.58,9.77,8.76,0,4.82-2.43,7.52-6.51,8.53l7.43,10.23H302l-7-10.28V48.6h-6.74Zm5,26.23V22.37H290V47.31ZM300.44,33C302,33,303,31.45,303,29.84a2.91,2.91,0,0,0-2.71-3H295V33Z"/></svg>