<svg xmlns="http://www.w3.org/2000/svg" viewBox="0 0 460.96 70.6"><defs><style>.cls-1{isolation:isolate;}.cls-2{fill:#6441a4;mix-blend-mode:color;}.cls-3{fill:#fff;}</style></defs><g class="cls-1"><g id="Layer_1" data-name="Layer 1"><rect class="cls-2" width="460.96" height="70.6" rx="35.3"/><path class="cls-3" d="M162.63,27.5h-6.14v-6h19.16v6h-6.23V49.05h-6.79Zm5.14,20.27V27.5h-3.54V47.77Z"/><path class="cls-3" d="M177,21.54h7.06l5.55,13L193,25.9l-1.74-4.36h7l5.51,12.93,5-12.93h7L204.31,50h-.91l-6.79-15.86L190.05,50h-.87ZM195.69,32,194,28.1l-3.3,8.39,1.65,3.9Zm10.73,8.44,7.16-17.65H210L204.68,36.4Z"/><path class="cls-3" d="M218.44,21.54h6.74V49.05h-6.74Zm5.05,26.23V38h-3.35v9.81Z"/><path class="cls-3" d="M234.45,27.5H228.3v-6h19.17v6h-6.24V49.05h-6.78Zm5.13,20.27V27.5h-3.53V47.77Z"/><path class="cls-3" d="M263.93,20.63a15.38,15.38,0,0,1,11.79,5l-4.64,4.4A10.21,10.21,0,0,0,263.93,27c-4.9,0-8.07,3.67-8.07,8.3s3.17,8.3,8.07,8.3a10.21,10.21,0,0,0,7.15-3.07l4.5,4.4a15.62,15.62,0,0,1-11.65,5A14.42,14.42,0,0,1,249,35.3,14.42,14.42,0,0,1,263.93,20.63ZM271,28.19l2.61-2.52a12.89,12.89,0,0,0-9.72-3.76v3.8A11.83,11.83,0,0,1,271,28.19ZM273.56,45,271,42.36a10.86,10.86,0,0,1-7,2.52v3.81A13.38,13.38,0,0,0,273.56,45Z"/><path class="cls-3" d="M279,21.54h6.74V32.36h10.77V21.54h6.7V49.05h-6.7V38.19H285.72V49.05H279Zm5,26.23V38.19h-3.35v9.58Zm17.47,0V38.19h-3.3v9.58Z"/></g></g></svg>