<svg xmlns="http://www.w3.org/2000/svg" viewBox="0 0 460.96 70.6"><defs><style>.cls-1{isolation:isolate;}.cls-2{fill:#e52d27;mix-blend-mode:color;}.cls-3{fill:#fff;}.cls-4{fill:red;}</style></defs><g class="cls-1"><g id="Layer_1" data-name="Layer 1"><path class="cls-2" d="M426.57,0H34.39A34.39,34.39,0,0,0,0,34.39V36.2A34.4,34.4,0,0,0,34.39,70.6H426.57A34.4,34.4,0,0,0,461,36.2V34.39A34.39,34.39,0,0,0,426.57,0ZM71.6,45.36a5.59,5.59,0,0,1-3.92,3.94c-3.45.93-17.31.93-17.31.93s-13.85,0-17.3-.93a5.59,5.59,0,0,1-3.92-3.94c-.93-3.48-.93-10.74-.93-10.74s0-7.25.93-10.73A5.55,5.55,0,0,1,33.07,20C36.52,19,50.37,19,50.37,19s13.86,0,17.31.93a5.55,5.55,0,0,1,3.92,3.94c.92,3.48.92,10.73.92,10.73S72.52,41.88,71.6,45.36Z"/><path class="cls-3" d="M134.53,41c1.87,0,5.27-3.16,6.81-6.64s2.38-6.28,3.88-10.57c.45-1.21,1.5-3.68,3.2-3.89a6.79,6.79,0,0,0,3-1l.2.37a9.84,9.84,0,0,0-1.9,2.63c-1,1.94-3.24,8.54-5.15,15.83-2,7.45-4.21,20.94-14.33,20.94-5.47,0-8.87-3.53-8.87-7.66a7.51,7.51,0,0,1,7.41-7.45c2.23,0,4,1,4,2.39a1.21,1.21,0,0,1-1.25,1.34c-1.06,0-1.34-.93-1.34-1.78,0-.61-.28-1.18-1.7-1.18a6.17,6.17,0,0,0-5.87,6.24c0,3.64,2.67,5.63,6.27,5.63,6.89,0,10.37-12.64,12.15-19.4-1.78,2.63-4.66,5.63-7.85,5.63-2.27,0-5.15-1.14-5.15-4.74,0-3,1.3-7.45,2.68-11.9a9.19,9.19,0,0,1,4.21-5.31,20.54,20.54,0,0,0-3.53-.44c-7.41,0-14.05,3.8-14.05,11.46,0,2.79,1.14,4.69,4,4.69,2.15,0,3.48-1.37,3.48-3,0-1-.77-1.06-.77-1.95a1.23,1.23,0,0,1,1.3-1.29c.89,0,1.34.73,1.34,1.66A5.48,5.48,0,0,1,121,37c-3.4,0-6.64-1.86-6.64-5.71,0-8.06,8.74-12,16.11-12,2.88,0,4,.28,5.15.28a7,7,0,0,0,2.91-.57l.2.41c-2.3,1.13-3.6,4.78-4.33,7.25-1.25,4.41-2.35,8.22-2.35,11C132.06,40.1,132.79,41,134.53,41Z"/><path class="cls-3" d="M157.21,37.91a6.67,6.67,0,0,1-6.4,6.48c-2.47,0-4.41-1.17-4.41-3.56a6.56,6.56,0,0,1,6.32-6.52C155.35,34.31,157.21,35.65,157.21,37.91Zm-7.61,3.77c0,1.21.4,2,1.21,2,1.62,0,3.24-3.6,3.24-6.92,0-1.22-.36-1.78-1.25-1.78C151.18,35,149.6,38.12,149.6,41.68Z"/><path class="cls-3" d="M165.35,42.61a3.23,3.23,0,0,1,.2-1.3c-1.49,1.66-3.32,3-4.9,3a2,2,0,0,1-2.3-2.06c0-1.79,2.18-4.22,2.18-5.79,0-.29-.12-.41-.36-.41s-1.54,1.05-1.54,1.05l-.28-.36c.64-.57,2.67-2.35,3.92-2.35s1.75.53,1.75,1.34c0,1.62-2,4.45-2,6.31a.57.57,0,0,0,.61.65c.57,0,1.42-.44,2.91-2.23.65-.81,1-2.83,1.46-3.84a3.5,3.5,0,0,1,2.75-2,3.81,3.81,0,0,0,2.11-.69l.28.45a4.53,4.53,0,0,0-1.62,1.78,18.72,18.72,0,0,0-1.66,6.08c0,.28.13.44.29.44.77,0,1.94-1.21,1.94-1.21l.28.32s-2.1,2.51-3.92,2.51C166.32,44.31,165.35,43.7,165.35,42.61Z"/><path class="cls-3" d="M204,19.37c.21-.12.37-.25.49-.25a.27.27,0,0,1,.28.25,1,1,0,0,1-.24.56c-.65.89-2.67,3.77-5,3.77a13,13,0,0,1-5.59-1.34c-4,4.66-2.1,14-5.55,19.76A9.79,9.79,0,0,1,180.17,47c-3.28,0-4.33-1.62-4.33-2.35a.64.64,0,0,1,.65-.72.57.57,0,0,1,.61.6c0,.45.52,1.5,2.14,1.5,1.9,0,3.4-1.66,5-5,2.59-5.43,3.61-15.1,8.47-19.23a16.28,16.28,0,0,0-7.13-1.91c-4.86,0-10.53,4.3-10.53,10.57,0,2.8,1.05,5.1,4,5.1a3.38,3.38,0,0,0,3.6-3.11c0-1-.77-1.06-.77-1.91a1.23,1.23,0,0,1,1.3-1.29c.85,0,1.38.69,1.38,1.66a5.69,5.69,0,0,1-5.75,5.42c-3.53,0-6.65-2.26-6.65-6.07,0-7.13,7.09-11.18,13.81-11.18,6.36,0,7.86,1.46,14,1.46A6.76,6.76,0,0,0,204,19.37Z"/><path class="cls-3" d="M199.81,42.61a3.1,3.1,0,0,1,.21-1.3c-1.5,1.66-3.32,3-4.9,3a2,2,0,0,1-2.31-2.06c0-1.79,2.18-4.22,2.18-5.79,0-.29-.12-.41-.36-.41s-1.54,1.05-1.54,1.05l-.28-.36c.65-.57,2.67-2.35,3.93-2.35s1.74.53,1.74,1.34c0,1.62-2,4.45-2,6.31a.57.57,0,0,0,.61.65c.57,0,1.42-.44,2.92-2.23.64-.81,1-2.83,1.45-3.84a3.5,3.5,0,0,1,2.76-2,3.74,3.74,0,0,0,2.1-.69l.29.45A4.45,4.45,0,0,0,205,36.17a18.72,18.72,0,0,0-1.66,6.08c0,.28.12.44.28.44.77,0,1.94-1.21,1.94-1.21l.29.32s-2.11,2.51-3.93,2.51A1.84,1.84,0,0,1,199.81,42.61Z"/><path class="cls-3" d="M216.21,25a5.12,5.12,0,0,0-1.66,2,60,60,0,0,0-3,9.31,6.93,6.93,0,0,1,4.09-2,2.89,2.89,0,0,1,2.95,3.16c0,3.36-2.75,6.84-6,6.84a3.44,3.44,0,0,1-3.36-2,5.13,5.13,0,0,1-4,2V44c1.5-.65,2-3.69,3.12-7.74s1.74-6.6,2.06-7.89a3.74,3.74,0,0,1,1.79-2.35,2.78,2.78,0,0,1-.57,0,6.63,6.63,0,0,1-1.26-.2l.37-.49a4.06,4.06,0,0,0,1.17.16,10.21,10.21,0,0,0,4.09-.93ZM211,38.4a17.65,17.65,0,0,0-.89,3.28,1.56,1.56,0,0,0,1.66,1.66c1.74,0,3.28-3.81,3.28-6.24,0-1.13-.28-1.62-.89-1.62A4.46,4.46,0,0,0,211,38.4Z"/><path class="cls-3" d="M226.5,34.39c1.62,0,2.83.69,2.83,1.82,0,2.11-2.34,3.53-4.37,3.53-.4,0-.81-.09-.81-.37a.19.19,0,0,1,.2-.2c1.54,0,2.84-1.91,2.84-3.61,0-.32-.16-.52-.45-.52-1.54,0-3.4,3.12-3.4,5.63,0,1.82.85,2.43,1.82,2.43a4.69,4.69,0,0,0,2.92-1.62l.32.32a7.14,7.14,0,0,1-5,2.51c-1.74,0-3.64-.93-3.64-3.16C219.74,37.26,223.87,34.39,226.5,34.39Z"/><path class="cls-3" d="M231.08,41.19a.92.92,0,0,1,.89,1c0,1-.81,2.42-2,2.42a1,1,0,0,1-1-1.09C229,42.69,229.9,41.19,231.08,41.19Z"/><path class="cls-3" d="M244.56,36.41A1.65,1.65,0,0,1,243,38.16a1.27,1.27,0,0,1-1.37-1.06c0-.73.72-1.09.72-1.62A.43.43,0,0,0,242,35c-2.15,0-3.81,2.79-3.81,5.54,0,1.83.81,2.56,1.91,2.56,1.37,0,2.83-1.58,2.83-1.58l.28.32a7,7,0,0,1-4.94,2.47c-1.53,0-3.68-.73-3.68-3.16,0-4.25,4.17-6.76,7.17-6.76C243.27,34.39,244.56,35.28,244.56,36.41Z"/><path class="cls-3" d="M256,37.91a6.67,6.67,0,0,1-6.4,6.48c-2.47,0-4.41-1.17-4.41-3.56a6.56,6.56,0,0,1,6.32-6.52C254.16,34.31,256,35.65,256,37.91Zm-7.61,3.77c0,1.21.4,2,1.21,2,1.62,0,3.24-3.6,3.24-6.92,0-1.22-.36-1.78-1.25-1.78C250,35,248.41,38.12,248.41,41.68Z"/><path class="cls-3" d="M276.51,35.89c0,1.94-1.86,3.64-1.86,6,0,.69.36.85.57.85.93,0,2-1.17,2-1.17l.32.32s-2,2.47-4.13,2.47c-1.29,0-2.39-.65-2.39-1.94,0-2.15,2.27-4.25,2.27-5.83,0-.49-.2-.65-.48-.65-.53,0-1.79.48-3.4,2.47a16.63,16.63,0,0,0-1.83,5.38c0,.45-.48.57-.85.57s-.89-.12-1.54-.12a8.37,8.37,0,0,0-1.29.24c-.12,0-.2-.08-.2-.24s.36-.24.6-.85a27,27,0,0,0,1.78-6.8c0-.53-.16-.77-.48-.77s-1.3.44-2.84,2.43a17.71,17.71,0,0,0-1.9,5.54c0,.45-.28.57-.89.57-.36,0-.85-.12-1.58-.12a6.13,6.13,0,0,0-1.54.32c-.08,0-.16-.08-.16-.24s.49-.4.73-1a29.08,29.08,0,0,0,2.15-6.84c0-.41-.13-.53-.33-.53-.4,0-1.62,1.09-1.62,1.09l-.32-.36c.69-.61,2.59-2.27,3.89-2.27,1,0,1.74.49,1.74,1.3a5.79,5.79,0,0,1-.37,1.86c1.38-1.78,3.16-3.16,4.7-3.16,1.34,0,2.06.65,2.06,1.54a9.3,9.3,0,0,1-.4,2.06c1.62-2.14,4.09-3.6,5.71-3.6C275.7,34.39,276.51,35,276.51,35.89Z"/><path class="cls-3" d="M279.75,44.8a.49.49,0,0,1-.48.24c-.65,0-1.38,0-1.38-.16s.08-.2.12-.37l9.92-20.65a.5.5,0,0,1,.49-.28c.61,0,1.38,0,1.38.16a1,1,0,0,1-.13.45Z"/><path class="cls-3" d="M312,48.48c-1,1.46-2.8,3.85-5.27,3.85-2.71,0-4.29-.89-8.22-6.2a9,9,0,0,1-2.71.45c-2.55,0-4.86-.81-6.08-2.67a1.69,1.69,0,0,0-.76,1.41c0,1,.85.81.85,1.91a1.28,1.28,0,0,1-1.3,1.29,1.61,1.61,0,0,1-1.62-1.82,4.42,4.42,0,0,1,2.35-3.52,10,10,0,0,1-1.09-4.74c0-8.3,7-19.36,16.4-19.36,4.37,0,6.8,2.47,6.8,7.37,0,7.86-5.23,16-10.89,18.83,2.34,1.91,4.94,4,7.81,4a4.76,4.76,0,0,0,3.36-1.17Zm-19.32-9.76a10.26,10.26,0,0,0,.57,3.36,11.83,11.83,0,0,1,6.4,2.51c4-2.47,7.45-10.81,7.45-17.73,0-3.28-.25-6.8-3.93-6.8C296.92,20.06,292.67,31.72,292.67,38.72Zm5.26,6.64a7.56,7.56,0,0,0-4.41-2.47,3.86,3.86,0,0,0,4.41,2.47Z"/><path class="cls-3" d="M317.37,42.61a3.1,3.1,0,0,1,.21-1.3c-1.5,1.66-3.33,3-4.9,3a2,2,0,0,1-2.31-2.06c0-1.79,2.18-4.22,2.18-5.79,0-.29-.12-.41-.36-.41s-1.54,1.05-1.54,1.05l-.28-.36c.65-.57,2.67-2.35,3.93-2.35s1.74.53,1.74,1.34c0,1.62-2,4.45-2,6.31a.57.57,0,0,0,.61.65c.57,0,1.42-.44,2.91-2.23.65-.81,1-2.83,1.46-3.84a3.5,3.5,0,0,1,2.76-2,3.74,3.74,0,0,0,2.1-.69l.29.45a4.45,4.45,0,0,0-1.62,1.78,18.72,18.72,0,0,0-1.66,6.08c0,.28.12.44.28.44.77,0,1.94-1.21,1.94-1.21l.29.32s-2.11,2.51-3.93,2.51C318.34,44.31,317.37,43.7,317.37,42.61Z"/><path class="cls-3" d="M330.9,34.39c1.62,0,2.83.69,2.83,1.82,0,2.11-2.35,3.53-4.37,3.53-.41,0-.81-.09-.81-.37a.19.19,0,0,1,.2-.2c1.54,0,2.84-1.91,2.84-3.61,0-.32-.16-.52-.45-.52-1.54,0-3.4,3.12-3.4,5.63,0,1.82.85,2.43,1.82,2.43a4.69,4.69,0,0,0,2.92-1.62l.32.32a7.14,7.14,0,0,1-5,2.51c-1.74,0-3.64-.93-3.64-3.16C324.14,37.26,328.27,34.39,330.9,34.39Z"/><path class="cls-3" d="M341.63,34.39c1.62,0,2.83.69,2.83,1.82,0,2.11-2.34,3.53-4.37,3.53-.4,0-.81-.09-.81-.37a.19.19,0,0,1,.2-.2c1.54,0,2.84-1.91,2.84-3.61,0-.32-.16-.52-.45-.52-1.54,0-3.4,3.12-3.4,5.63,0,1.82.85,2.43,1.82,2.43a4.69,4.69,0,0,0,2.92-1.62l.32.32a7.14,7.14,0,0,1-5,2.51c-1.74,0-3.64-.93-3.64-3.16C334.87,37.26,339,34.39,341.63,34.39Z"/><path class="cls-3" d="M356.94,34.39a1.75,1.75,0,0,1,1.9,1.5c0,1.94-1.86,3.64-1.86,6,0,.69.36.85.56.85.94,0,2-1.17,2-1.17l.32.32s-2,2.47-4.13,2.47c-1.29,0-2.39-.65-2.39-1.94,0-2.15,2.27-4.34,2.27-5.83,0-.49-.2-.65-.48-.65-.73,0-2.19.85-3.57,2.43-.85,1-1.94,4.78-1.94,5.42,0,.45-.29.57-.89.57-.37,0-.85-.12-1.58-.12a6.13,6.13,0,0,0-1.54.32c-.08,0-.16-.08-.16-.24s.48-.4.73-1a29,29,0,0,0,2.14-6.84c0-.41-.12-.53-.32-.53-.41,0-1.62,1.09-1.62,1.09l-.28-.36c.68-.61,2.55-2.27,3.84-2.27,1,0,1.74.49,1.74,1.3a8.16,8.16,0,0,1-.36,2.06C352.93,35.93,355.4,34.39,356.94,34.39Z"/><path class="cls-3" d="M373.66,40.06c0-6.28-4.21-8.3-4.21-13.77C369.45,22,374,19,377.27,19c3,0,5,1.54,5,4.09,0,1.66-.69,3.36-2.07,3.36a1.2,1.2,0,0,1-1.25-1.25c0-1.62,2-1.42,2-3.08,0-1.09-1.42-2.23-3-2.23-2.63,0-4.21,1.91-4.21,4.74,0,5.43,4.58,7.65,4.58,14.62,0,6.07-5.43,9.56-10.17,9.56s-7.89-3.16-7.89-6.85a6.27,6.27,0,0,1,6.19-6.31c2,0,3.57,1.13,3.57,2.3a1.12,1.12,0,0,1-1.18,1.22c-.89,0-1.17-.77-1.17-1.58,0-.61-.12-1.3-1.58-1.3-2.39,0-4.74,2.55-4.74,5.31,0,3.4,2.71,5.51,5.91,5.51C371.11,47.15,373.66,44,373.66,40.06Z"/><path class="cls-3" d="M383.63,41.84c0,.61.28.85.52.85.77,0,1.94-1.21,1.94-1.21l.33.32s-2.31,2.51-4.17,2.51c-1.18,0-2.35-.36-2.35-2s2.19-4.26,2.19-5.83a.32.32,0,0,0-.37-.37c-.4,0-1.5,1-1.5,1l-.28-.36c.65-.57,2.63-2.31,3.93-2.31,1.13,0,1.86.61,1.86,1.38C385.73,37.51,383.63,40.18,383.63,41.84Zm2.42-13.4a1.17,1.17,0,0,1,1.22,1.21c0,1.18-1,2.63-2,2.63A1.27,1.27,0,0,1,383.91,31,2.73,2.73,0,0,1,386.05,28.44Z"/><path class="cls-3" d="M388.89,33.3h.77a4.19,4.19,0,0,1,3.24-3.2,8,8,0,0,0,2.23-.77l.24.48a4.77,4.77,0,0,0-1.66,1.79,7.72,7.72,0,0,0-.81,1.7h2.83l-.36.69H392.7c-.77,2.63-1.79,5.87-1.79,7.32,0,1,.33,1.38,1,1.38a3.87,3.87,0,0,0,2.22-1.21l.29.32s-2.27,2.51-4.25,2.51a2.58,2.58,0,0,1-2.8-2.35c0-1.66,1.05-4.45,2.11-8h-1Z"/><path class="cls-3" d="M401.65,37.91a22.53,22.53,0,0,0-2.11,5.83c0,.45-.2.57-.57.57s-1.17-.12-1.9-.12a6.63,6.63,0,0,0-1.58.32.17.17,0,0,1-.16-.16c0-.16.44-.44.73-1a28.85,28.85,0,0,0,2.18-6.88c0-.17,0-.41-.32-.41-.45,0-1.58,1.05-1.58,1.05l-.28-.36c.6-.57,2.55-2.35,3.88-2.35,1.14,0,1.79.61,1.79,1.34a4.11,4.11,0,0,1-.13,1.17c.86-1.21,2.35-2.51,3.33-2.51a1.41,1.41,0,0,1,1.57,1.34,1.7,1.7,0,0,1-1.66,1.82,1.1,1.1,0,0,1-1.13-1.09c0-.25-.08-.37-.24-.37C403.06,36.09,402.66,36.46,401.65,37.91Z"/><path class="cls-3" d="M417,42.73c.73,0,2-1.25,2-1.25l.28.32s-2.27,2.51-3.64,2.51a1.79,1.79,0,0,1-1.95-1.78,4.36,4.36,0,0,1,.16-1.26c-.64,1.14-2.55,3-4.37,3-2.14,0-3.28-1.17-3.28-3a7.39,7.39,0,0,1,6.68-6.92c1.54,0,2.35.77,2.47,1.78.29-.81.93-1.33,2.31-1.54a4,4,0,0,0,1.94-.69l.25.49a3.89,3.89,0,0,0-1.62,1.74,19.6,19.6,0,0,0-1.7,5.95C416.51,42.57,416.71,42.73,417,42.73ZM413.92,40a11.88,11.88,0,0,0,.81-3c0-1-.33-1.82-1.46-1.82-2,0-3.48,3.4-3.48,5.83,0,1.5.32,2.11,1,2.11C411.77,43.06,413.19,41.48,413.92,40Z"/><path class="cls-3" d="M81.09,21.16A7.36,7.36,0,0,0,75.93,16c-4.56-1.22-22.81-1.22-22.81-1.22s-18.25,0-22.8,1.22a7.35,7.35,0,0,0-5.16,5.2c-1.22,4.58-1.22,14.14-1.22,14.14s0,9.56,1.22,14.14a7.31,7.31,0,0,0,5.16,5.19c4.55,1.23,22.8,1.23,22.8,1.23s18.25,0,22.81-1.23a7.33,7.33,0,0,0,5.16-5.19c1.22-4.58,1.22-14.14,1.22-14.14S82.31,25.74,81.09,21.16Z"/><polygon class="cls-4" points="47.15 43.98 62.41 35.3 47.15 26.62 47.15 43.98"/></g></g></svg>