<svg xmlns="http://www.w3.org/2000/svg" viewBox="0 0 460.96 70.6"><defs><style>.cls-1{isolation:isolate;}.cls-2{fill:#e52d27;mix-blend-mode:color;}.cls-3{fill:#fff;}</style></defs><g class="cls-1"><g id="Layer_1" data-name="Layer 1"><path class="cls-2" d="M426.57,0H34.39A34.39,34.39,0,0,0,0,34.39V36.2A34.4,34.4,0,0,0,34.39,70.6H426.57A34.4,34.4,0,0,0,461,36.2V34.39A34.39,34.39,0,0,0,426.57,0Z"/><path class="cls-3" d="M151.67,35.76,141.9,21.54h7.61L155,29.8l5.54-8.26h7.57l-9.77,14.22V49.05h-6.69Zm13.8-12.93h-3.9l-5.5,8.11,1.88,2.8Z"/><path class="cls-3" d="M183.72,20.63A14.37,14.37,0,0,1,198.53,35.3a14.81,14.81,0,0,1-29.62,0A14.35,14.35,0,0,1,183.72,20.63Zm0,28a12.83,12.83,0,0,0,12.84-10.41H193a9.75,9.75,0,0,1-18.61,0h-3.54A12.73,12.73,0,0,0,183.72,48.6Zm0-5c4.86,0,8-3.67,8-8.3s-3.12-8.3-8-8.3-8,3.67-8,8.3S178.82,43.6,183.72,43.6Z"/><path class="cls-3" d="M203.22,21.54h6.69V38.78c0,3.67,1.74,5,4.08,5,2.57,0,4.18-1.29,4.18-5V21.54h6.74V39.79C224.91,46.3,220.05,50,214,50c-6.28,0-10.77-3.85-10.77-10.18Zm5,11.05V22.83h-3.35v9.76Zm15,0V22.83h-3.39v9.76Z"/><path class="cls-3" d="M234.17,27.5H228v-6h19.16v6H241V49.05h-6.79Zm5.14,20.27V27.5h-3.53V47.77Z"/><path class="cls-3" d="M250.32,21.54H257V38.78c0,3.67,1.74,5,4.08,5,2.57,0,4.17-1.29,4.17-5V21.54H272V39.79C272,46.3,267.14,50,261.09,50c-6.28,0-10.77-3.85-10.77-10.18Zm5,11.05V22.83H252v9.76Zm14.95,0V22.83h-3.4v9.76Z"/><path class="cls-3" d="M276.41,21.54H287.5c4.59,0,8.26,3.4,8.26,7.71a6.56,6.56,0,0,1-3,5.64V35c2.84,2,4,3.94,4,6.78,0,3.81-3,7.29-8.25,7.29H276.41Zm5,26.23V22.83h-3.3V47.77Zm4.9-15.27a2.55,2.55,0,1,0,0-5.09H283.1V32.5Zm.87,10.55a2.32,2.32,0,0,0,2.57-2.39,2.43,2.43,0,0,0-2.57-2.43H283.1v4.82Z"/><path class="cls-3" d="M300.07,21.54h18.21v6H306.81v5H317.4v5.86H306.81v5h12v5.77H300.07Zm5.05,23V26.22l-3.35-3.39V47.77Z"/></g></g></svg>